<?xml version="1.0" standalone="no"?>
<!DOCTYPE svg PUBLIC "-//W3C//DTD SVG 1.1//EN" "http://www.w3.org/Graphics/SVG/1.1/DTD/svg11.dtd" >
<svg xmlns="http://www.w3.org/2000/svg" xmlns:xlink="http://www.w3.org/1999/xlink" version="1.1">
<metadata>
Created by FontForge 20170731 at Thu Oct 16 17:28:07 2008
 By Aleksey,,,
Copyright (C) 2005, 2008 Hoefler &#38; Frere-Jones. http://www.typography.com
</metadata>
<defs>
<font id="GothamCondensed-BookItalic" horiz-adv-x="240" >
  <font-face 
    font-family="Gotham Condensed Book"
    font-weight="325"
    font-style="italic"
    font-stretch="condensed"
    units-per-em="1000"
    panose-1="0 0 0 0 0 0 0 0 0 0"
    ascent="800"
    descent="-200"
    x-height="528"
    cap-height="700"
    bbox="-201 -200 735 920"
    underline-thickness="50"
    underline-position="-200"
    slope="-12"
    unicode-range="U+0020-FB04"
  />
<missing-glyph horiz-adv-x="500" 
d="M0 -200v1000h500v-1000h-500zM50 -76l172 376l-172 376v-752zM71 -150h358l-179 390zM250 360l179 390h-358zM450 -76v752l-172 -376z" />
    <glyph glyph-name="f_f" unicode="ff" horiz-adv-x="438" 
d="M15 0l92 474h-48l10 54h49l10 55q13 70 47 100q30 25 72 25q29 0 50 -9l-12 -55q-17 7 -33 7q-27 0 -40.5 -17.5t-21.5 -55.5l-10 -50h79l-10 -54h-79l-92 -474h-63zM234 0l92 474h-48l10 54h49l10 55q13 70 47 100q30 25 72 25q29 0 50 -9l-12 -55q-17 7 -33 7
q-27 0 -40.5 -17.5t-21.5 -55.5l-10 -50h79l-10 -54h-79l-92 -474h-63z" />
    <glyph glyph-name="fi" unicode="fi" horiz-adv-x="388" 
d="M15 0l92 474h-48l10 54h49l10 55q13 70 47 100q30 25 72 25q29 0 50 -9l-12 -55q-17 7 -33 7q-27 0 -40.5 -17.5t-21.5 -55.5l-10 -50h79l-10 -54h-79l-92 -474h-63zM221 0l103 528h62l-103 -528h-62zM341 624l15 82h66l-15 -82h-66z" />
    <glyph glyph-name="fl" unicode="fl" horiz-adv-x="388" 
d="M15 0l92 474h-48l10 54h49l10 55q13 70 47 100q30 25 72 25q29 0 50 -9l-12 -55q-17 7 -33 7q-27 0 -40.5 -17.5t-21.5 -55.5l-10 -50h79l-10 -54h-79l-92 -474h-63zM222 0l137 706h62l-137 -706h-62z" />
    <glyph glyph-name="f_f_i" unicode="ffi" horiz-adv-x="608" 
d="M15 0l92 474h-48l10 54h49l10 55q13 70 47 100q30 25 72 25q29 0 50 -9l-12 -55q-17 7 -33 7q-27 0 -40.5 -17.5t-21.5 -55.5l-10 -50h79l-10 -54h-79l-92 -474h-63zM234 0l92 474h-48l10 54h49l10 55q13 70 47 100q30 25 72 25q29 0 50 -9l-12 -55q-17 7 -33 7
q-27 0 -40.5 -17.5t-21.5 -55.5l-10 -50h79l-10 -54h-79l-92 -474h-63zM441 0l103 528h62l-103 -528h-62zM561 624l15 82h66l-15 -82h-66z" />
    <glyph glyph-name="f_f_l" unicode="ffl" horiz-adv-x="608" 
d="M15 0l92 474h-48l10 54h49l10 55q13 70 47 100q30 25 72 25q29 0 50 -9l-12 -55q-17 7 -33 7q-27 0 -40.5 -17.5t-21.5 -55.5l-10 -50h79l-10 -54h-79l-92 -474h-63zM234 0l92 474h-48l10 54h49l10 55q13 70 47 100q30 25 72 25q29 0 50 -9l-12 -55q-17 7 -33 7
q-27 0 -40.5 -17.5t-21.5 -55.5l-10 -50h79l-10 -54h-79l-92 -474h-63zM441 0l137 706h62l-137 -706h-62z" />
    <glyph glyph-name=".notdef" horiz-adv-x="500" 
d="M0 -200v1000h500v-1000h-500zM50 -76l172 376l-172 376v-752zM71 -150h358l-179 390zM250 360l179 390h-358zM450 -76v752l-172 -376z" />
    <glyph glyph-name=".null" horiz-adv-x="0" 
 />
    <glyph glyph-name="nonmarkingreturn" horiz-adv-x="333" 
 />
    <glyph glyph-name="space" unicode=" " horiz-adv-x="163" 
 />
    <glyph glyph-name="exclam" unicode="!" horiz-adv-x="200" 
d="M70 192l65 451l11 57h77l-11 -57l-110 -451h-32zM8 0l18 97h82l-19 -97h-81z" />
    <glyph glyph-name="quotedbl" unicode="&#x22;" horiz-adv-x="262" 
d="M77 437l51 263h69l-2 -9l-92 -254h-26zM198 437l51 263h69l-2 -9l-92 -254h-26z" />
    <glyph glyph-name="numbersign" unicode="#" horiz-adv-x="385" 
d="M38 0l37 179h-67l9 58h70l46 227h-65l10 58h68l36 178h48l-37 -178h98l36 178h48l-37 -178h67l-9 -58h-70l-47 -227h65l-10 -58h-67l-37 -179h-47l37 179h-99l-36 -179h-47zM134 237h98l47 227h-98z" />
    <glyph glyph-name="dollar" unicode="$" horiz-adv-x="343" 
d="M247 770h46l-14 -68q49 -9 89 -44l-13 -68q-39 44 -87 53l-53 -263q47 -53 66 -94.5t19 -86.5q0 -78 -42 -138.5t-120 -65.5l-19 -96h-47l19 98q-58 8 -101 46l13 71q41 -48 101 -59l57 282q-81 97 -81 184q0 74 41.5 126.5t112.5 56.5zM236 201q0 48 -37 98l-49 -242
q43 10 64.5 51t21.5 93zM144 520q0 -48 33 -99l45 222q-38 -9 -58 -43t-20 -80z" />
    <glyph glyph-name="percent" unicode="%" horiz-adv-x="519" 
d="M159 362q-40 0 -64 31.5t-24 89.5q0 56 18 109t48 83t66 30q40 0 64 -31.5t24 -89.5q0 -56 -18 -108.5t-48 -83.5q-30 -30 -66 -30zM349 -5q-39 0 -63 31.5t-24 89.5q0 56 17.5 108.5t47.5 83.5q32 30 67 30q39 0 63 -31.5t24 -89.5q0 -56 -18 -109t-48 -83t-66 -30z
M26 0l226 350l227 350h48l-454 -700h-47zM162 411q19 0 33 16q20 20 34 68.5t14 86.5q0 74 -43 74q-18 0 -33 -15q-20 -20 -33.5 -68.5t-13.5 -87.5q0 -74 42 -74zM352 44q18 0 33 15q20 20 34 68.5t14 87.5q0 74 -43 74q-17 0 -33 -16q-20 -20 -33.5 -68.5t-13.5 -86.5
q0 -74 42 -74z" />
    <glyph glyph-name="ampersand" unicode="&#x26;" horiz-adv-x="416" 
d="M340 314l51 -17q-30 -99 -73 -173l43 -112l-55 -20l-28 77q-62 -77 -133 -77q-65 0 -102 45t-37 113q0 78 38 137t114 110q-33 90 -33 154q0 65 35.5 111.5t97.5 46.5q54 0 84 -36t30 -85q0 -123 -147 -213l68 -192q19 40 47 131zM151 50q55 0 105 73l-79 225
q-108 -73 -108 -188q0 -49 20.5 -79.5t61.5 -30.5zM184 554q0 -64 23 -131q107 66 107 159q0 32 -15.5 52t-44.5 20q-33 0 -51.5 -30t-18.5 -70z" />
    <glyph glyph-name="quotesingle" unicode="'" horiz-adv-x="133" 
d="M77 437l52 263h68l-2 -9l-92 -254h-26z" />
    <glyph glyph-name="parenleft" unicode="(" horiz-adv-x="252" 
d="M157 -135q-62 47 -95 127.5t-33 180.5q0 143 45 262.5t124 198.5q60 60 125 82l-9 -49q-33 -19 -68 -54q-75 -75 -116 -201.5t-41 -248.5q0 -164 77 -252z" />
    <glyph glyph-name="parenright" unicode=")" horiz-adv-x="252" 
d="M104 716q62 -47 95 -127.5t33 -180.5q0 -143 -45 -262.5t-124 -198.5q-60 -60 -125 -82l9 49q33 19 68 54q75 75 116 201.5t41 248.5q0 164 -77 252z" />
    <glyph glyph-name="asterisk" unicode="*" horiz-adv-x="283" 
d="M196 421l-46 9l32 111l-92 -47l-16 46l100 27l-82 64l32 36l67 -77l11 115l47 -10l-32 -110l92 46l15 -45l-100 -28l82 -63l-31 -36l-67 76z" />
    <glyph glyph-name="plus" unicode="+" horiz-adv-x="351" 
d="M133 198l25 124h-120l12 60h119l25 124h58l-24 -124h120l-12 -60h-119l-25 -124h-59z" />
    <glyph glyph-name="comma" unicode="," horiz-adv-x="168" 
d="M-40 -117l-8 32q41 13 56.5 32.5t19.5 52.5h-36l19 97h82l-17 -87q-11 -58 -37 -86.5t-79 -40.5z" />
    <glyph glyph-name="hyphen" unicode="-" horiz-adv-x="286" 
d="M41 269l11 61h207l-11 -61h-207z" />
    <glyph glyph-name="period" unicode="." horiz-adv-x="168" 
d="M-8 0l19 97h82l-19 -97h-82z" />
    <glyph glyph-name="slash" unicode="/" horiz-adv-x="273" 
d="M-79 -98l391 866h56l-391 -866h-56z" />
    <glyph glyph-name="zero" unicode="0" horiz-adv-x="378" 
d="M262 709q118 0 118 -181q0 -119 -39.5 -276t-103.5 -221q-41 -40 -88 -40q-118 0 -118 181q0 119 39.5 276t103.5 221q40 40 88 40zM152 51q21 0 40 19q49 49 87 203.5t38 258.5q0 117 -59 117q-20 0 -39 -19q-49 -49 -87.5 -204t-38.5 -258q0 -117 59 -117z" />
    <glyph glyph-name="one" unicode="1" horiz-adv-x="218" 
d="M42 0l121 622l-79 -34l13 73l94 40h52l-137 -701h-64z" />
    <glyph glyph-name="two" unicode="2" horiz-adv-x="328" 
d="M-27 0l10 49l197 299q52 80 73 124t21 88q0 41 -22 63t-58 22q-41 0 -98 -32l13 68q46 27 96 28q62 0 99 -38.5t37 -101.5q0 -52 -24 -106t-74 -129l-180 -270h197l-12 -64h-275z" />
    <glyph glyph-name="three" unicode="3" horiz-adv-x="315" 
d="M86 -9q-61 0 -112 37l13 63q47 -38 96 -38q59 0 95 48t36 117q0 110 -120 132l8 44l177 241h-186l13 65h261l-10 -52l-192 -259q113 -46 113 -171q0 -108 -66 -174q-53 -53 -126 -53z" />
    <glyph glyph-name="four" unicode="4" horiz-adv-x="355" 
d="M170 0l29 152h-203l10 56l295 496h66l-96 -496h55l-11 -56h-56l-29 -152h-60zM64 208h147l71 369z" />
    <glyph glyph-name="five" unicode="5" horiz-adv-x="329" 
d="M97 -9q-61 0 -107 36l13 64q44 -38 94 -38q65 0 100.5 64t35.5 146q0 105 -85 105q-30 0 -55 -11l-34 26l77 317h222l-12 -63h-170l-53 -216q23 6 44 6q60 0 95.5 -40t35.5 -121q0 -62 -21.5 -123t-60.5 -100q-50 -52 -119 -52z" />
    <glyph glyph-name="six" unicode="6" horiz-adv-x="358" 
d="M148 -9q-44 0 -76 30q-44 46 -44 156q0 57 13.5 142.5t51 188.5t88.5 154q45 47 107 47q46 0 86 -24l-12 -64q-37 26 -75 26q-36 0 -66 -28q-60 -61 -98 -216q49 36 95 36q51 0 81.5 -39.5t31.5 -112.5q0 -70 -23 -141t-65 -113t-95 -42zM152 49q27 0 50 24q28 27 47 89
t19 117q0 103 -71 103q-39 0 -85 -37l-7 -33q-17 -88 -17 -148q0 -70 26 -99q15 -16 38 -16z" />
    <glyph glyph-name="seven" unicode="7" horiz-adv-x="314" 
d="M15 0l273 635h-193l13 65h258l-12 -57l-274 -643h-65z" />
    <glyph glyph-name="eight" unicode="8" horiz-adv-x="340" 
d="M138 -9q-62 0 -96 41.5t-35 112.5q-1 70 32.5 136t94.5 90q-49 41 -49 123q-1 83 42 149t115 66q50 0 83.5 -37t34.5 -106q1 -64 -28.5 -125t-84.5 -83q57 -43 59 -139q1 -53 -16.5 -103.5t-57.5 -87.5t-94 -37zM142 46q49 0 76 59.5t27 126.5q0 45 -17.5 74t-49.5 29
q-48 0 -78 -61.5t-30 -123.5q0 -49 18.5 -76.5t53.5 -27.5zM203 389q44 0 70.5 59.5t25.5 118.5q0 41 -16 64t-45 23q-31 0 -54 -32t-31.5 -69.5t-8.5 -71.5q0 -37 14 -64.5t45 -27.5z" />
    <glyph glyph-name="nine" unicode="9" horiz-adv-x="358" 
d="M103 -9q-52 0 -95 31l12 63q42 -32 84 -32q36 0 66 28q59 60 96 208q-49 -36 -95 -36q-50 0 -80 40.5t-30 115.5q-1 72 22 143.5t65 114.5q42 42 95 42q44 0 76 -30q44 -46 44 -156q0 -57 -13.5 -142.5t-51 -188.5t-88.5 -154q-45 -47 -107 -47zM193 310q38 0 84 37l9 42
q17 95 17 147q0 70 -26 99q-15 16 -38 16q-27 0 -50 -24q-28 -27 -46.5 -90t-18.5 -121q0 -106 69 -106z" />
    <glyph glyph-name="colon" unicode=":" horiz-adv-x="178" 
d="M-3 0l19 97h82l-19 -97h-82zM80 431l19 97h83l-19 -97h-83z" />
    <glyph glyph-name="semicolon" unicode=";" horiz-adv-x="178" 
d="M-35 -117l-8 32q41 13 56.5 32.5t19.5 52.5h-36l19 97h82l-17 -87q-11 -58 -37 -86.5t-79 -40.5zM80 431l19 97h83l-19 -97h-83z" />
    <glyph glyph-name="less" unicode="&#x3c;" horiz-adv-x="351" 
d="M283 161l-234 162l10 58l299 162l-16 -79l-223 -116l178 -116z" />
    <glyph glyph-name="equal" unicode="=" horiz-adv-x="351" 
d="M28 244l12 63h290l-12 -63h-290zM57 398l13 62h290l-12 -62h-291z" />
    <glyph glyph-name="greater" unicode="&#x3e;" horiz-adv-x="351" 
d="M26 161l16 78l223 117l-178 116l13 71l235 -162l-11 -58z" />
    <glyph glyph-name="question" unicode="?" horiz-adv-x="308" 
d="M91 192l26 183l6 6q74 17 112.5 62.5t38.5 106.5q0 49 -26.5 72t-64.5 23q-40 0 -92 -28l13 64q42 24 89 24q64 0 105 -39.5t41 -109.5q1 -80 -45.5 -137.5t-123.5 -81.5l-37 -145h-42zM37 0l19 97h81l-19 -97h-81z" />
    <glyph glyph-name="at" unicode="@" horiz-adv-x="635" 
d="M265 -134q-106 0 -173 72t-67 219q0 100 26.5 198t73 177t116.5 128t151 49q107 0 165 -76.5t58 -198.5q0 -132 -54.5 -247t-132.5 -115q-40 0 -58.5 29t-13.5 71q-58 -101 -121 -101q-36 0 -56 29t-20 82q0 64 24 139t68 131t93 56q66 0 71 -90l22 75l53 -10l-70 -256
q-13 -50 -13 -77q0 -42 34 -42q54 0 97.5 106t43.5 219q0 109 -48 177t-145 68q-74 0 -138.5 -49.5t-106 -126.5t-65 -168t-23.5 -177q0 -133 60 -197t150 -64q78 0 153 46l15 -27q-87 -49 -169 -49zM256 122q30 0 62.5 42t54 102t21.5 111q0 77 -47 77q-32 0 -63.5 -47.5
t-49.5 -109.5t-18 -110q0 -65 40 -65z" />
    <glyph glyph-name="A" unicode="A" horiz-adv-x="407" 
d="M-30 0l284 703h70l11 -703h-66l-1 181h-162l-72 -181h-64zM127 240h141l-2 353z" />
    <glyph glyph-name="B" unicode="B" horiz-adv-x="379" 
d="M-1 0l136 700h82q82 0 129 -41t47 -113q0 -78 -45.5 -127t-110.5 -66q47 -16 74 -52.5t27 -86.5q0 -105 -73 -159.5t-177 -54.5h-89zM76 60h18q84 0 131.5 40t47.5 115q0 50 -32 79.5t-90 29.5h-25zM138 382h14q81 0 128 45t47 111q0 49 -28 75.5t-80 26.5h-31z" />
    <glyph glyph-name="C" unicode="C" horiz-adv-x="329" 
d="M182 -6q-145 0 -145 230q0 111 37 237t104 192q52 53 117 53q45 0 83 -23l-14 -69q-35 29 -71 29t-69 -31q-51 -52 -86.5 -168.5t-35.5 -217.5q0 -169 92 -169q31 0 69 21l-13 -66q-32 -18 -68 -18z" />
    <glyph glyph-name="D" unicode="D" horiz-adv-x="405" 
d="M-1 0l136 700h77q80 0 127 -47q61 -63 61 -193q0 -92 -32.5 -207.5t-99.5 -182.5q-71 -70 -178 -70h-91zM290 611q-29 30 -77 30h-24l-113 -582h29q66 0 117 51q57 56 85 163t28 185q0 109 -45 153z" />
    <glyph glyph-name="E" unicode="E" horiz-adv-x="326" 
d="M-1 0l136 700h246l-11 -60h-181l-50 -257h164l-12 -61h-164l-51 -262h184l-12 -60h-249z" />
    <glyph glyph-name="F" unicode="F" horiz-adv-x="307" 
d="M-1 0l136 700h236l-11 -60h-171l-51 -265h154l-12 -60h-154l-62 -315h-65z" />
    <glyph glyph-name="G" unicode="G" horiz-adv-x="396" 
d="M208 -8q-80 0 -125 64.5t-45 179.5q0 110 36.5 222.5t104.5 179.5q69 69 151 69q54 0 90 -24l-14 -68q-38 30 -80 30q-53 0 -100 -46q-58 -58 -90.5 -163t-32.5 -200q0 -86 29 -135t78 -49q22 0 39 10l48 248h-92l11 59h153l-68 -352q-44 -25 -93 -25z" />
    <glyph glyph-name="H" unicode="H" horiz-adv-x="418" 
d="M-1 0l136 700h65l-61 -318h186l62 318h65l-136 -700h-65l63 322h-187l-63 -322h-65z" />
    <glyph glyph-name="I" unicode="I" horiz-adv-x="178" 
d="M5 0l136 700h65l-136 -700h-65z" />
    <glyph glyph-name="J" unicode="J" horiz-adv-x="253" 
d="M51 -5q-44 0 -82 24l13 62q30 -24 66 -24q24 0 41 15q16 16 26 68l109 560h65l-107 -554q-11 -51 -20.5 -77t-27.5 -44q-31 -30 -83 -30z" />
    <glyph glyph-name="K" unicode="K" horiz-adv-x="379" 
d="M-1 0l136 700h65l-72 -369l243 369h73l-213 -318l89 -382h-69l-72 317l-75 -109l-40 -208h-65z" />
    <glyph glyph-name="L" unicode="L" horiz-adv-x="288" 
d="M-1 0l136 700h65l-124 -640h164l-12 -60h-229z" />
    <glyph glyph-name="M" unicode="M" horiz-adv-x="480" 
d="M-1 0l136 700h70l49 -356l187 356h73l-136 -700h-63l109 555l-197 -369h-4l-54 369l-108 -555h-62z" />
    <glyph glyph-name="N" unicode="N" horiz-adv-x="422" 
d="M-1 0l136 700h62l93 -529l104 529h62l-136 -700h-57l-96 546l-106 -546h-62z" />
    <glyph glyph-name="O" unicode="O" horiz-adv-x="410" 
d="M279 709q64 0 97 -54t33 -154q0 -119 -38 -258t-103 -204q-48 -48 -104 -48q-64 0 -97 54t-33 154q0 119 38 258t103 204q48 48 104 48zM168 51q28 0 55 27q50 50 86 190t36 240q0 141 -70 141q-28 0 -55 -27q-50 -50 -86 -190t-36 -240q0 -141 70 -141z" />
    <glyph glyph-name="P" unicode="P" horiz-adv-x="370" 
d="M-1 0l136 700h74q87 0 137 -50q48 -48 48 -135q0 -123 -77 -200q-67 -67 -176 -67h-29l-48 -248h-65zM296 609q-31 31 -87 31h-20l-65 -333h23q76 0 124 48q57 57 57 158q0 64 -32 96z" />
    <glyph glyph-name="Q" unicode="Q" horiz-adv-x="412" 
d="M279 709q64 0 97 -55t33 -153q0 -102 -29.5 -224t-82.5 -199l45 -63l-42 -34l-38 56q-48 -46 -99 -46q-63 0 -96 55t-33 153q0 118 38.5 257t103.5 205q50 48 103 48zM170 51q33 0 60 30l2 2l-53 79l41 33l42 -65q37 72 60 184.5t23 192.5q0 142 -70 142q-28 0 -55 -27
q-50 -50 -86 -190t-36 -239q0 -142 72 -142z" />
    <glyph glyph-name="R" unicode="R" horiz-adv-x="387" 
d="M246 0l-60 274q-26 -2 -39 -2h-30l-53 -272h-65l136 700h79q88 0 137 -47q47 -47 47 -127q0 -113 -73 -186q-33 -33 -76 -50l65 -290h-68zM128 330h21q83 0 128 46q55 53 55 150q0 53 -28 83q-32 31 -91 31h-24z" />
    <glyph glyph-name="S" unicode="S" horiz-adv-x="326" 
d="M117 -7q-71 0 -130 53l14 71q58 -63 118 -63q43 0 69 31t26 80q0 58 -58 166q-40 76 -55.5 121t-15.5 87q0 75 48 123q45 45 111 45q63 0 115 -43l-13 -71q-55 53 -104 53q-42 0 -66.5 -30t-24.5 -73q0 -56 54 -160q40 -75 57 -122.5t17 -89.5q0 -83 -50 -133
q-45 -45 -112 -45z" />
    <glyph glyph-name="T" unicode="T" horiz-adv-x="304" 
d="M68 0l124 640h-106l12 60h277l-11 -60h-107l-124 -640h-65z" />
    <glyph glyph-name="U" unicode="U" horiz-adv-x="409" 
d="M168 -9q-64 0 -102 37t-38 104q0 31 11 89l93 479h65l-95 -487q-9 -44 -9 -77q0 -41 22 -63t58 -22q37 0 62 25q32 32 48 109l99 515h65l-100 -517q-19 -102 -66 -147q-45 -45 -113 -45z" />
    <glyph glyph-name="V" unicode="V" horiz-adv-x="387" 
d="M108 -4l-4 704h65l-4 -577l219 577h67l-277 -704h-66z" />
    <glyph glyph-name="W" unicode="W" horiz-adv-x="606" 
d="M88 -4l19 704h66l-25 -562l208 562h61l-10 -562l193 562h67l-253 -704h-65l11 558l-208 -558h-64z" />
    <glyph glyph-name="X" unicode="X" horiz-adv-x="366" 
d="M-35 0l199 368l-51 332h65l37 -264l139 264h69l-183 -338l57 -362h-66l-44 292l-153 -292h-69z" />
    <glyph glyph-name="Y" unicode="Y" horiz-adv-x="360" 
d="M96 0l58 295l-63 405h66l45 -321l168 321h69l-220 -405l-58 -295h-65z" />
    <glyph glyph-name="Z" unicode="Z" horiz-adv-x="328" 
d="M-23 0l8 48l319 594h-201l11 58h273l-9 -47l-319 -594h211l-11 -59h-282z" />
    <glyph glyph-name="bracketleft" unicode="[" horiz-adv-x="262" 
d="M-2 -130l160 830h155l-9 -47h-96l-143 -736h95l-8 -47h-154z" />
    <glyph glyph-name="backslash" unicode="\" horiz-adv-x="272" 
d="M156 -98l-56 866h51l56 -866h-51z" />
    <glyph glyph-name="bracketright" unicode="]" horiz-adv-x="262" 
d="M272 700l-160 -830h-155l9 47h96l143 736h-95l8 47h154z" />
    <glyph glyph-name="asciicircum" unicode="^" horiz-adv-x="354" 
d="M131 525l102 163h51l40 -163h-47l-26 110l-69 -110h-51z" />
    <glyph glyph-name="underscore" unicode="_" horiz-adv-x="452" 
d="M-83 -156l10 50h456l-10 -50h-456z" />
    <glyph glyph-name="grave" unicode="`" horiz-adv-x="500" 
d="M333 576l-85 98l55 33l73 -131h-43z" />
    <glyph glyph-name="a" unicode="a" horiz-adv-x="346" 
d="M95 -9q-44 0 -70 32t-26 91q0 49 16.5 97.5t47.5 79.5q40 40 96 40q48 0 90 -26l4 21q9 49 9 72q0 77 -83 77q-43 0 -90 -20l12 60q44 19 92 19q62 0 96.5 -33.5t34.5 -93.5q0 -35 -11 -90l-62 -317h-62l13 66q-45 -75 -107 -75zM120 44q37 0 64.5 34.5t37.5 86.5l17 89
q-32 23 -76 23q-34 0 -58 -24q-22 -22 -33.5 -59.5t-11.5 -73.5q0 -76 60 -76z" />
    <glyph glyph-name="b" unicode="b" horiz-adv-x="379" 
d="M170 -9q-38 0 -61.5 30t-30.5 75l-19 -96h-63l137 706h63l-51 -260q54 91 116 91q44 0 70 -41.5t26 -119.5q0 -93 -29.5 -195.5t-79.5 -152.5q-37 -37 -78 -37zM162 49q23 0 45 22q38 38 63 131t25 167q0 53 -15.5 81.5t-43.5 28.5q-24 0 -51 -25q-38 -38 -62 -125.5
t-24 -160.5q0 -56 17 -87.5t46 -31.5z" />
    <glyph glyph-name="c" unicode="c" horiz-adv-x="282" 
d="M147 -8q-57 0 -92.5 45.5t-35.5 132.5q0 86 29.5 177.5t80.5 142.5q47 45 102 45q45 0 76 -24l-14 -66q-27 30 -62 30q-32 0 -60 -28q-39 -39 -64 -120.5t-25 -148.5q0 -126 77 -126q28 0 62 21l-12 -64q-29 -17 -62 -17z" />
    <glyph glyph-name="d" unicode="d" horiz-adv-x="379" 
d="M218 0l16 82q-54 -91 -115 -91q-45 0 -71 41.5t-26 119.5q0 93 30 195.5t80 152.5q36 37 77 37q38 0 61.5 -30t30.5 -75l54 274h63l-137 -706h-63zM143 49q26 0 51 25q38 38 62.5 125t24.5 161q0 56 -17 87.5t-46 31.5q-24 0 -46 -22q-38 -38 -62.5 -130.5t-24.5 -167.5
q0 -110 58 -110z" />
    <glyph glyph-name="e" unicode="e" horiz-adv-x="349" 
d="M312 236h-229q-3 -29 -3 -52q0 -133 94 -133q40 0 89 30l-6 -61q-39 -28 -91 -28q-66 0 -106 48t-40 144q0 81 29 169.5t78 138.5q44 44 95 44q50 0 79 -41t29 -118q0 -51 -18 -141zM168 456q-49 -49 -76 -168h170q10 47 10 93q0 98 -57 98q-24 0 -47 -23z" />
    <glyph glyph-name="f" unicode="f" horiz-adv-x="218" 
d="M15 0l92 474h-48l10 54h49l10 55q13 70 47 100q30 25 72 25q29 0 50 -9l-12 -55q-17 7 -33 7q-27 0 -40.5 -17.5t-21.5 -55.5l-10 -50h79l-10 -54h-79l-92 -474h-63z" />
    <glyph glyph-name="g" unicode="g" horiz-adv-x="379" 
d="M107 -132q-65 0 -124 27l11 60q57 -30 116 -30q51 0 79 28q25 25 35 79l17 88q-52 -91 -116 -91q-45 0 -71.5 42t-26.5 121q0 76 28 167.5t77 140.5q37 37 77 37q38 0 61.5 -30t30.5 -75l20 96h62l-98 -501q-15 -78 -50 -113q-45 -46 -128 -46zM150 87q26 0 51 25
q31 31 55.5 102.5t24.5 147.5q0 55 -17 86t-46 31q-23 0 -45 -22q-38 -39 -61 -119.5t-23 -142.5q0 -51 16 -79.5t45 -28.5z" />
    <glyph glyph-name="h" unicode="h" horiz-adv-x="374" 
d="M-4 0l138 706h63l-50 -252q49 83 117 83q43 0 67.5 -28.5t24.5 -78.5q0 -32 -10 -81l-67 -349h-63l67 341q9 51 9 75q0 66 -56 66q-38 0 -67.5 -35.5t-39.5 -85.5l-70 -361h-63z" />
    <glyph glyph-name="i" unicode="i" horiz-adv-x="167" 
d="M1 0l103 528h62l-103 -528h-62zM121 624l15 82h66l-15 -82h-66z" />
    <glyph glyph-name="j" unicode="j" horiz-adv-x="173" 
d="M-51 -132q-26 0 -44 6l10 53q18 -4 28 -4q29 0 42.5 20t21.5 60l102 525h63l-107 -544q-21 -116 -116 -116zM126 624l16 82h66l-16 -82h-66z" />
    <glyph glyph-name="k" unicode="k" horiz-adv-x="330" 
d="M-4 0l137 706h63l-86 -438l180 260h72l-154 -215l57 -313h-64l-44 255l-67 -92l-31 -163h-63z" />
    <glyph glyph-name="l" unicode="l" horiz-adv-x="167" 
d="M1 0l137 706h62l-137 -706h-62z" />
    <glyph glyph-name="m" unicode="m" horiz-adv-x="585" 
d="M-4 0l103 528h62l-14 -74q49 83 114 83q36 0 59 -22.5t28 -62.5q57 85 128 85q41 0 65.5 -29t24.5 -78q0 -32 -10 -81l-67 -349h-63l67 341q9 51 9 75q0 31 -14 48.5t-40 17.5q-33 0 -63 -33.5t-39 -79.5l-72 -369h-63l67 341q9 51 9 75q0 31 -14 48.5t-40 17.5
q-36 0 -65 -35.5t-39 -85.5l-70 -361h-63z" />
    <glyph glyph-name="n" unicode="n" horiz-adv-x="374" 
d="M-4 0l103 528h62l-14 -74q49 83 117 83q43 0 67.5 -28.5t24.5 -78.5q0 -32 -10 -81l-67 -349h-63l67 341q9 51 9 75q0 66 -56 66q-38 0 -67.5 -35.5t-39.5 -85.5l-70 -361h-63z" />
    <glyph glyph-name="o" unicode="o" horiz-adv-x="366" 
d="M224 536q56 0 88.5 -47t32.5 -132q0 -89 -29 -181.5t-78 -140.5q-43 -44 -96 -44q-55 0 -88 47.5t-33 131.5q0 89 29.5 181.5t77.5 141.5q44 43 96 43zM146 48q26 0 50 25q37 36 62.5 125t25.5 166q0 55 -17 85t-47 30q-26 0 -50 -24q-37 -37 -62 -125.5t-25 -165.5
q0 -55 17 -85.5t46 -30.5z" />
    <glyph glyph-name="p" unicode="p" horiz-adv-x="379" 
d="M170 -9q-38 0 -61.5 30t-30.5 75l-44 -226h-63l128 658h62l-16 -82q54 91 116 91q44 0 70 -41.5t26 -119.5q0 -93 -29.5 -195.5t-79.5 -152.5q-37 -37 -78 -37zM162 49q23 0 45 22q38 38 63 131t25 167q0 53 -15.5 81.5t-43.5 28.5q-26 0 -50 -25q-39 -38 -63 -125
t-24 -161q0 -56 17 -87.5t46 -31.5z" />
    <glyph glyph-name="q" unicode="q" horiz-adv-x="379" 
d="M119 -9q-45 0 -71 41.5t-26 119.5q0 93 30 195.5t80 152.5q36 37 77 37q38 0 61.5 -30t30.5 -75l20 96h62l-127 -658h-63l41 212q-54 -91 -115 -91zM143 49q26 0 51 25q38 38 62.5 125t24.5 161q0 56 -17 87.5t-46 31.5q-24 0 -46 -22q-38 -38 -62.5 -130.5t-24.5 -167.5
q0 -110 58 -110z" />
    <glyph glyph-name="r" unicode="r" horiz-adv-x="238" 
d="M-4 0l103 528h62l-15 -76q52 87 129 82l-13 -71h-4q-109 0 -134 -129l-65 -334h-63z" />
    <glyph glyph-name="s" unicode="s" horiz-adv-x="278" 
d="M96 -7q-62 0 -119 42l14 62q56 -46 104 -46q33 0 54 20.5t21 56.5q0 41 -54 118q-36 52 -50.5 85.5t-14.5 70.5q0 56 35 94.5t98 38.5q56 0 101 -33l-14 -61q-46 36 -87 36q-33 0 -52.5 -20t-19.5 -53q0 -42 53 -116q66 -93 66 -156q0 -61 -36 -100t-99 -39z" />
    <glyph glyph-name="t" unicode="t" horiz-adv-x="230" 
d="M106 -5q-35 0 -56.5 18.5t-21.5 54.5q0 18 7 53l69 353h-46l11 54h45l28 145h63l-28 -145h79l-11 -54h-79l-69 -356q-5 -22 -5 -34q0 -32 37 -32q19 0 37 9l-10 -55q-22 -11 -50 -11z" />
    <glyph glyph-name="u" unicode="u" horiz-adv-x="374" 
d="M110 -9q-43 0 -67.5 28.5t-24.5 78.5q0 32 10 81l67 349h63l-67 -341q-9 -51 -9 -75q0 -66 56 -66q38 0 67.5 35t39.5 86l70 361h63l-103 -528h-62l14 73q-51 -82 -117 -82z" />
    <glyph glyph-name="v" unicode="v" horiz-adv-x="349" 
d="M92 -3l-21 531h61l9 -425l174 425h63l-227 -531h-59z" />
    <glyph glyph-name="w" unicode="w" horiz-adv-x="528" 
d="M76 -3l-1 531h62l-7 -415l157 415h53l-3 -415l153 415h63l-207 -531h-59l1 403l-154 -403h-58z" />
    <glyph glyph-name="x" unicode="x" horiz-adv-x="342" 
d="M145 528l39 -198l115 198h65l-156 -257l59 -271h-63l-42 214l-124 -214h-65l164 274l-54 254h62z" />
    <glyph glyph-name="y" unicode="y" horiz-adv-x="347" 
d="M92 8l-22 520h63l9 -412l171 412h63l-284 -658h-60z" />
    <glyph glyph-name="z" unicode="z" horiz-adv-x="280" 
d="M-29 0l9 45l250 429h-168l10 54h237l-9 -45l-250 -429h173l-11 -54h-241z" />
    <glyph glyph-name="braceleft" unicode="{" horiz-adv-x="278" 
d="M176 -137q-131 20 -131 117q0 37 42 119q33 66 33 95q0 28 -23.5 49.5t-70.5 21.5h-6l10 48h10q62 0 98 34q26 27 29 69.5t-5 83.5q-8 43 -2 91.5t37 79.5q48 48 145 44l-9 -45q-58 3 -89 -28q-25 -25 -27.5 -65.5t7.5 -98.5q7 -44 0 -81.5t-34 -65.5q-34 -34 -91 -44
q80 -30 80 -94q0 -34 -37 -106q-38 -74 -38 -104q0 -62 81 -76z" />
    <glyph glyph-name="bar" unicode="|" horiz-adv-x="225" 
d="M16 -98l168 866h52l-168 -866h-52z" />
    <glyph glyph-name="braceright" unicode="}" horiz-adv-x="278" 
d="M112 715q131 -20 131 -117q0 -37 -42 -119q-33 -66 -33 -95q0 -28 23.5 -49.5t70.5 -21.5h6l-10 -48h-10q-62 0 -98 -34q-26 -27 -29 -69.5t5 -83.5q8 -43 2 -91.5t-37 -79.5q-48 -48 -145 -44l9 45q58 -3 89 28q25 25 27.5 65.5t-7.5 98.5q-7 44 0 81.5t34 65.5
q34 34 91 44q-80 30 -80 94q0 34 37 106q38 74 38 104q0 62 -81 76z" />
    <glyph glyph-name="asciitilde" unicode="~" horiz-adv-x="314" 
d="M82 252l-36 12q28 84 73 84q24 0 51 -25q22 -23 33 -23q21 0 38 47l37 -11q-27 -85 -74 -85q-26 0 -50 26q-22 22 -34 22q-20 0 -38 -47z" />
    <glyph glyph-name="uni00A0" unicode="&#xa0;" horiz-adv-x="163" 
 />
    <glyph glyph-name="exclamdown" unicode="&#xa1;" horiz-adv-x="200" 
d="M163 508l-65 -451l-11 -57h-77l11 57l110 451h32zM225 700l-18 -97h-82l19 97h81z" />
    <glyph glyph-name="cent" unicode="&#xa2;" horiz-adv-x="293" 
d="M235 704h46l-17 -84q33 -4 62 -22l-13 -66q-30 25 -61 29l-85 -421h5q31 0 68 20l-12 -64q-34 -17 -67 -17h-6l-16 -84h-47l19 93q-73 30 -73 163q0 87 28 183t78 146q32 34 74 40zM101 258q0 -74 24 -100l79 394q-9 -6 -16 -13q-41 -41 -64 -126.5t-23 -154.5z" />
    <glyph glyph-name="sterling" unicode="&#xa3;" horiz-adv-x="332" 
d="M-21 0l7 37l53 20l50 257h-52l12 57h51l30 156q19 99 61 141q40 40 102 40q47 0 82 -20l-12 -62q-36 20 -70 20q-36 0 -58 -23q-26 -25 -41 -97l-29 -155h119l-12 -57h-119l-50 -256h174l-11 -58h-287z" />
    <glyph glyph-name="yen" unicode="&#xa5;" horiz-adv-x="358" 
d="M95 0l25 129h-93l10 51h93l17 88h-94l10 50h84l-56 382h65l41 -332l170 332h69l-205 -382h84l-10 -50h-95l-18 -88h96l-10 -51h-95l-25 -129h-63z" />
    <glyph glyph-name="section" unicode="&#xa7;" horiz-adv-x="372" 
d="M371 345q-1 -49 -34 -81t-99 -60q36 -40 36 -84q0 -53 -37 -90.5t-99 -37.5q-57 0 -106 27l13 62q49 -32 94 -32q32 0 52 18.5t20 50.5q0 24 -16.5 45t-57.5 52q-57 44 -79 73.5t-22 66.5q1 49 34 81t99 60q-36 41 -36 84q0 53 37 90.5t100 37.5q56 0 105 -27l-13 -62
q-49 32 -94 32q-32 0 -52 -18.5t-20 -50.5q0 -24 16.5 -44.5t57.5 -52.5q57 -44 79 -73.5t22 -66.5zM100 361q0 -25 15.5 -45t62.5 -56l27 -21q102 44 102 100q0 25 -15.5 45t-62.5 56q-3 3 -13 10t-14 11q-102 -44 -102 -100z" />
    <glyph glyph-name="dieresis" unicode="&#xa8;" horiz-adv-x="500" 
d="M225 584l15 78h62l-15 -78h-62zM336 584l15 78h62l-15 -78h-62z" />
    <glyph glyph-name="copyright" unicode="&#xa9;" horiz-adv-x="523" 
d="M261 151q-40 0 -62.5 33t-22.5 96t19.5 131t56.5 105q30 33 70 33q26 0 51 -18l-9 -46q-21 20 -42 20t-39 -18q-28 -27 -45 -89.5t-17 -115.5q0 -87 47 -87q19 0 45 14l-9 -45q-20 -13 -43 -13zM527 443q0 -105 -33.5 -211t-99.5 -172q-68 -70 -161 -70q-98 0 -152 74.5
t-54 193.5q0 105 33 211t99 172q72 70 161 70q98 0 152.5 -74.5t54.5 -193.5zM56 257q-1 -105 46 -172t134 -67q77 0 137 60q63 63 93.5 166t31.5 200q1 105 -46 172t-134 67q-77 0 -138 -61q-62 -62 -92.5 -165t-31.5 -200z" />
    <glyph glyph-name="ordfeminine" unicode="&#xaa;" horiz-adv-x="250" 
d="M133 403q-22 0 -36.5 18t-14.5 50q0 44 22 81.5t62 37.5q25 0 50 -14l2 14q5 22 5 36q0 36 -42 36q-23 0 -51 -12l8 42q27 11 52 11q34 0 54 -19t21 -52q0 -18 -5 -46l-35 -178h-42l6 32q-25 -37 -56 -37zM150 439q18 0 32 18.5t19 44.5l8 40q-16 13 -37 13
q-25 0 -36.5 -25.5t-11.5 -51.5q-1 -39 26 -39zM50 317l6 33h170l-6 -33h-170z" />
    <glyph glyph-name="guillemotleft" unicode="&#xab;" horiz-adv-x="370" 
d="M116 43l-88 212l1 8l166 211l39 -30l-140 -190l70 -192zM252 43l-86 212l1 8l169 211l39 -30l-142 -190l68 -192z" />
    <glyph glyph-name="registered" unicode="&#xae;" horiz-adv-x="312" 
d="M232 717q53 0 81 -37.5t28 -95.5q0 -51 -17.5 -104.5t-51.5 -87.5q-37 -37 -88 -37q-53 0 -81 37t-28 95q0 51 17.5 104.5t51.5 87.5q38 38 88 38zM186 374q41 0 72 31t47 82.5t16 96.5q0 48 -23 80.5t-67 32.5q-41 0 -72 -31t-47 -81.5t-16 -97.5q0 -48 23 -80.5
t67 -32.5zM186 514l-13 -70h-25l35 191h20q67 0 67 -54q0 -45 -41 -61l21 -76h-27l-17 71q-7 -1 -20 -1zM190 537h7q24 0 35 11q13 13 13 32q0 31 -37 31h-4z" />
    <glyph glyph-name="macron" unicode="&#xaf;" horiz-adv-x="500" 
d="M214 585l10 50h194l-10 -50h-194z" />
    <glyph glyph-name="degree" unicode="&#xb0;" horiz-adv-x="255" 
d="M207 707q37 0 60.5 -28t23.5 -79t-18 -103t-48 -79q-31 -27 -66 -27q-37 0 -60.5 28t-23.5 79q0 49 16.5 99.5t43.5 77.5q32 32 72 32zM164 437q15 0 30 12q22 19 36 64t14 87q0 61 -43 61q-17 0 -33 -14q-20 -21 -33.5 -65t-13.5 -83q0 -62 43 -62z" />
    <glyph glyph-name="plusminus" unicode="&#xb1;" horiz-adv-x="351" 
d="M134 198l24 124h-119l12 60h119l24 124h59l-24 -124h119l-12 -60h-119l-24 -124h-59zM-9 71l11 59h297l-11 -59h-297z" />
    <glyph glyph-name="two.sup" unicode="&#xb2;" 
d="M64 464l8 34l120 133q52 58 52 94q0 22 -13 33.5t-34 11.5q-34 0 -79 -36l8 52q35 28 78 28q39 0 63.5 -23t24.5 -60q0 -52 -61 -119l-95 -104h123l-9 -44h-186z" />
    <glyph glyph-name="three.sup" unicode="&#xb3;" 
d="M162 460q-52 0 -88 33l10 47q34 -38 76 -38q29 0 46 19t17 46q0 57 -85 62h-1l5 30l104 109h-118l9 44h178l-7 -35l-115 -118q77 -22 77 -90q0 -48 -30.5 -78.5t-77.5 -30.5z" />
    <glyph glyph-name="acute" unicode="&#xb4;" horiz-adv-x="500" 
d="M242 576l94 131l56 -33l-104 -98h-46z" />
    <glyph glyph-name="paragraph" unicode="&#xb6;" horiz-adv-x="334" 
d="M165 0l49 249q-72 9 -112 49q-49 49 -49 136q0 123 77 200q66 66 176 66h61l-137 -700h-65z" />
    <glyph glyph-name="periodcentered" unicode="&#xb7;" horiz-adv-x="175" 
d="M43 251l20 100h83l-19 -100h-84z" />
    <glyph glyph-name="cedilla" unicode="&#xb8;" horiz-adv-x="500" 
d="M167 -115l-58 26l82 102h45z" />
    <glyph glyph-name="one.sup" unicode="&#xb9;" horiz-adv-x="195" 
d="M122 464l57 293l-69 -34l9 49l79 40h38l-68 -348h-46z" />
    <glyph glyph-name="ordmasculine" unicode="&#xba;" horiz-adv-x="250" 
d="M53 317l7 33h164l-6 -33h-165zM131 495q0 -53 29 -53q13 0 24 11q20 20 33.5 70t13.5 89q0 53 -29 53q-13 0 -24 -11q-20 -20 -33.5 -70t-13.5 -89zM273 607q0 -46 -15.5 -98.5t-44.5 -81.5q-25 -24 -56 -24q-68 0 -68 97q0 45 16 97.5t45 81.5q24 25 55 25q32 0 50 -25
t18 -72z" />
    <glyph glyph-name="guillemotright" unicode="&#xbb;" horiz-adv-x="370" 
d="M252 474l88 -212l-1 -8l-166 -211l-39 30l140 190l-70 192zM116 474l86 -212l-1 -8l-169 -211l-39 30l142 190l-68 192z" />
    <glyph glyph-name="onequarter" unicode="&#xbc;" horiz-adv-x="495" 
d="M88 353l57 293l-69 -34l9 49l79 40h38l-68 -348h-46zM8 0l216 360l202 341h44l-217 -360l-202 -341h-43zM326 0l14 70h-130l7 37l157 242h61l-46 -240h33l-8 -39h-33l-13 -70h-42zM262 109h86l35 179h-7z" />
    <glyph glyph-name="onehalf" unicode="&#xbd;" horiz-adv-x="495" 
d="M209 0l8 34l120 133q52 58 52 94q0 22 -13 33.5t-34 11.5q-34 0 -79 -36l8 52q35 28 78 28q39 0 63.5 -23t24.5 -60q0 -52 -61 -119l-95 -104h123l-9 -44h-186zM88 353l57 293l-69 -34l9 49l79 40h38l-68 -348h-46zM-17 0l216 360l202 341h44l-217 -360l-202 -341h-43z
" />
    <glyph glyph-name="threequarters" unicode="&#xbe;" horiz-adv-x="540" 
d="M125 349q-51 0 -88 32l10 48q34 -38 76 -38q29 0 46 19t17 46q0 57 -85 62h-1l5 30l104 109h-118l9 44h178l-7 -35l-115 -118q77 -22 77 -90q0 -48 -30.5 -78.5t-77.5 -30.5zM56 0l216 360l202 341h44l-217 -360l-202 -341h-43zM376 0l14 70h-130l7 37l157 242h61
l-46 -240h33l-8 -39h-33l-13 -70h-42zM312 109h86l35 179h-7z" />
    <glyph glyph-name="questiondown" unicode="&#xbf;" horiz-adv-x="308" 
d="M250 508l-26 -183l-6 -6q-74 -17 -112.5 -62.5t-38.5 -106.5q0 -49 26.5 -72t64.5 -23q40 0 92 28l-13 -64q-42 -24 -89 -24q-64 0 -105 39.5t-41 109.5q-1 80 45.5 137.5t123.5 81.5l37 145h42zM304 700l-19 -97h-81l19 97h81z" />
    <glyph glyph-name="Agrave" unicode="&#xc0;" horiz-adv-x="407" 
d="M-30 0l284 703h70l11 -703h-66l-1 181h-162l-72 -181h-64zM127 240h141l-2 353zM277 744l-85 79l58 31l74 -110h-47z" />
    <glyph glyph-name="Aacute" unicode="&#xc1;" horiz-adv-x="407" 
d="M-30 0l284 703h70l11 -703h-66l-1 181h-162l-72 -181h-64zM127 240h141l-2 353zM267 744l90 110l59 -31l-100 -79h-49z" />
    <glyph glyph-name="Acircumflex" unicode="&#xc2;" horiz-adv-x="407" 
d="M-30 0l284 703h70l11 -703h-66l-1 181h-162l-72 -181h-64zM127 240h141l-2 353zM197 747l93 103h55l52 -103h-50l-38 56l-59 -56h-53z" />
    <glyph glyph-name="Atilde" unicode="&#xc3;" horiz-adv-x="407" 
d="M-30 0l284 703h70l11 -703h-66l-1 181h-162l-72 -181h-64zM127 240h141l-2 353zM231 747l-41 12q17 40 33.5 57.5t39.5 17.5q21 0 52 -21q25 -17 34 -17q17 0 35 36l41 -12q-16 -39 -33 -57t-40 -18q-21 0 -51 20q-25 18 -35 18q-16 0 -35 -36z" />
    <glyph glyph-name="Adieresis" unicode="&#xc4;" horiz-adv-x="407" 
d="M-30 0l284 703h70l11 -703h-66l-1 181h-162l-72 -181h-64zM127 240h141l-2 353zM210 752l14 75h66l-14 -75h-66zM326 752l15 75h65l-14 -75h-66z" />
    <glyph glyph-name="Aring" unicode="&#xc5;" horiz-adv-x="407" 
d="M-30 0l270 670q-28 20 -28 57q0 35 25 59t62 24q34 0 55 -20t21 -50q0 -25 -14 -45.5t-37 -30.5l11 -664h-66l-1 181h-162l-72 -181h-64zM127 240h141l-2 353zM289 689q22 0 36 14t14 34q0 18 -11.5 30t-29.5 12q-23 0 -36.5 -14.5t-13.5 -34.5q0 -18 11 -29.5t30 -11.5z
" />
    <glyph glyph-name="AE" unicode="&#xc6;" horiz-adv-x="522" 
d="M-50 0l330 700h297l-12 -60h-181l-49 -257h164l-12 -61h-164l-51 -262h184l-12 -60h-249l35 181h-132l-84 -181h-64zM125 240h116l77 397h-9z" />
    <glyph glyph-name="Ccedilla" unicode="&#xc7;" horiz-adv-x="329" 
d="M114 -115l-58 26l74 92q-93 38 -93 221q0 111 37 237t104 192q52 53 117 53q45 0 83 -23l-14 -69q-35 29 -71 29t-69 -31q-51 -52 -86.5 -168.5t-35.5 -217.5q0 -169 92 -169q31 0 69 21l-13 -66q-32 -18 -68 -18h-9z" />
    <glyph glyph-name="Egrave" unicode="&#xc8;" horiz-adv-x="326" 
d="M237 739l-85 79l58 31l74 -110h-47zM-1 0l136 700h246l-11 -60h-181l-50 -257h164l-12 -61h-164l-51 -262h184l-12 -60h-249z" />
    <glyph glyph-name="Eacute" unicode="&#xc9;" horiz-adv-x="326" 
d="M228 739l90 110l59 -31l-100 -79h-49zM-1 0l136 700h246l-11 -60h-181l-50 -257h164l-12 -61h-164l-51 -262h184l-12 -60h-249z" />
    <glyph glyph-name="Ecircumflex" unicode="&#xca;" horiz-adv-x="326" 
d="M-1 0l136 700h246l-11 -60h-181l-50 -257h164l-12 -61h-164l-51 -262h184l-12 -60h-249zM157 742l93 103h55l52 -103h-50l-38 56l-59 -56h-53z" />
    <glyph glyph-name="Edieresis" unicode="&#xcb;" horiz-adv-x="326" 
d="M171 747l14 75h66l-14 -75h-66zM287 747l15 75h65l-14 -75h-66zM-1 0l136 700h246l-11 -60h-181l-50 -257h164l-12 -61h-164l-51 -262h184l-12 -60h-249z" />
    <glyph glyph-name="Igrave" unicode="&#xcc;" horiz-adv-x="178" 
d="M5 0l136 700h65l-136 -700h-65zM159 739l-85 79l58 31l74 -110h-47z" />
    <glyph glyph-name="Iacute" unicode="&#xcd;" horiz-adv-x="178" 
d="M5 0l136 700h65l-136 -700h-65zM150 739l90 110l59 -31l-100 -79h-49z" />
    <glyph glyph-name="Icircumflex" unicode="&#xce;" horiz-adv-x="178" 
d="M5 0l136 700h65l-136 -700h-65zM79 742l93 103h55l52 -103h-50l-38 56l-59 -56h-53z" />
    <glyph glyph-name="Idieresis" unicode="&#xcf;" horiz-adv-x="178" 
d="M5 0l136 700h65l-136 -700h-65zM93 747l14 75h66l-14 -75h-66zM209 747l15 75h65l-14 -75h-66z" />
    <glyph glyph-name="Eth" unicode="&#xd0;" horiz-adv-x="412" 
d="M18 323l12 58h50l62 319h77q79 0 126 -47q61 -61 61 -193q0 -92 -32.5 -207.5t-99.5 -182.5q-70 -70 -177 -70h-91l63 323h-51zM297 611q-30 30 -78 30h-24l-50 -260h79l-12 -58h-78l-51 -264h28q65 0 118 51q56 56 84.5 163.5t28.5 184.5q0 108 -45 153z" />
    <glyph glyph-name="Ntilde" unicode="&#xd1;" horiz-adv-x="422" 
d="M233 737l-41 12q17 40 33.5 57.5t39.5 17.5q21 0 52 -21q25 -17 34 -17q17 0 35 36l41 -12q-16 -39 -33 -57t-40 -18q-21 0 -51 20q-25 18 -35 18q-16 0 -35 -36zM-1 0l136 700h62l93 -529l104 529h62l-136 -700h-57l-96 546l-106 -546h-62z" />
    <glyph glyph-name="Ograve" unicode="&#xd2;" horiz-adv-x="410" 
d="M272 744l-85 79l58 31l74 -110h-47zM279 709q64 0 97 -54t33 -154q0 -119 -38 -258t-103 -204q-48 -48 -104 -48q-64 0 -97 54t-33 154q0 119 38 258t103 204q48 48 104 48zM168 51q28 0 55 27q50 50 86 190t36 240q0 141 -70 141q-28 0 -55 -27q-50 -50 -86 -190
t-36 -240q0 -141 70 -141z" />
    <glyph glyph-name="Oacute" unicode="&#xd3;" horiz-adv-x="410" 
d="M263 744l90 110l59 -31l-100 -79h-49zM279 709q64 0 97 -54t33 -154q0 -119 -38 -258t-103 -204q-48 -48 -104 -48q-64 0 -97 54t-33 154q0 119 38 258t103 204q48 48 104 48zM168 51q28 0 55 27q50 50 86 190t36 240q0 141 -70 141q-28 0 -55 -27q-50 -50 -86 -190
t-36 -240q0 -141 70 -141z" />
    <glyph glyph-name="Ocircumflex" unicode="&#xd4;" horiz-adv-x="410" 
d="M279 709q64 0 97 -54t33 -154q0 -119 -38 -258t-103 -204q-48 -48 -104 -48q-64 0 -97 54t-33 154q0 119 38 258t103 204q48 48 104 48zM168 51q28 0 55 27q50 50 86 190t36 240q0 141 -70 141q-28 0 -55 -27q-50 -50 -86 -190t-36 -240q0 -141 70 -141zM192 747l93 103
h55l52 -103h-50l-38 56l-59 -56h-53z" />
    <glyph glyph-name="Otilde" unicode="&#xd5;" horiz-adv-x="410" 
d="M227 747l-41 12q17 40 33.5 57.5t39.5 17.5q21 0 52 -21q25 -17 34 -17q17 0 35 36l41 -12q-16 -39 -33 -57t-40 -18q-21 0 -51 20q-26 18 -35 18q-16 0 -35 -36zM279 709q64 0 97 -54t33 -154q0 -119 -38 -258t-103 -204q-48 -48 -104 -48q-64 0 -97 54t-33 154
q0 119 38 258t103 204q48 48 104 48zM168 51q28 0 55 27q50 50 86 190t36 240q0 141 -70 141q-28 0 -55 -27q-50 -50 -86 -190t-36 -240q0 -141 70 -141z" />
    <glyph glyph-name="Odieresis" unicode="&#xd6;" horiz-adv-x="410" 
d="M206 752l14 75h66l-14 -75h-66zM322 752l15 75h65l-14 -75h-66zM279 709q64 0 97 -54t33 -154q0 -119 -38 -258t-103 -204q-48 -48 -104 -48q-64 0 -97 54t-33 154q0 119 38 258t103 204q48 48 104 48zM168 51q28 0 55 27q50 50 86 190t36 240q0 141 -70 141
q-28 0 -55 -27q-50 -50 -86 -190t-36 -240q0 -141 70 -141z" />
    <glyph glyph-name="multiply" unicode="&#xd7;" horiz-adv-x="351" 
d="M76 205l-40 41l119 109l-74 105l48 35l70 -100l111 104l39 -41l-118 -110l73 -104l-48 -35l-69 100z" />
    <glyph glyph-name="Oslash" unicode="&#xd8;" horiz-adv-x="410" 
d="M279 709q65 0 99 -57l33 55h51l-64 -106q11 -46 11 -100q0 -119 -38 -258t-103 -204q-48 -48 -104 -48q-65 0 -99 56l-33 -54h-51l64 107q-11 44 -11 99q0 119 38 258t103 204q48 48 104 48zM98 192v-11l239 404q-16 65 -62 65q-27 0 -55 -27q-50 -50 -86 -190.5
t-36 -240.5zM168 50q26 0 55 27q50 50 86 190.5t36 240.5v9l-239 -404q16 -63 62 -63z" />
    <glyph glyph-name="Ugrave" unicode="&#xd9;" horiz-adv-x="409" 
d="M269 734l-85 79l58 31l74 -110h-47zM168 -9q-64 0 -102 37t-38 104q0 31 11 89l93 479h65l-95 -487q-9 -44 -9 -77q0 -41 22 -63t58 -22q37 0 62 25q32 32 48 109l99 515h65l-100 -517q-19 -102 -66 -147q-45 -45 -113 -45z" />
    <glyph glyph-name="Uacute" unicode="&#xda;" horiz-adv-x="409" 
d="M259 734l90 110l59 -31l-100 -79h-49zM168 -9q-64 0 -102 37t-38 104q0 31 11 89l93 479h65l-95 -487q-9 -44 -9 -77q0 -41 22 -63t58 -22q37 0 62 25q32 32 48 109l99 515h65l-100 -517q-19 -102 -66 -147q-45 -45 -113 -45z" />
    <glyph glyph-name="Ucircumflex" unicode="&#xdb;" horiz-adv-x="409" 
d="M168 -9q-64 0 -102 37t-38 104q0 31 11 89l93 479h65l-95 -487q-9 -44 -9 -77q0 -41 22 -63t58 -22q37 0 62 25q32 32 48 109l99 515h65l-100 -517q-19 -102 -66 -147q-45 -45 -113 -45zM188 737l93 103h55l52 -103h-50l-38 56l-59 -56h-53z" />
    <glyph glyph-name="Udieresis" unicode="&#xdc;" horiz-adv-x="409" 
d="M202 742l14 75h66l-14 -75h-66zM318 742l15 75h65l-14 -75h-66zM168 -9q-64 0 -102 37t-38 104q0 31 11 89l93 479h65l-95 -487q-9 -44 -9 -77q0 -41 22 -63t58 -22q37 0 62 25q32 32 48 109l99 515h65l-100 -517q-19 -102 -66 -147q-45 -45 -113 -45z" />
    <glyph glyph-name="Yacute" unicode="&#xdd;" horiz-adv-x="360" 
d="M96 0l58 295l-63 405h66l45 -321l168 321h69l-220 -405l-58 -295h-65zM232 734l90 110l59 -31l-100 -79h-49z" />
    <glyph glyph-name="Thorn" unicode="&#xde;" horiz-adv-x="370" 
d="M-1 0l136 700h65l-22 -116h13q84 0 133 -49q48 -48 48 -133q0 -124 -78 -202q-66 -68 -176 -68h-27l-27 -132h-65zM102 191h23q74 0 123 49q58 58 58 158q0 65 -33 96q-30 31 -87 31h-20z" />
    <glyph glyph-name="germandbls" unicode="&#xdf;" horiz-adv-x="374" 
d="M114 -2l10 54q78 -3 114.5 42.5t36.5 118.5q0 93 -95 125l9 47q62 14 98.5 65.5t36.5 114.5q0 40 -18.5 63.5t-48.5 23.5q-36 0 -59 -31t-37 -96l-102 -525h-62l103 535q18 91 61 134q40 40 97 40q58 0 93.5 -39.5t35.5 -102.5q0 -68 -37 -124.5t-105 -80.5
q93 -54 93 -154q0 -93 -56.5 -154.5t-167.5 -55.5z" />
    <glyph glyph-name="agrave" unicode="&#xe0;" horiz-adv-x="346" 
d="M95 -9q-44 0 -70 32t-26 91q0 49 16.5 97.5t47.5 79.5q40 40 96 40q48 0 90 -26l4 21q9 49 9 72q0 77 -83 77q-43 0 -90 -20l12 60q44 19 92 19q62 0 96.5 -33.5t34.5 -93.5q0 -35 -11 -90l-62 -317h-62l13 66q-45 -75 -107 -75zM120 44q37 0 64.5 34.5t37.5 86.5l17 89
q-32 23 -76 23q-34 0 -58 -24q-22 -22 -33.5 -59.5t-11.5 -73.5q0 -76 60 -76zM196 581l-85 98l55 33l73 -131h-43z" />
    <glyph glyph-name="aacute" unicode="&#xe1;" horiz-adv-x="346" 
d="M95 -9q-44 0 -70 32t-26 91q0 49 16.5 97.5t47.5 79.5q40 40 96 40q48 0 90 -26l4 21q9 49 9 72q0 77 -83 77q-43 0 -90 -20l12 60q44 19 92 19q62 0 96.5 -33.5t34.5 -93.5q0 -35 -11 -90l-62 -317h-62l13 66q-45 -75 -107 -75zM120 44q37 0 64.5 34.5t37.5 86.5l17 89
q-32 23 -76 23q-34 0 -58 -24q-22 -22 -33.5 -59.5t-11.5 -73.5q0 -76 60 -76zM194 581l94 131l56 -33l-104 -98h-46z" />
    <glyph glyph-name="acircumflex" unicode="&#xe2;" horiz-adv-x="346" 
d="M95 -9q-44 0 -70 32t-26 91q0 49 16.5 97.5t47.5 79.5q40 40 96 40q48 0 90 -26l4 21q9 49 9 72q0 77 -83 77q-43 0 -90 -20l12 60q44 19 92 19q62 0 96.5 -33.5t34.5 -93.5q0 -35 -11 -90l-62 -317h-62l13 66q-45 -75 -107 -75zM120 44q37 0 64.5 34.5t37.5 86.5l17 89
q-32 23 -76 23q-34 0 -58 -24q-22 -22 -33.5 -59.5t-11.5 -73.5q0 -76 60 -76zM127 584l94 127h49l46 -127h-46l-34 72l-60 -72h-49z" />
    <glyph glyph-name="atilde" unicode="&#xe3;" horiz-adv-x="346" 
d="M95 -9q-44 0 -70 32t-26 91q0 49 16.5 97.5t47.5 79.5q40 40 96 40q48 0 90 -26l4 21q9 49 9 72q0 77 -83 77q-43 0 -90 -20l12 60q44 19 92 19q62 0 96.5 -33.5t34.5 -93.5q0 -35 -11 -90l-62 -317h-62l13 66q-45 -75 -107 -75zM120 44q37 0 64.5 34.5t37.5 86.5l17 89
q-32 23 -76 23q-34 0 -58 -24q-22 -22 -33.5 -59.5t-11.5 -73.5q0 -76 60 -76zM308 676l39 -11q-15 -43 -32 -63t-40 -20q-22 0 -48 24q-22 21 -33 21q-18 0 -35 -44l-39 11q16 44 32.5 63.5t39.5 19.5q22 0 47 -23q22 -22 33 -22q18 0 36 44z" />
    <glyph glyph-name="adieresis" unicode="&#xe4;" horiz-adv-x="346" 
d="M95 -9q-44 0 -70 32t-26 91q0 49 16.5 97.5t47.5 79.5q40 40 96 40q48 0 90 -26l4 21q9 49 9 72q0 77 -83 77q-43 0 -90 -20l12 60q44 19 92 19q62 0 96.5 -33.5t34.5 -93.5q0 -35 -11 -90l-62 -317h-62l13 66q-45 -75 -107 -75zM120 44q37 0 64.5 34.5t37.5 86.5l17 89
q-32 23 -76 23q-34 0 -58 -24q-22 -22 -33.5 -59.5t-11.5 -73.5q0 -76 60 -76zM140 589l15 78h62l-15 -78h-62zM251 589l15 78h62l-15 -78h-62z" />
    <glyph glyph-name="aring" unicode="&#xe5;" horiz-adv-x="346" 
d="M95 -9q-44 0 -70 32t-26 91q0 49 16.5 97.5t47.5 79.5q40 40 96 40q48 0 90 -26l4 21q9 49 9 72q0 77 -83 77q-43 0 -90 -20l12 60q44 19 92 19q62 0 96.5 -33.5t34.5 -93.5q0 -35 -11 -90l-62 -317h-62l13 66q-45 -75 -107 -75zM120 44q37 0 64.5 34.5t37.5 86.5l17 89
q-32 23 -76 23q-34 0 -58 -24q-22 -22 -33.5 -59.5t-11.5 -73.5q0 -76 60 -76zM321 670q0 -37 -25 -63.5t-63 -26.5q-33 0 -53.5 21t-20.5 53q0 36 25 63t63 27q32 0 53 -21.5t21 -52.5zM193 656q0 -19 11.5 -32t30.5 -13q23 0 37.5 16.5t14.5 39.5q0 20 -11 33t-31 13
q-23 0 -37.5 -17t-14.5 -40z" />
    <glyph glyph-name="ae" unicode="&#xe6;" horiz-adv-x="557" 
d="M374 -8q-104 0 -129 115q-61 -116 -143 -116q-47 0 -75 33t-28 93q0 110 64 174q40 40 96 40q48 0 90 -26l4 21q9 49 9 72q0 77 -83 77q-43 0 -90 -20l12 60q44 19 93 19q97 0 115 -87q52 89 121 89q50 0 79 -41t29 -118q0 -51 -18 -141h-228q-3 -28 -3 -52
q0 -133 93 -133q42 0 89 30l-5 -61q-41 -28 -92 -28zM120 44q33 0 63.5 32.5t52.5 81.5q-2 49 6 94q-32 25 -78 25q-35 0 -59 -24q-45 -45 -45 -132q0 -38 16 -57.5t44 -19.5zM376 456q-48 -48 -75 -168h169q10 47 10 93q0 98 -56 98q-25 0 -48 -23z" />
    <glyph glyph-name="ccedilla" unicode="&#xe7;" horiz-adv-x="282" 
d="M82 -115l-58 26l73 91q-78 37 -78 168q0 86 29.5 177.5t80.5 142.5q47 45 102 45q45 0 76 -24l-14 -66q-27 30 -62 30q-32 0 -60 -28q-39 -39 -64 -120.5t-25 -148.5q0 -126 77 -126q28 0 62 21l-12 -64q-29 -17 -62 -17h-7z" />
    <glyph glyph-name="egrave" unicode="&#xe8;" horiz-adv-x="349" 
d="M312 236h-229q-3 -29 -3 -52q0 -133 94 -133q40 0 89 30l-6 -61q-39 -28 -91 -28q-66 0 -106 48t-40 144q0 81 29 169.5t78 138.5q44 44 95 44q50 0 79 -41t29 -118q0 -51 -18 -141zM168 456q-49 -49 -76 -168h170q10 47 10 93q0 98 -57 98q-24 0 -47 -23zM206 581
l-85 98l55 33l73 -131h-43z" />
    <glyph glyph-name="eacute" unicode="&#xe9;" horiz-adv-x="349" 
d="M312 236h-229q-3 -29 -3 -52q0 -133 94 -133q40 0 89 30l-6 -61q-39 -28 -91 -28q-66 0 -106 48t-40 144q0 81 29 169.5t78 138.5q44 44 95 44q50 0 79 -41t29 -118q0 -51 -18 -141zM168 456q-49 -49 -76 -168h170q10 47 10 93q0 98 -57 98q-24 0 -47 -23zM204 581
l94 131l56 -33l-104 -98h-46z" />
    <glyph glyph-name="ecircumflex" unicode="&#xea;" horiz-adv-x="349" 
d="M312 236h-229q-3 -29 -3 -52q0 -133 94 -133q40 0 89 30l-6 -61q-39 -28 -91 -28q-66 0 -106 48t-40 144q0 81 29 169.5t78 138.5q44 44 95 44q50 0 79 -41t29 -118q0 -51 -18 -141zM168 456q-49 -49 -76 -168h170q10 47 10 93q0 98 -57 98q-24 0 -47 -23zM137 584
l94 127h49l46 -127h-46l-34 72l-60 -72h-49z" />
    <glyph glyph-name="edieresis" unicode="&#xeb;" horiz-adv-x="349" 
d="M312 236h-229q-3 -29 -3 -52q0 -133 94 -133q40 0 89 30l-6 -61q-39 -28 -91 -28q-66 0 -106 48t-40 144q0 81 29 169.5t78 138.5q44 44 95 44q50 0 79 -41t29 -118q0 -51 -18 -141zM168 456q-49 -49 -76 -168h170q10 47 10 93q0 98 -57 98q-24 0 -47 -23zM260 589l15 78
h62l-15 -78h-62zM149 589l15 78h62l-15 -78h-62z" />
    <glyph glyph-name="igrave" unicode="&#xec;" horiz-adv-x="167" 
d="M1 0l103 528h62l-103 -528h-62zM118 576l-85 98l55 33l73 -131h-43z" />
    <glyph glyph-name="iacute" unicode="&#xed;" horiz-adv-x="167" 
d="M116 576l94 131l56 -33l-104 -98h-46zM1 0l103 528h62l-103 -528h-62z" />
    <glyph glyph-name="icircumflex" unicode="&#xee;" horiz-adv-x="167" 
d="M48 579l94 127h49l46 -127h-46l-34 72l-60 -72h-49zM1 0l103 528h62l-103 -528h-62z" />
    <glyph glyph-name="idieresis" unicode="&#xef;" horiz-adv-x="167" 
d="M60 584l15 78h62l-15 -78h-62zM171 584l15 78h62l-15 -78h-62zM1 0l103 528h62l-103 -528h-62z" />
    <glyph glyph-name="eth" unicode="&#xf0;" horiz-adv-x="367" 
d="M173 573l-14 42l72 28q-17 31 -36 63h66q16 -28 23 -42l73 29l15 -42l-69 -27q46 -106 46 -223q0 -114 -32 -214.5t-82 -150.5q-45 -45 -95 -45q-54 0 -86.5 47.5t-32.5 132.5q0 89 29.5 181t77.5 140q42 42 86 42q47 0 74 -55q-7 58 -37 124zM145 48q26 0 50 24
q36 36 61 125.5t25 166.5q0 56 -16 86t-45 30q-24 0 -50 -24q-37 -37 -62 -126.5t-25 -165.5q0 -55 16.5 -85.5t45.5 -30.5z" />
    <glyph glyph-name="ntilde" unicode="&#xf1;" horiz-adv-x="374" 
d="M-4 0l103 528h62l-14 -74q49 83 117 83q43 0 67.5 -28.5t24.5 -78.5q0 -32 -10 -81l-67 -349h-63l67 341q9 51 9 75q0 66 -56 66q-38 0 -67.5 -35.5t-39.5 -85.5l-70 -361h-63zM325 676l39 -11q-15 -43 -32 -63t-40 -20q-22 0 -48 24q-22 21 -33 21q-18 0 -35 -44l-39 11
q16 44 32.5 63.5t39.5 19.5q22 0 47 -23q22 -22 33 -22q18 0 36 44z" />
    <glyph glyph-name="ograve" unicode="&#xf2;" horiz-adv-x="366" 
d="M224 536q56 0 88.5 -47t32.5 -132q0 -89 -29 -181.5t-78 -140.5q-43 -44 -96 -44q-55 0 -88 47.5t-33 131.5q0 89 29.5 181.5t77.5 141.5q44 43 96 43zM146 48q26 0 50 25q37 36 62.5 125t25.5 166q0 55 -17 85t-47 30q-26 0 -50 -24q-37 -37 -62 -125.5t-25 -165.5
q0 -55 17 -85.5t46 -30.5zM214 581l-85 98l55 33l73 -131h-43z" />
    <glyph glyph-name="oacute" unicode="&#xf3;" horiz-adv-x="366" 
d="M212 581l94 131l56 -33l-104 -98h-46zM224 536q56 0 88.5 -47t32.5 -132q0 -89 -29 -181.5t-78 -140.5q-43 -44 -96 -44q-55 0 -88 47.5t-33 131.5q0 89 29.5 181.5t77.5 141.5q44 43 96 43zM146 48q26 0 50 25q37 36 62.5 125t25.5 166q0 55 -17 85t-47 30
q-26 0 -50 -24q-37 -37 -62 -125.5t-25 -165.5q0 -55 17 -85.5t46 -30.5z" />
    <glyph glyph-name="ocircumflex" unicode="&#xf4;" horiz-adv-x="366" 
d="M144 584l94 127h49l46 -127h-46l-34 72l-60 -72h-49zM224 536q56 0 88.5 -47t32.5 -132q0 -89 -29 -181.5t-78 -140.5q-43 -44 -96 -44q-55 0 -88 47.5t-33 131.5q0 89 29.5 181.5t77.5 141.5q44 43 96 43zM146 48q26 0 50 25q37 36 62.5 125t25.5 166q0 55 -17 85
t-47 30q-26 0 -50 -24q-37 -37 -62 -125.5t-25 -165.5q0 -55 17 -85.5t46 -30.5z" />
    <glyph glyph-name="otilde" unicode="&#xf5;" horiz-adv-x="366" 
d="M224 536q56 0 88.5 -47t32.5 -132q0 -89 -29 -181.5t-78 -140.5q-43 -44 -96 -44q-55 0 -88 47.5t-33 131.5q0 89 29.5 181.5t77.5 141.5q44 43 96 43zM146 48q26 0 50 25q37 36 62.5 125t25.5 166q0 55 -17 85t-47 30q-26 0 -50 -24q-37 -37 -62 -125.5t-25 -165.5
q0 -55 17 -85.5t46 -30.5zM325 676l39 -11q-15 -43 -32 -63t-40 -20q-22 0 -48 24q-22 21 -33 21q-18 0 -35 -44l-39 11q16 44 32.5 63.5t39.5 19.5q22 0 47 -23q22 -22 33 -22q18 0 36 44z" />
    <glyph glyph-name="odieresis" unicode="&#xf6;" horiz-adv-x="366" 
d="M156 589l15 78h62l-15 -78h-62zM267 589l15 78h62l-15 -78h-62zM224 536q56 0 88.5 -47t32.5 -132q0 -89 -29 -181.5t-78 -140.5q-43 -44 -96 -44q-55 0 -88 47.5t-33 131.5q0 89 29.5 181.5t77.5 141.5q44 43 96 43zM146 48q26 0 50 25q37 36 62.5 125t25.5 166
q0 55 -17 85t-47 30q-26 0 -50 -24q-37 -37 -62 -125.5t-25 -165.5q0 -55 17 -85.5t46 -30.5z" />
    <glyph glyph-name="divide" unicode="&#xf7;" horiz-adv-x="351" 
d="M123 173l16 83h70l-16 -83h-70zM39 321l12 62h295l-12 -62h-295zM176 448l16 83h70l-16 -83h-70z" />
    <glyph glyph-name="oslash" unicode="&#xf8;" horiz-adv-x="366" 
d="M224 536q55 0 87 -46l31 43h48l-58 -85q13 -41 13 -91q0 -89 -29 -181.5t-78 -140.5q-43 -44 -96 -44q-56 0 -88 46l-29 -43h-49l58 85q-13 36 -13 91q0 89 29.5 181.5t77.5 141.5q44 43 96 43zM286 364q0 13 -1 20l-194 -292q17 -45 55 -45q27 0 51 24q38 38 63.5 127
t25.5 166zM221 480q-27 0 -51 -24q-38 -37 -64 -126t-26 -166v-20l195 291q-17 45 -54 45z" />
    <glyph glyph-name="ugrave" unicode="&#xf9;" horiz-adv-x="374" 
d="M110 -9q-43 0 -67.5 28.5t-24.5 78.5q0 32 10 81l67 349h63l-67 -341q-9 -51 -9 -75q0 -66 56 -66q38 0 67.5 35t39.5 86l70 361h63l-103 -528h-62l14 73q-51 -82 -117 -82zM215 571l-85 98l55 33l73 -131h-43z" />
    <glyph glyph-name="uacute" unicode="&#xfa;" horiz-adv-x="374" 
d="M213 571l94 131l56 -33l-104 -98h-46zM110 -9q-43 0 -67.5 28.5t-24.5 78.5q0 32 10 81l67 349h63l-67 -341q-9 -51 -9 -75q0 -66 56 -66q38 0 67.5 35t39.5 86l70 361h63l-103 -528h-62l14 73q-51 -82 -117 -82z" />
    <glyph glyph-name="ucircumflex" unicode="&#xfb;" horiz-adv-x="374" 
d="M146 574l94 127h49l46 -127h-46l-34 72l-60 -72h-49zM110 -9q-43 0 -67.5 28.5t-24.5 78.5q0 32 10 81l67 349h63l-67 -341q-9 -51 -9 -75q0 -66 56 -66q38 0 67.5 35t39.5 86l70 361h63l-103 -528h-62l14 73q-51 -82 -117 -82z" />
    <glyph glyph-name="udieresis" unicode="&#xfc;" horiz-adv-x="374" 
d="M158 579l15 78h62l-15 -78h-62zM269 579l15 78h62l-15 -78h-62zM110 -9q-43 0 -67.5 28.5t-24.5 78.5q0 32 10 81l67 349h63l-67 -341q-9 -51 -9 -75q0 -66 56 -66q38 0 67.5 35t39.5 86l70 361h63l-103 -528h-62l14 73q-51 -82 -117 -82z" />
    <glyph glyph-name="yacute" unicode="&#xfd;" horiz-adv-x="347" 
d="M92 8l-22 520h63l9 -412l171 412h63l-284 -658h-60zM195 571l94 131l56 -33l-104 -98h-46z" />
    <glyph glyph-name="thorn" unicode="&#xfe;" horiz-adv-x="379" 
d="M196 706l-51 -260q54 91 116 91q44 0 70 -41.5t26 -119.5q0 -93 -29.5 -195.5t-79.5 -152.5q-37 -37 -78 -37q-38 0 -61.5 30t-30.5 75l-44 -226h-63l162 836h63zM162 49q23 0 45 22q38 38 63 131t25 167q0 53 -15.5 81.5t-43.5 28.5q-26 0 -50 -25q-39 -38 -63 -125
t-24 -161q0 -56 17 -87.5t46 -31.5z" />
    <glyph glyph-name="ydieresis" unicode="&#xff;" horiz-adv-x="347" 
d="M92 8l-22 520h63l9 -412l171 412h63l-284 -658h-60zM250 579l15 78h62l-15 -78h-62zM139 579l15 78h62l-15 -78h-62z" />
    <glyph glyph-name="Amacron" unicode="&#x100;" horiz-adv-x="407" 
d="M-30 0l284 703h70l11 -703h-66l-1 181h-162l-72 -181h-64zM127 240h141l-2 353zM198 753l10 51h206l-10 -51h-206z" />
    <glyph glyph-name="amacron" unicode="&#x101;" horiz-adv-x="346" 
d="M95 -9q-44 0 -70 32t-26 91q0 49 16.5 97.5t47.5 79.5q40 40 96 40q48 0 90 -26l4 21q9 49 9 72q0 77 -83 77q-43 0 -90 -20l12 60q44 19 92 19q62 0 96.5 -33.5t34.5 -93.5q0 -35 -11 -90l-62 -317h-62l13 66q-45 -75 -107 -75zM120 44q37 0 64.5 34.5t37.5 86.5l17 89
q-32 23 -76 23q-34 0 -58 -24q-22 -22 -33.5 -59.5t-11.5 -73.5q0 -76 60 -76zM128 590l10 50h194l-10 -50h-194z" />
    <glyph glyph-name="Abreve" unicode="&#x102;" horiz-adv-x="407" 
d="M-30 0l284 703h70l11 -703h-66l-1 181h-162l-72 -181h-64zM127 240h141l-2 353zM299 744q-43 0 -68 23t-21 65h46q1 -39 47 -39q43 0 60 39h46q-24 -88 -110 -88z" />
    <glyph glyph-name="abreve" unicode="&#x103;" horiz-adv-x="346" 
d="M95 -9q-44 0 -70 32t-26 91q0 49 16.5 97.5t47.5 79.5q40 40 96 40q48 0 90 -26l4 21q9 49 9 72q0 77 -83 77q-43 0 -90 -20l12 60q44 19 92 19q62 0 96.5 -33.5t34.5 -93.5q0 -35 -11 -90l-62 -317h-62l13 66q-45 -75 -107 -75zM120 44q37 0 64.5 34.5t37.5 86.5l17 89
q-32 23 -76 23q-34 0 -58 -24q-22 -22 -33.5 -59.5t-11.5 -73.5q0 -76 60 -76zM226 581q-42 0 -66.5 25.5t-19.5 75.5h44q-1 -26 11 -39.5t34 -13.5q44 0 64 53h46q-26 -101 -113 -101z" />
    <glyph glyph-name="Aogonek" unicode="&#x104;" horiz-adv-x="407" 
d="M324 -85l-8 -42q-3 0 -7 -0.5t-5 -0.5q-75 0 -75 51q0 34 52 77h-12l-1 181h-162l-72 -181h-64l284 703h70l11 -703h-10q-41 -44 -41 -61q0 -22 40 -24zM127 240h141l-2 353z" />
    <glyph glyph-name="aogonek" unicode="&#x105;" horiz-adv-x="346" 
d="M241 -85l-8 -42q-3 0 -7 -0.5t-5 -0.5q-75 0 -75 51q0 34 52 77h-9l13 66q-45 -75 -107 -75q-44 0 -70 32t-26 91q0 49 16.5 97.5t47.5 79.5q40 40 96 40q48 0 90 -26l4 21q9 49 9 72q0 77 -83 77q-43 0 -90 -20l12 60q44 19 92 19q62 0 96.5 -33.5t34.5 -93.5
q0 -35 -11 -90l-62 -317h-9q-41 -44 -41 -61q0 -22 40 -24zM120 44q37 0 64.5 34.5t37.5 86.5l17 89q-32 23 -76 23q-34 0 -58 -24q-22 -22 -33.5 -59.5t-11.5 -73.5q0 -76 60 -76z" />
    <glyph glyph-name="Cacute" unicode="&#x106;" horiz-adv-x="329" 
d="M182 -6q-145 0 -145 230q0 111 37 237t104 192q52 53 117 53q45 0 83 -23l-14 -69q-35 29 -71 29t-69 -31q-51 -52 -86.5 -168.5t-35.5 -217.5q0 -169 92 -169q31 0 69 21l-13 -66q-32 -18 -68 -18zM260 744l90 110l59 -31l-100 -79h-49z" />
    <glyph glyph-name="cacute" unicode="&#x107;" horiz-adv-x="282" 
d="M201 581l94 131l56 -33l-104 -98h-46zM147 -8q-57 0 -92.5 45.5t-35.5 132.5q0 86 29.5 177.5t80.5 142.5q47 45 102 45q45 0 76 -24l-14 -66q-27 30 -62 30q-32 0 -60 -28q-39 -39 -64 -120.5t-25 -148.5q0 -126 77 -126q28 0 62 21l-12 -64q-29 -17 -62 -17z" />
    <glyph glyph-name="Cdotaccent" unicode="&#x10a;" horiz-adv-x="329" 
d="M260 752l15 75h67l-14 -75h-68zM182 -6q-145 0 -145 230q0 111 37 237t104 192q52 53 117 53q45 0 83 -23l-14 -69q-35 29 -71 29t-69 -31q-51 -52 -86.5 -168.5t-35.5 -217.5q0 -169 92 -169q31 0 69 21l-13 -66q-32 -18 -68 -18z" />
    <glyph glyph-name="cdotaccent" unicode="&#x10b;" horiz-adv-x="282" 
d="M147 -8q-57 0 -92.5 45.5t-35.5 132.5q0 86 29.5 177.5t80.5 142.5q47 45 102 45q45 0 76 -24l-14 -66q-27 30 -62 30q-32 0 -60 -28q-39 -39 -64 -120.5t-25 -148.5q0 -126 77 -126q28 0 62 21l-12 -64q-29 -17 -62 -17zM199 589l15 78h65l-15 -78h-65z" />
    <glyph glyph-name="Ccaron" unicode="&#x10c;" horiz-adv-x="329" 
d="M182 -6q-145 0 -145 230q0 111 37 237t104 192q52 53 117 53q45 0 83 -23l-14 -69q-35 29 -71 29t-69 -31q-51 -52 -86.5 -168.5t-35.5 -217.5q0 -169 92 -169q31 0 69 21l-13 -66q-32 -18 -68 -18zM409 850l-92 -103h-55l-53 103h51l38 -55l58 55h53z" />
    <glyph glyph-name="ccaron" unicode="&#x10d;" horiz-adv-x="282" 
d="M204 584l-46 127h46l34 -72l60 72h49l-94 -127h-49zM147 -8q-57 0 -92.5 45.5t-35.5 132.5q0 86 29.5 177.5t80.5 142.5q47 45 102 45q45 0 76 -24l-14 -66q-27 30 -62 30q-32 0 -60 -28q-39 -39 -64 -120.5t-25 -148.5q0 -126 77 -126q28 0 62 21l-12 -64
q-29 -17 -62 -17z" />
    <glyph glyph-name="Dcaron" unicode="&#x10e;" horiz-adv-x="405" 
d="M-1 0l136 700h77q80 0 127 -47q61 -63 61 -193q0 -92 -32.5 -207.5t-99.5 -182.5q-71 -70 -178 -70h-91zM290 611q-29 30 -77 30h-24l-113 -582h29q66 0 117 51q57 56 85 163t28 185q0 109 -45 153zM380 845l-92 -103h-55l-53 103h51l38 -55l58 55h53z" />
    <glyph glyph-name="dcaron" unicode="&#x10f;" horiz-adv-x="379" 
d="M418 559l36 147h50v-2l-57 -145h-29zM218 0l16 82q-54 -91 -115 -91q-45 0 -71 41.5t-26 119.5q0 93 30 195.5t80 152.5q36 37 77 37q38 0 61.5 -30t30.5 -75l54 274h63l-137 -706h-63zM143 49q26 0 51 25q38 38 62.5 125t24.5 161q0 56 -17 87.5t-46 31.5q-24 0 -46 -22
q-38 -38 -62.5 -130.5t-24.5 -167.5q0 -110 58 -110z" />
    <glyph glyph-name="Dcroat" unicode="&#x110;" horiz-adv-x="412" 
d="M18 323l12 58h50l62 319h77q79 0 126 -47q61 -61 61 -193q0 -92 -32.5 -207.5t-99.5 -182.5q-70 -70 -177 -70h-91l63 323h-51zM297 611q-30 30 -78 30h-24l-50 -260h79l-12 -58h-78l-51 -264h28q65 0 118 51q56 56 84.5 163.5t28.5 184.5q0 108 -45 153z" />
    <glyph glyph-name="dcroat" unicode="&#x111;" horiz-adv-x="379" 
d="M235 594l9 47h98l13 65h63l-13 -65h44l-9 -48h-44l-115 -593h-63l16 82q-54 -91 -115 -91q-45 0 -71 41.5t-26 119.5q0 93 30 195.5t80 152.5q36 37 77 37q38 0 61.5 -30t30.5 -75l32 162h-98zM143 49q26 0 51 25q38 38 62.5 125t24.5 161q0 56 -17 87.5t-46 31.5
q-24 0 -46 -22q-38 -38 -62.5 -130.5t-24.5 -167.5q0 -110 58 -110z" />
    <glyph glyph-name="Emacron" unicode="&#x112;" horiz-adv-x="326" 
d="M158 748l10 51h206l-10 -51h-206zM-1 0l136 700h246l-11 -60h-181l-50 -257h164l-12 -61h-164l-51 -262h184l-12 -60h-249z" />
    <glyph glyph-name="emacron" unicode="&#x113;" horiz-adv-x="349" 
d="M312 236h-229q-3 -29 -3 -52q0 -133 94 -133q40 0 89 30l-6 -61q-39 -28 -91 -28q-66 0 -106 48t-40 144q0 81 29 169.5t78 138.5q44 44 95 44q50 0 79 -41t29 -118q0 -51 -18 -141zM168 456q-49 -49 -76 -168h170q10 47 10 93q0 98 -57 98q-24 0 -47 -23zM138 590l10 50
h194l-10 -50h-194z" />
    <glyph glyph-name="Ebreve" unicode="&#x114;" horiz-adv-x="326" 
d="M259 739q-43 0 -68 23t-21 65h46q1 -39 47 -39q43 0 60 39h46q-24 -88 -110 -88zM-1 0l136 700h246l-11 -60h-181l-50 -257h164l-12 -61h-164l-51 -262h184l-12 -60h-249z" />
    <glyph glyph-name="ebreve" unicode="&#x115;" horiz-adv-x="349" 
d="M312 236h-229q-3 -29 -3 -52q0 -133 94 -133q40 0 89 30l-6 -61q-39 -28 -91 -28q-66 0 -106 48t-40 144q0 81 29 169.5t78 138.5q44 44 95 44q50 0 79 -41t29 -118q0 -51 -18 -141zM168 456q-49 -49 -76 -168h170q10 47 10 93q0 98 -57 98q-24 0 -47 -23zM236 581
q-42 0 -66.5 25.5t-19.5 75.5h44q-1 -26 11 -39.5t34 -13.5q44 0 64 53h46q-26 -101 -113 -101z" />
    <glyph glyph-name="Edotaccent" unicode="&#x116;" horiz-adv-x="326" 
d="M228 747l15 75h67l-14 -75h-68zM-1 0l136 700h246l-11 -60h-181l-50 -257h164l-12 -61h-164l-51 -262h184l-12 -60h-249z" />
    <glyph glyph-name="edotaccent" unicode="&#x117;" horiz-adv-x="349" 
d="M312 236h-229q-3 -29 -3 -52q0 -133 94 -133q40 0 89 30l-6 -61q-39 -28 -91 -28q-66 0 -106 48t-40 144q0 81 29 169.5t78 138.5q44 44 95 44q50 0 79 -41t29 -118q0 -51 -18 -141zM168 456q-49 -49 -76 -168h170q10 47 10 93q0 98 -57 98q-24 0 -47 -23zM203 589l15 78
h65l-15 -78h-65z" />
    <glyph glyph-name="Eogonek" unicode="&#x118;" horiz-adv-x="326" 
d="M-1 0l136 700h246l-11 -60h-181l-50 -257h164l-12 -61h-164l-51 -262h184l-12 -60h-12q-41 -44 -41 -61q0 -22 40 -24l-8 -42q-3 0 -7 -0.5t-5 -0.5q-75 0 -75 51q0 34 52 77h-193z" />
    <glyph glyph-name="eogonek" unicode="&#x119;" horiz-adv-x="349" 
d="M263 81l-6 -61q-28 -21 -44 -37q-26 -26 -26 -44q0 -23 39 -24l-8 -42q-2 0 -6.5 -0.5t-5.5 -0.5q-75 0 -75 51q0 33 44 70q-4 -1 -9 -1q-65 0 -105.5 48t-40.5 144q0 81 29 169.5t78 138.5q44 44 95 44q50 0 79 -41t29 -118q0 -51 -18 -141h-229q-3 -29 -3 -52
q0 -133 94 -133q40 0 89 30zM168 456q-49 -49 -76 -168h170q10 47 10 93q0 98 -57 98q-24 0 -47 -23z" />
    <glyph glyph-name="Ecaron" unicode="&#x11a;" horiz-adv-x="326" 
d="M377 845l-92 -103h-55l-53 103h51l38 -55l58 55h53zM-1 0l136 700h246l-11 -60h-181l-50 -257h164l-12 -61h-164l-51 -262h184l-12 -60h-249z" />
    <glyph glyph-name="ecaron" unicode="&#x11b;" horiz-adv-x="349" 
d="M312 236h-229q-3 -29 -3 -52q0 -133 94 -133q40 0 89 30l-6 -61q-39 -28 -91 -28q-66 0 -106 48t-40 144q0 81 29 169.5t78 138.5q44 44 95 44q50 0 79 -41t29 -118q0 -51 -18 -141zM168 456q-49 -49 -76 -168h170q10 47 10 93q0 98 -57 98q-24 0 -47 -23zM208 584
l-46 127h46l34 -72l60 72h49l-94 -127h-49z" />
    <glyph glyph-name="Gbreve" unicode="&#x11e;" horiz-adv-x="396" 
d="M322 744q-43 0 -68 23t-21 65h46q1 -39 47 -39q43 0 60 39h46q-24 -88 -110 -88zM208 -8q-80 0 -125 64.5t-45 179.5q0 110 36.5 222.5t104.5 179.5q69 69 151 69q54 0 90 -24l-14 -68q-38 30 -80 30q-53 0 -100 -46q-58 -58 -90.5 -163t-32.5 -200q0 -86 29 -135t78 -49
q22 0 39 10l48 248h-92l11 59h153l-68 -352q-44 -25 -93 -25z" />
    <glyph glyph-name="gbreve" unicode="&#x11f;" horiz-adv-x="379" 
d="M107 -132q-65 0 -124 27l11 60q57 -30 116 -30q51 0 79 28q25 25 35 79l17 88q-52 -91 -116 -91q-45 0 -71.5 42t-26.5 121q0 76 28 167.5t77 140.5q37 37 77 37q38 0 61.5 -30t30.5 -75l20 96h62l-98 -501q-15 -78 -50 -113q-45 -46 -128 -46zM150 87q26 0 51 25
q31 31 55.5 102.5t24.5 147.5q0 55 -17 86t-46 31q-23 0 -45 -22q-38 -39 -61 -119.5t-23 -142.5q0 -51 16 -79.5t45 -28.5zM254 581q-42 0 -66.5 25.5t-19.5 75.5h44q-1 -26 11 -39.5t34 -13.5q44 0 64 53h46q-26 -101 -113 -101z" />
    <glyph glyph-name="Gdotaccent" unicode="&#x120;" horiz-adv-x="396" 
d="M290 752l15 75h67l-14 -75h-68zM208 -8q-80 0 -125 64.5t-45 179.5q0 110 36.5 222.5t104.5 179.5q69 69 151 69q54 0 90 -24l-14 -68q-38 30 -80 30q-53 0 -100 -46q-58 -58 -90.5 -163t-32.5 -200q0 -86 29 -135t78 -49q22 0 39 10l48 248h-92l11 59h153l-68 -352
q-44 -25 -93 -25z" />
    <glyph glyph-name="gdotaccent" unicode="&#x121;" horiz-adv-x="379" 
d="M107 -132q-65 0 -124 27l11 60q57 -30 116 -30q51 0 79 28q25 25 35 79l17 88q-52 -91 -116 -91q-45 0 -71.5 42t-26.5 121q0 76 28 167.5t77 140.5q37 37 77 37q38 0 61.5 -30t30.5 -75l20 96h62l-98 -501q-15 -78 -50 -113q-45 -46 -128 -46zM150 87q26 0 51 25
q31 31 55.5 102.5t24.5 147.5q0 55 -17 86t-46 31q-23 0 -45 -22q-38 -39 -61 -119.5t-23 -142.5q0 -51 16 -79.5t45 -28.5zM221 589l15 78h65l-15 -78h-65z" />
    <glyph glyph-name="Gcommaaccent" unicode="&#x122;" horiz-adv-x="396" 
d="M113 -196l-6 25q24 9 33.5 19.5t12.5 31.5h-29l13 67h65l-13 -64q-7 -36 -24 -52.5t-52 -26.5zM208 -8q-80 0 -125 64.5t-45 179.5q0 110 36.5 222.5t104.5 179.5q69 69 151 69q54 0 90 -24l-14 -68q-38 30 -80 30q-53 0 -100 -46q-58 -58 -90.5 -163t-32.5 -200
q0 -86 29 -135t78 -49q22 0 39 10l48 248h-92l11 59h153l-68 -352q-44 -25 -93 -25z" />
    <glyph glyph-name="gcommaaccent" unicode="&#x123;" horiz-adv-x="379" 
d="M308 728l6 -25q-24 -9 -33.5 -19.5t-12.5 -31.5h29l-13 -67h-65l13 64q7 36 24 52.5t52 26.5zM107 -132q-65 0 -124 27l11 60q57 -30 116 -30q51 0 79 28q25 25 35 79l17 88q-52 -91 -116 -91q-45 0 -71.5 42t-26.5 121q0 76 28 167.5t77 140.5q37 37 77 37
q38 0 61.5 -30t30.5 -75l20 96h62l-98 -501q-15 -78 -50 -113q-45 -46 -128 -46zM150 87q26 0 51 25q31 31 55.5 102.5t24.5 147.5q0 55 -17 86t-46 31q-23 0 -45 -22q-38 -39 -61 -119.5t-23 -142.5q0 -51 16 -79.5t45 -28.5z" />
    <glyph glyph-name="Hbar" unicode="&#x126;" horiz-adv-x="431" 
d="M62 545l11 56h50l19 99h65l-20 -100h186l20 100h65l-19 -99h49l-11 -56h-49l-106 -545h-65l63 322h-186l-63 -322h-65l106 545h-50zM145 382h186l32 164h-186z" />
    <glyph glyph-name="hbar" unicode="&#x127;" horiz-adv-x="374" 
d="M68 593l10 48h43l13 65h63l-13 -65h99l-10 -47h-99l-27 -140q49 83 117 83q43 0 67.5 -28.5t24.5 -78.5q0 -32 -10 -81l-67 -349h-63l67 341q9 51 9 75q0 66 -56 66q-38 0 -67.5 -35.5t-39.5 -85.5l-70 -361h-63l116 593h-44z" />
    <glyph glyph-name="Imacron" unicode="&#x12a;" horiz-adv-x="178" 
d="M5 0l136 700h65l-136 -700h-65zM80 748l10 51h206l-10 -51h-206z" />
    <glyph glyph-name="imacron" unicode="&#x12b;" horiz-adv-x="167" 
d="M1 0l103 528h62l-103 -528h-62zM49 585l10 50h194l-10 -50h-194z" />
    <glyph glyph-name="Ibreve" unicode="&#x12c;" horiz-adv-x="178" 
d="M5 0l136 700h65l-136 -700h-65zM181 739q-43 0 -68 23t-21 65h46q1 -39 47 -39q43 0 60 39h46q-24 -88 -110 -88z" />
    <glyph glyph-name="ibreve" unicode="&#x12d;" horiz-adv-x="167" 
d="M1 0l103 528h62l-103 -528h-62zM147 576q-42 0 -66.5 25.5t-19.5 75.5h44q-1 -26 11 -39.5t34 -13.5q44 0 64 53h46q-26 -101 -113 -101z" />
    <glyph glyph-name="Iogonek" unicode="&#x12e;" horiz-adv-x="178" 
d="M5 0l136 700h65l-136 -700h-8q-41 -44 -41 -61q0 -22 40 -24l-8 -42q-3 0 -7 -0.5t-5 -0.5q-75 0 -75 51q0 33 52 77h-13z" />
    <glyph glyph-name="iogonek" unicode="&#x12f;" horiz-adv-x="167" 
d="M1 0l103 528h62l-103 -528h-7q-41 -44 -41 -61q0 -22 40 -24l-8 -42q-3 0 -7 -0.5t-5 -0.5q-75 0 -75 51q0 33 52 77h-11zM121 624l15 82h66l-15 -82h-66z" />
    <glyph glyph-name="Idotaccent" unicode="&#x130;" horiz-adv-x="178" 
d="M5 0l136 700h65l-136 -700h-65zM150 747l15 75h67l-14 -75h-68z" />
    <glyph glyph-name="dotlessi" unicode="&#x131;" horiz-adv-x="167" 
d="M1 0l103 528h62l-103 -528h-62z" />
    <glyph glyph-name="Kcommaaccent" unicode="&#x136;" horiz-adv-x="379" 
d="M88 -196l-6 25q24 9 33.5 19.5t12.5 31.5h-29l13 67h65l-13 -64q-7 -36 -24 -52.5t-52 -26.5zM-1 0l136 700h65l-72 -369l243 369h73l-213 -318l89 -382h-69l-72 317l-75 -109l-40 -208h-65z" />
    <glyph glyph-name="kcommaaccent" unicode="&#x137;" horiz-adv-x="330" 
d="M50 -193l-6 25q24 9 33.5 19.5t12.5 31.5h-29l13 67h65l-13 -64q-7 -36 -24 -52.5t-52 -26.5zM-4 0l137 706h63l-86 -438l180 260h72l-154 -215l57 -313h-64l-44 255l-67 -92l-31 -163h-63z" />
    <glyph glyph-name="Lacute" unicode="&#x139;" horiz-adv-x="288" 
d="M149 739l90 110l59 -31l-100 -79h-49zM-1 0l136 700h65l-124 -640h164l-12 -60h-229z" />
    <glyph glyph-name="lacute" unicode="&#x13a;" horiz-adv-x="167" 
d="M145 741l90 110l59 -31l-100 -79h-49zM1 0l137 706h62l-137 -706h-62z" />
    <glyph glyph-name="Lcommaaccent" unicode="&#x13b;" horiz-adv-x="288" 
d="M46 -196l-6 25q24 9 33.5 19.5t12.5 31.5h-29l13 67h65l-13 -64q-7 -36 -24 -52.5t-52 -26.5zM-1 0l136 700h65l-124 -640h164l-12 -60h-229z" />
    <glyph glyph-name="lcommaaccent" unicode="&#x13c;" horiz-adv-x="167" 
d="M-33 -196l-6 25q24 9 33.5 19.5t12.5 31.5h-29l13 67h65l-13 -64q-7 -36 -24 -52.5t-52 -26.5zM1 0l137 706h62l-137 -706h-62z" />
    <glyph glyph-name="Lcaron" unicode="&#x13d;" horiz-adv-x="288" 
d="M206 553l36 147h50v-2l-57 -145h-29zM-1 0l136 700h65l-124 -640h164l-12 -60h-229z" />
    <glyph glyph-name="lcaron" unicode="&#x13e;" horiz-adv-x="167" 
d="M202 559l36 147h50v-2l-57 -145h-29zM1 0l137 706h62l-137 -706h-62z" />
    <glyph glyph-name="Ldot" unicode="&#x13f;" horiz-adv-x="288" 
d="M203 322l15 78h63l-15 -78h-63zM-1 0l136 700h65l-124 -640h164l-12 -60h-229z" />
    <glyph glyph-name="ldot" unicode="&#x140;" horiz-adv-x="226" 
d="M178 316l16 84h58l-17 -84h-57zM1 0l137 706h62l-137 -706h-62z" />
    <glyph glyph-name="Lslash" unicode="&#x141;" horiz-adv-x="300" 
d="M7 259l13 67l53 27l68 347h65l-60 -310l96 50l-13 -67l-96 -49l-51 -264h164l-12 -60h-229l55 286z" />
    <glyph glyph-name="lslash" unicode="&#x142;" horiz-adv-x="184" 
d="M8 275l12 66l62 34l64 331h62l-57 -293l64 35l-13 -66l-64 -35l-67 -347h-62l60 308z" />
    <glyph glyph-name="Nacute" unicode="&#x143;" horiz-adv-x="422" 
d="M268 734l90 110l59 -31l-100 -79h-49zM-1 0l136 700h62l93 -529l104 529h62l-136 -700h-57l-96 546l-106 -546h-62z" />
    <glyph glyph-name="nacute" unicode="&#x144;" horiz-adv-x="374" 
d="M212 581l94 131l56 -33l-104 -98h-46zM-4 0l103 528h62l-14 -74q49 83 117 83q43 0 67.5 -28.5t24.5 -78.5q0 -32 -10 -81l-67 -349h-63l67 341q9 51 9 75q0 66 -56 66q-38 0 -67.5 -35.5t-39.5 -85.5l-70 -361h-63z" />
    <glyph glyph-name="Ncommaaccent" unicode="&#x145;" horiz-adv-x="422" 
d="M92 -196l-6 25q24 9 33.5 19.5t12.5 31.5h-29l13 67h65l-13 -64q-7 -36 -24 -52.5t-52 -26.5zM-1 0l136 700h62l93 -529l104 529h62l-136 -700h-57l-96 546l-106 -546h-62z" />
    <glyph glyph-name="ncommaaccent" unicode="&#x146;" horiz-adv-x="374" 
d="M64 -193l-6 25q24 9 33.5 19.5t12.5 31.5h-29l13 67h65l-13 -64q-7 -36 -24 -52.5t-52 -26.5zM-4 0l103 528h62l-14 -74q49 83 117 83q43 0 67.5 -28.5t24.5 -78.5q0 -32 -10 -81l-67 -349h-63l67 341q9 51 9 75q0 66 -56 66q-38 0 -67.5 -35.5t-39.5 -85.5l-70 -361h-63
z" />
    <glyph glyph-name="Ncaron" unicode="&#x147;" horiz-adv-x="422" 
d="M417 840l-92 -103h-55l-53 103h51l38 -55l58 55h53zM-1 0l136 700h62l93 -529l104 529h62l-136 -700h-57l-96 546l-106 -546h-62z" />
    <glyph glyph-name="ncaron" unicode="&#x148;" horiz-adv-x="374" 
d="M215 584l-46 127h46l34 -72l60 72h49l-94 -127h-49zM-4 0l103 528h62l-14 -74q49 83 117 83q43 0 67.5 -28.5t24.5 -78.5q0 -32 -10 -81l-67 -349h-63l67 341q9 51 9 75q0 66 -56 66q-38 0 -67.5 -35.5t-39.5 -85.5l-70 -361h-63z" />
    <glyph glyph-name="Omacron" unicode="&#x14c;" horiz-adv-x="410" 
d="M193 753l10 51h206l-10 -51h-206zM279 709q64 0 97 -54t33 -154q0 -119 -38 -258t-103 -204q-48 -48 -104 -48q-64 0 -97 54t-33 154q0 119 38 258t103 204q48 48 104 48zM168 51q28 0 55 27q50 50 86 190t36 240q0 141 -70 141q-28 0 -55 -27q-50 -50 -86 -190t-36 -240
q0 -141 70 -141z" />
    <glyph glyph-name="omacron" unicode="&#x14d;" horiz-adv-x="366" 
d="M145 590l10 50h194l-10 -50h-194zM224 536q56 0 88.5 -47t32.5 -132q0 -89 -29 -181.5t-78 -140.5q-43 -44 -96 -44q-55 0 -88 47.5t-33 131.5q0 89 29.5 181.5t77.5 141.5q44 43 96 43zM146 48q26 0 50 25q37 36 62.5 125t25.5 166q0 55 -17 85t-47 30q-26 0 -50 -24
q-37 -37 -62 -125.5t-25 -165.5q0 -55 17 -85.5t46 -30.5z" />
    <glyph glyph-name="Obreve" unicode="&#x14e;" horiz-adv-x="410" 
d="M294 744q-43 0 -68 23t-21 65h46q1 -39 47 -39q43 0 60 39h46q-24 -88 -110 -88zM279 709q64 0 97 -54t33 -154q0 -119 -38 -258t-103 -204q-48 -48 -104 -48q-64 0 -97 54t-33 154q0 119 38 258t103 204q48 48 104 48zM168 51q28 0 55 27q50 50 86 190t36 240
q0 141 -70 141q-28 0 -55 -27q-50 -50 -86 -190t-36 -240q0 -141 70 -141z" />
    <glyph glyph-name="obreve" unicode="&#x14f;" horiz-adv-x="366" 
d="M224 536q56 0 88.5 -47t32.5 -132q0 -89 -29 -181.5t-78 -140.5q-43 -44 -96 -44q-55 0 -88 47.5t-33 131.5q0 89 29.5 181.5t77.5 141.5q44 43 96 43zM146 48q26 0 50 25q37 36 62.5 125t25.5 166q0 55 -17 85t-47 30q-26 0 -50 -24q-37 -37 -62 -125.5t-25 -165.5
q0 -55 17 -85.5t46 -30.5zM243 581q-42 0 -66.5 25.5t-19.5 75.5h44q-1 -26 11 -39.5t34 -13.5q44 0 64 53h46q-26 -101 -113 -101z" />
    <glyph glyph-name="Ohungarumlaut" unicode="&#x150;" horiz-adv-x="410" 
d="M279 709q64 0 97 -54t33 -154q0 -119 -38 -258t-103 -204q-48 -48 -104 -48q-64 0 -97 54t-33 154q0 119 38 258t103 204q48 48 104 48zM168 51q28 0 55 27q50 50 86 190t36 240q0 141 -70 141q-28 0 -55 -27q-50 -50 -86 -190t-36 -240q0 -141 70 -141zM210 744l90 110
l54 -31l-97 -79h-47zM309 744l90 110l55 -31l-97 -79h-48z" />
    <glyph glyph-name="ohungarumlaut" unicode="&#x151;" horiz-adv-x="366" 
d="M160 581l94 131l51 -32l-101 -99h-44zM259 581l95 131l50 -32l-101 -99h-44zM224 536q56 0 88.5 -47t32.5 -132q0 -89 -29 -181.5t-78 -140.5q-43 -44 -96 -44q-55 0 -88 47.5t-33 131.5q0 89 29.5 181.5t77.5 141.5q44 43 96 43zM146 48q26 0 50 25q37 36 62.5 125
t25.5 166q0 55 -17 85t-47 30q-26 0 -50 -24q-37 -37 -62 -125.5t-25 -165.5q0 -55 17 -85.5t46 -30.5z" />
    <glyph glyph-name="OE" unicode="&#x152;" horiz-adv-x="558" 
d="M226 0q-79 0 -126 47q-61 61 -61 192q0 92 32.5 208t99.5 183q70 70 177 70h265l-12 -60h-181l-49 -257h164l-12 -61h-164l-51 -262h184l-12 -60h-254zM149 89q29 -30 77 -30h17l112 582h-21q-66 0 -117 -51q-57 -56 -85 -163t-28 -185q0 -109 45 -153z" />
    <glyph glyph-name="oe" unicode="&#x153;" horiz-adv-x="595" 
d="M558 236h-228q-3 -28 -3 -52q0 -67 24.5 -100t68.5 -33q42 0 89 30l-5 -61q-41 -28 -91 -28q-105 0 -131 117q-26 -54 -62 -86t-78 -32q-55 0 -88 47.5t-33 131.5q0 89 29.5 181.5t77.5 140.5q44 44 97 44q84 0 106 -112q58 112 137 112q50 0 79.5 -41t29.5 -118
q0 -53 -19 -141zM146 48q26 0 50 25q37 36 62 125t25 165q0 116 -63 116q-26 0 -50 -24q-37 -37 -62 -126t-25 -165q0 -55 17 -85.5t46 -30.5zM414 456q-48 -48 -75 -168h169q10 47 10 93q0 98 -56 98q-25 0 -48 -23z" />
    <glyph glyph-name="Racute" unicode="&#x154;" horiz-adv-x="387" 
d="M246 0l-60 274q-26 -2 -39 -2h-30l-53 -272h-65l136 700h79q88 0 137 -47q47 -47 47 -127q0 -113 -73 -186q-33 -33 -76 -50l65 -290h-68zM128 330h21q83 0 128 46q55 53 55 150q0 53 -28 83q-32 31 -91 31h-24zM243 739l90 110l59 -31l-100 -79h-49z" />
    <glyph glyph-name="racute" unicode="&#x155;" horiz-adv-x="238" 
d="M161 576l94 131l56 -33l-104 -98h-46zM-4 0l103 528h62l-15 -76q52 87 129 82l-13 -71h-4q-109 0 -134 -129l-65 -334h-63z" />
    <glyph glyph-name="Rcommaaccent" unicode="&#x156;" horiz-adv-x="387" 
d="M246 0l-60 274q-26 -2 -39 -2h-30l-53 -272h-65l136 700h79q88 0 137 -47q47 -47 47 -127q0 -113 -73 -186q-33 -33 -76 -50l65 -290h-68zM128 330h21q83 0 128 46q55 53 55 150q0 53 -28 83q-32 31 -91 31h-24zM66 -196l-6 25q24 9 33.5 19.5t12.5 31.5h-29l13 67h65
l-13 -64q-7 -36 -24 -52.5t-52 -26.5z" />
    <glyph glyph-name="rcommaaccent" unicode="&#x157;" horiz-adv-x="238" 
d="M-37 -196l-6 25q24 9 33.5 19.5t12.5 31.5h-29l13 67h65l-13 -64q-7 -36 -24 -52.5t-52 -26.5zM-4 0l103 528h62l-15 -76q52 87 129 82l-13 -71h-4q-109 0 -134 -129l-65 -334h-63z" />
    <glyph glyph-name="Rcaron" unicode="&#x158;" horiz-adv-x="387" 
d="M246 0l-60 274q-26 -2 -39 -2h-30l-53 -272h-65l136 700h79q88 0 137 -47q47 -47 47 -127q0 -113 -73 -186q-33 -33 -76 -50l65 -290h-68zM128 330h21q83 0 128 46q55 53 55 150q0 53 -28 83q-32 31 -91 31h-24zM392 845l-92 -103h-55l-53 103h51l38 -55l58 55h53z" />
    <glyph glyph-name="rcaron" unicode="&#x159;" horiz-adv-x="238" 
d="M164 579l-46 127h46l34 -72l60 72h49l-94 -127h-49zM-4 0l103 528h62l-15 -76q52 87 129 82l-13 -71h-4q-109 0 -134 -129l-65 -334h-63z" />
    <glyph glyph-name="Sacute" unicode="&#x15a;" horiz-adv-x="326" 
d="M117 -7q-71 0 -130 53l14 71q58 -63 118 -63q43 0 69 31t26 80q0 58 -58 166q-40 76 -55.5 121t-15.5 87q0 75 48 123q45 45 111 45q63 0 115 -43l-13 -71q-55 53 -104 53q-42 0 -66.5 -30t-24.5 -73q0 -56 54 -160q40 -75 57 -122.5t17 -89.5q0 -83 -50 -133
q-45 -45 -112 -45zM222 744l90 110l59 -31l-100 -79h-49z" />
    <glyph glyph-name="sacute" unicode="&#x15b;" horiz-adv-x="278" 
d="M159 581l94 131l56 -33l-104 -98h-46zM96 -7q-62 0 -119 42l14 62q56 -46 104 -46q33 0 54 20.5t21 56.5q0 41 -54 118q-36 52 -50.5 85.5t-14.5 70.5q0 56 35 94.5t98 38.5q56 0 101 -33l-14 -61q-46 36 -87 36q-33 0 -52.5 -20t-19.5 -53q0 -42 53 -116q66 -93 66 -156
q0 -61 -36 -100t-99 -39z" />
    <glyph glyph-name="Scedilla" unicode="&#x15e;" horiz-adv-x="326" 
d="M78 -115l-58 26l67 85q-55 8 -100 50l14 71q58 -63 118 -63q43 0 69 31t26 80q0 58 -58 166q-40 76 -55.5 121t-15.5 87q0 75 48 123q45 45 111 45q63 0 115 -43l-13 -71q-55 53 -104 53q-42 0 -66.5 -30t-24.5 -73q0 -56 54 -160q40 -75 57 -122.5t17 -89.5
q0 -83 -50 -133q-38 -38 -93 -44z" />
    <glyph glyph-name="scedilla" unicode="&#x15f;" horiz-adv-x="278" 
d="M54 -115l-58 26l68 85q-46 7 -87 39l14 62q56 -46 104 -46q33 0 54 20.5t21 56.5q0 41 -54 118q-36 52 -50.5 85.5t-14.5 70.5q0 56 35 94.5t98 38.5q56 0 101 -33l-14 -61q-46 36 -87 36q-33 0 -52.5 -20t-19.5 -53q0 -42 53 -116q66 -93 66 -156q0 -57 -31.5 -95
t-87.5 -43z" />
    <glyph glyph-name="Scaron" unicode="&#x160;" horiz-adv-x="326" 
d="M117 -7q-71 0 -130 53l14 71q58 -63 118 -63q43 0 69 31t26 80q0 58 -58 166q-40 76 -55.5 121t-15.5 87q0 75 48 123q45 45 111 45q63 0 115 -43l-13 -71q-55 53 -104 53q-42 0 -66.5 -30t-24.5 -73q0 -56 54 -160q40 -75 57 -122.5t17 -89.5q0 -83 -50 -133
q-45 -45 -112 -45zM372 850l-92 -103h-55l-53 103h51l38 -55l58 55h53z" />
    <glyph glyph-name="scaron" unicode="&#x161;" horiz-adv-x="278" 
d="M163 584l-46 127h46l34 -72l60 72h49l-94 -127h-49zM96 -7q-62 0 -119 42l14 62q56 -46 104 -46q33 0 54 20.5t21 56.5q0 41 -54 118q-36 52 -50.5 85.5t-14.5 70.5q0 56 35 94.5t98 38.5q56 0 101 -33l-14 -61q-46 36 -87 36q-33 0 -52.5 -20t-19.5 -53q0 -42 53 -116
q66 -93 66 -156q0 -61 -36 -100t-99 -39z" />
    <glyph glyph-name="Tcommaaccent" unicode="&#x162;" horiz-adv-x="304" 
d="M35 -196l-6 25q24 9 33.5 19.5t12.5 31.5h-29l13 67h65l-13 -64q-7 -36 -24 -52.5t-52 -26.5zM68 0l124 640h-106l12 60h277l-11 -60h-107l-124 -640h-65z" />
    <glyph glyph-name="tcommaaccent" unicode="&#x163;" horiz-adv-x="230" 
d="M18 -196l-6 25q24 9 33.5 19.5t12.5 31.5h-29l13 67h65l-13 -64q-7 -36 -24 -52.5t-52 -26.5zM106 -5q-35 0 -56.5 18.5t-21.5 54.5q0 18 7 53l69 353h-46l11 54h45l28 145h63l-28 -145h79l-11 -54h-79l-69 -356q-5 -22 -5 -34q0 -32 37 -32q19 0 37 9l-10 -55
q-22 -11 -50 -11z" />
    <glyph glyph-name="Tcaron" unicode="&#x164;" horiz-adv-x="304" 
d="M362 845l-92 -103h-55l-53 103h51l38 -55l58 55h53zM68 0l124 640h-106l12 60h277l-11 -60h-107l-124 -640h-65z" />
    <glyph glyph-name="tcaron" unicode="&#x165;" horiz-adv-x="230" 
d="M221 559l36 147h50v-2l-57 -145h-29zM106 -5q-35 0 -56.5 18.5t-21.5 54.5q0 18 7 53l69 353h-46l11 54h45l28 145h63l-28 -145h79l-11 -54h-79l-69 -356q-5 -22 -5 -34q0 -32 37 -32q19 0 37 9l-10 -55q-22 -11 -50 -11z" />
    <glyph glyph-name="Umacron" unicode="&#x16a;" horiz-adv-x="409" 
d="M190 743l10 51h206l-10 -51h-206zM168 -9q-64 0 -102 37t-38 104q0 31 11 89l93 479h65l-95 -487q-9 -44 -9 -77q0 -41 22 -63t58 -22q37 0 62 25q32 32 48 109l99 515h65l-100 -517q-19 -102 -66 -147q-45 -45 -113 -45z" />
    <glyph glyph-name="umacron" unicode="&#x16b;" horiz-adv-x="374" 
d="M110 -9q-43 0 -67.5 28.5t-24.5 78.5q0 32 10 81l67 349h63l-67 -341q-9 -51 -9 -75q0 -66 56 -66q38 0 67.5 35t39.5 86l70 361h63l-103 -528h-62l14 73q-51 -82 -117 -82zM147 580l10 50h194l-10 -50h-194z" />
    <glyph glyph-name="Ubreve" unicode="&#x16c;" horiz-adv-x="409" 
d="M291 734q-43 0 -68 23t-21 65h46q1 -39 47 -39q43 0 60 39h46q-24 -88 -110 -88zM168 -9q-64 0 -102 37t-38 104q0 31 11 89l93 479h65l-95 -487q-9 -44 -9 -77q0 -41 22 -63t58 -22q37 0 62 25q32 32 48 109l99 515h65l-100 -517q-19 -102 -66 -147q-45 -45 -113 -45z
" />
    <glyph glyph-name="ubreve" unicode="&#x16d;" horiz-adv-x="374" 
d="M110 -9q-43 0 -67.5 28.5t-24.5 78.5q0 32 10 81l67 349h63l-67 -341q-9 -51 -9 -75q0 -66 56 -66q38 0 67.5 35t39.5 86l70 361h63l-103 -528h-62l14 73q-51 -82 -117 -82zM245 571q-42 0 -66.5 25.5t-19.5 75.5h44q-1 -26 11 -39.5t34 -13.5q44 0 64 53h46
q-26 -101 -113 -101z" />
    <glyph glyph-name="Uring" unicode="&#x16e;" horiz-adv-x="409" 
d="M168 -9q-64 0 -102 37t-38 104q0 31 11 89l93 479h65l-95 -487q-9 -44 -9 -77q0 -41 22 -63t58 -22q37 0 62 25q32 32 48 109l99 515h65l-100 -517q-19 -102 -66 -147q-45 -45 -113 -45zM310 879q33 0 54 -20t21 -50q0 -35 -25.5 -59t-62.5 -24q-33 0 -54 20t-21 50
q0 35 25.5 59t62.5 24zM299 757q22 0 36 14.5t14 34.5q0 18 -11 30t-30 12q-22 0 -36 -14.5t-14 -34.5q0 -18 11 -30t30 -12z" />
    <glyph glyph-name="uring" unicode="&#x16f;" horiz-adv-x="374" 
d="M339 660q0 -37 -25 -63.5t-63 -26.5q-33 0 -53.5 21t-20.5 53q0 36 25 63t63 27q32 0 53 -21.5t21 -52.5zM211 646q0 -19 11.5 -32t30.5 -13q23 0 37.5 16.5t14.5 39.5q0 20 -11 33t-31 13q-23 0 -37.5 -17t-14.5 -40zM110 -9q-43 0 -67.5 28.5t-24.5 78.5q0 32 10 81
l67 349h63l-67 -341q-9 -51 -9 -75q0 -66 56 -66q38 0 67.5 35t39.5 86l70 361h63l-103 -528h-62l14 73q-51 -82 -117 -82z" />
    <glyph glyph-name="Uhungarumlaut" unicode="&#x170;" horiz-adv-x="409" 
d="M168 -9q-64 0 -102 37t-38 104q0 31 11 89l93 479h65l-95 -487q-9 -44 -9 -77q0 -41 22 -63t58 -22q37 0 62 25q32 32 48 109l99 515h65l-100 -517q-19 -102 -66 -147q-45 -45 -113 -45zM207 734l90 110l54 -31l-97 -79h-47zM306 734l90 110l55 -31l-97 -79h-48z" />
    <glyph glyph-name="uhungarumlaut" unicode="&#x171;" horiz-adv-x="374" 
d="M110 -9q-43 0 -67.5 28.5t-24.5 78.5q0 32 10 81l67 349h63l-67 -341q-9 -51 -9 -75q0 -66 56 -66q38 0 67.5 35t39.5 86l70 361h63l-103 -528h-62l14 73q-51 -82 -117 -82zM161 571l94 131l51 -32l-101 -99h-44zM260 571l95 131l50 -32l-101 -99h-44z" />
    <glyph glyph-name="Uogonek" unicode="&#x172;" horiz-adv-x="409" 
d="M180 -85l-8 -42q-3 0 -7 -0.5t-5 -0.5q-75 0 -75 51q0 33 46 72q-48 9 -75.5 45t-27.5 92q0 31 11 89l93 479h65l-95 -487q-9 -44 -9 -77q0 -41 22 -63t58 -22q37 0 62 25q32 32 48 109l99 515h65l-100 -517q-19 -102 -66 -147q-43 -44 -108 -45q-33 -34 -33 -52
q0 -22 40 -24z" />
    <glyph glyph-name="uogonek" unicode="&#x173;" horiz-adv-x="374" 
d="M110 -9q-43 0 -67.5 28.5t-24.5 78.5q0 32 10 81l67 349h63l-67 -341q-9 -51 -9 -75q0 -66 56 -66q38 0 67.5 35t39.5 86l70 361h63l-103 -528h-9q-41 -44 -41 -61q0 -22 40 -24l-8 -42q-3 0 -7 -0.5t-5 -0.5q-75 0 -75 51q0 34 52 77h-9l14 73q-51 -82 -117 -82z" />
    <glyph glyph-name="Wcircumflex" unicode="&#x174;" horiz-adv-x="606" 
d="M88 -4l19 704h66l-25 -562l208 562h61l-10 -562l193 562h67l-253 -704h-65l11 558l-208 -558h-64zM291 742l93 103h55l52 -103h-50l-38 56l-59 -56h-53z" />
    <glyph glyph-name="wcircumflex" unicode="&#x175;" horiz-adv-x="528" 
d="M222 579l94 127h49l46 -127h-46l-34 72l-60 -72h-49zM76 -3l-1 531h62l-7 -415l157 415h53l-3 -415l153 415h63l-207 -531h-59l1 403l-154 -403h-58z" />
    <glyph glyph-name="Ycircumflex" unicode="&#x176;" horiz-adv-x="360" 
d="M96 0l58 295l-63 405h66l45 -321l168 321h69l-220 -405l-58 -295h-65zM162 737l93 103h55l52 -103h-50l-38 56l-59 -56h-53z" />
    <glyph glyph-name="ycircumflex" unicode="&#x177;" horiz-adv-x="347" 
d="M92 8l-22 520h63l9 -412l171 412h63l-284 -658h-60zM128 574l94 127h49l46 -127h-46l-34 72l-60 -72h-49z" />
    <glyph glyph-name="Ydieresis" unicode="&#x178;" horiz-adv-x="360" 
d="M96 0l58 295l-63 405h66l45 -321l168 321h69l-220 -405l-58 -295h-65zM175 742l14 75h66l-14 -75h-66zM291 742l15 75h65l-14 -75h-66z" />
    <glyph glyph-name="Zacute" unicode="&#x179;" horiz-adv-x="328" 
d="M-23 0l8 48l319 594h-201l11 58h273l-9 -47l-319 -594h211l-11 -59h-282zM217 739l90 110l59 -31l-100 -79h-49z" />
    <glyph glyph-name="zacute" unicode="&#x17a;" horiz-adv-x="280" 
d="M163 576l94 131l56 -33l-104 -98h-46zM-29 0l9 45l250 429h-168l10 54h237l-9 -45l-250 -429h173l-11 -54h-241z" />
    <glyph glyph-name="Zdotaccent" unicode="&#x17b;" horiz-adv-x="328" 
d="M217 747l15 75h67l-14 -75h-68zM-23 0l8 48l319 594h-201l11 58h273l-9 -47l-319 -594h211l-11 -59h-282z" />
    <glyph glyph-name="zdotaccent" unicode="&#x17c;" horiz-adv-x="280" 
d="M-29 0l9 45l250 429h-168l10 54h237l-9 -45l-250 -429h173l-11 -54h-241zM162 584l15 78h65l-15 -78h-65z" />
    <glyph glyph-name="Zcaron" unicode="&#x17d;" horiz-adv-x="328" 
d="M366 845l-92 -103h-55l-53 103h51l38 -55l58 55h53zM-23 0l8 48l319 594h-201l11 58h273l-9 -47l-319 -594h211l-11 -59h-282z" />
    <glyph glyph-name="zcaron" unicode="&#x17e;" horiz-adv-x="280" 
d="M167 579l-46 127h46l34 -72l60 72h49l-94 -127h-49zM-29 0l9 45l250 429h-168l10 54h237l-9 -45l-250 -429h173l-11 -54h-241z" />
    <glyph glyph-name="florin" unicode="&#x192;" horiz-adv-x="326" 
d="M15 -5q-31 0 -55 13l11 58q19 -12 39 -12q24 0 37 18t26 63l71 247h-53l10 52h57l46 157q33 114 122 114q37 0 69 -17l-12 -61q-29 17 -54 17q-22 0 -38.5 -16t-28.5 -61l-39 -133h94l-10 -52h-98l-79 -276q-33 -111 -115 -111z" />
    <glyph glyph-name="Aringacute" unicode="&#x1fa;" horiz-adv-x="407" 
d="M-30 0l270 670q-28 20 -28 57q0 35 25 59t62 24q34 0 55 -20t21 -50q0 -25 -14 -45.5t-37 -30.5l11 -664h-66l-1 181h-162l-72 -181h-64zM127 240h141l-2 353zM289 689q22 0 36 14t14 34q0 18 -11.5 30t-29.5 12q-23 0 -36.5 -14.5t-13.5 -34.5q0 -18 11 -29.5t30 -11.5z
M287 830l85 90l56 -29l-89 -61h-52z" />
    <glyph glyph-name="aringacute" unicode="&#x1fb;" horiz-adv-x="346" 
d="M241 768l89 103l54 -30l-95 -73h-48zM95 -9q-44 0 -70 32t-26 91q0 49 16.5 97.5t47.5 79.5q40 40 96 40q48 0 90 -26l4 21q9 49 9 72q0 77 -83 77q-43 0 -90 -20l12 60q44 19 92 19q62 0 96.5 -33.5t34.5 -93.5q0 -35 -11 -90l-62 -317h-62l13 66q-45 -75 -107 -75z
M120 44q37 0 64.5 34.5t37.5 86.5l17 89q-32 23 -76 23q-34 0 -58 -24q-22 -22 -33.5 -59.5t-11.5 -73.5q0 -76 60 -76zM326 666q0 -37 -25 -63.5t-63 -26.5q-33 0 -53.5 21t-20.5 53q0 36 25 63t63 27q32 0 53 -21.5t21 -52.5zM198 652q0 -19 11.5 -32t30.5 -13
q23 0 37.5 16.5t14.5 39.5q0 20 -11 33t-31 13q-23 0 -37.5 -17t-14.5 -40z" />
    <glyph glyph-name="AEacute" unicode="&#x1fc;" horiz-adv-x="522" 
d="M364 739l90 110l59 -31l-100 -79h-49zM-50 0l330 700h297l-12 -60h-181l-49 -257h164l-12 -61h-164l-51 -262h184l-12 -60h-249l35 181h-132l-84 -181h-64zM125 240h116l77 397h-9z" />
    <glyph glyph-name="aeacute" unicode="&#x1fd;" horiz-adv-x="557" 
d="M374 -8q-104 0 -129 115q-61 -116 -143 -116q-47 0 -75 33t-28 93q0 110 64 174q40 40 96 40q48 0 90 -26l4 21q9 49 9 72q0 77 -83 77q-43 0 -90 -20l12 60q44 19 93 19q97 0 115 -87q52 89 121 89q50 0 79 -41t29 -118q0 -51 -18 -141h-228q-3 -28 -3 -52
q0 -133 93 -133q42 0 89 30l-5 -61q-41 -28 -92 -28zM120 44q33 0 63.5 32.5t52.5 81.5q-2 49 6 94q-32 25 -78 25q-35 0 -59 -24q-45 -45 -45 -132q0 -38 16 -57.5t44 -19.5zM376 456q-48 -48 -75 -168h169q10 47 10 93q0 98 -56 98q-25 0 -48 -23zM292 576l94 131l56 -33
l-104 -98h-46z" />
    <glyph glyph-name="Oslashacute" unicode="&#x1fe;" horiz-adv-x="410" 
d="M279 709q65 0 99 -57l33 55h51l-64 -106q11 -46 11 -100q0 -119 -38 -258t-103 -204q-48 -48 -104 -48q-65 0 -99 56l-33 -54h-51l64 107q-11 44 -11 99q0 119 38 258t103 204q48 48 104 48zM98 192v-11l239 404q-16 65 -62 65q-27 0 -55 -27q-50 -50 -86 -190.5
t-36 -240.5zM168 50q26 0 55 27q50 50 86 190.5t36 240.5v9l-239 -404q16 -63 62 -63zM263 744l90 110l59 -31l-100 -79h-49z" />
    <glyph glyph-name="oslashacute" unicode="&#x1ff;" horiz-adv-x="366" 
d="M224 536q55 0 87 -46l31 43h48l-58 -85q13 -41 13 -91q0 -89 -29 -181.5t-78 -140.5q-43 -44 -96 -44q-56 0 -88 46l-29 -43h-49l58 85q-13 36 -13 91q0 89 29.5 181.5t77.5 141.5q44 43 96 43zM286 364q0 13 -1 20l-194 -292q17 -45 55 -45q27 0 51 24q38 38 63.5 127
t25.5 166zM221 480q-27 0 -51 -24q-38 -37 -64 -126t-26 -166v-20l195 291q-17 45 -54 45zM212 581l94 131l56 -33l-104 -98h-46z" />
    <glyph glyph-name="Scommaaccent" unicode="&#x218;" horiz-adv-x="326" 
d="M44 -196l-6 25q24 9 33.5 19.5t12.5 31.5h-29l13 67h65l-13 -64q-7 -36 -24 -52.5t-52 -26.5zM117 -7q-71 0 -130 53l14 71q58 -63 118 -63q43 0 69 31t26 80q0 58 -58 166q-40 76 -55.5 121t-15.5 87q0 75 48 123q45 45 111 45q63 0 115 -43l-13 -71q-55 53 -104 53
q-42 0 -66.5 -30t-24.5 -73q0 -56 54 -160q40 -75 57 -122.5t17 -89.5q0 -83 -50 -133q-45 -45 -112 -45z" />
    <glyph glyph-name="scommaaccent" unicode="&#x219;" horiz-adv-x="278" 
d="M11 -196l-6 25q24 9 33.5 19.5t12.5 31.5h-29l13 67h65l-13 -64q-7 -36 -24 -52.5t-52 -26.5zM96 -7q-62 0 -119 42l14 62q56 -46 104 -46q33 0 54 20.5t21 56.5q0 41 -54 118q-36 52 -50.5 85.5t-14.5 70.5q0 56 35 94.5t98 38.5q56 0 101 -33l-14 -61q-46 36 -87 36
q-33 0 -52.5 -20t-19.5 -53q0 -42 53 -116q66 -93 66 -156q0 -61 -36 -100t-99 -39z" />
    <glyph glyph-name="schwa" unicode="&#x259;" horiz-adv-x="349" 
d="M18 151q0 51 18 141h228q4 24 4 52q0 133 -94 133q-40 0 -89 -30l6 61q39 28 91 28q66 0 106 -48t40 -144q0 -81 -29 -169.5t-78 -138.5q-44 -44 -95 -44q-50 0 -79 41t-29 118zM180 72q50 50 75 168h-169q-10 -47 -10 -93q0 -98 57 -98q24 0 47 23z" />
    <glyph glyph-name="circumflex" unicode="&#x2c6;" horiz-adv-x="500" 
d="M216 579l94 127h49l46 -127h-46l-34 72l-60 -72h-49z" />
    <glyph glyph-name="caron" unicode="&#x2c7;" horiz-adv-x="500" 
d="M286 579l-46 127h46l34 -72l60 72h49l-94 -127h-49z" />
    <glyph glyph-name="breve" unicode="&#x2d8;" horiz-adv-x="500" 
d="M317 576q-42 0 -66.5 25.5t-19.5 75.5h44q-1 -26 11 -39.5t34 -13.5q44 0 64 53h46q-26 -101 -113 -101z" />
    <glyph glyph-name="dotaccent" unicode="&#x2d9;" horiz-adv-x="500" 
d="M279 584l15 78h65l-15 -78h-65z" />
    <glyph glyph-name="ring" unicode="&#x2da;" horiz-adv-x="500" 
d="M406 665q0 -37 -25 -63.5t-63 -26.5q-33 0 -53.5 21t-20.5 53q0 36 25 63t63 27q32 0 53 -21.5t21 -52.5zM278 651q0 -19 11.5 -32t30.5 -13q23 0 37.5 16.5t14.5 39.5q0 20 -11 33t-31 13q-23 0 -37.5 -17t-14.5 -40z" />
    <glyph glyph-name="ogonek" unicode="&#x2db;" horiz-adv-x="500" 
d="M229 -85l-8 -42q-3 0 -7 -0.5t-5 -0.5q-75 0 -75 51q0 35 60 83h42q-27 -29 -37 -42t-10 -25q0 -22 40 -24z" />
    <glyph glyph-name="tilde" unicode="&#x2dc;" horiz-adv-x="500" 
d="M394 671l39 -11q-15 -43 -32 -63t-40 -20q-22 0 -48 24q-22 21 -33 21q-18 0 -35 -44l-39 11q16 44 32.5 63.5t39.5 19.5q22 0 47 -23q22 -22 33 -22q18 0 36 44z" />
    <glyph glyph-name="hungarumlaut" unicode="&#x2dd;" horiz-adv-x="500" 
d="M194 576l94 131l51 -32l-101 -99h-44zM293 576l95 131l50 -32l-101 -99h-44z" />
    <glyph glyph-name="commaaccent" unicode="&#x326;" horiz-adv-x="500" 
d="M135 -196l-6 25q24 9 33.5 19.5t12.5 31.5h-29l13 67h65l-13 -64q-7 -36 -24 -52.5t-52 -26.5z" />
    <glyph glyph-name="baht" unicode="&#xe3f;" horiz-adv-x="378" 
d="M-1 0l136 700h77q33 0 63 -8l28 91h50l-33 -109q70 -41 70 -129q0 -44 -15.5 -80t-41 -58t-51 -35t-51.5 -19q48 -17 75 -53t27 -86q0 -95 -59 -148t-150 -64l-37 -123h-50l37 121h-75zM268 215q0 69 -56 96l-71 -247q60 11 93.5 49.5t33.5 101.5zM138 382h9q21 0 41 3
l71 249q-19 6 -43 6h-28zM75 60h14h5l75 262q-16 2 -23 2h-20zM325 539q0 43 -26 71l-61 -211q87 40 87 140z" />
    <glyph glyph-name="Wgrave" unicode="&#x1e80;" horiz-adv-x="606" 
d="M370 739l-85 79l58 31l74 -110h-47zM88 -4l19 704h66l-25 -562l208 562h61l-10 -562l193 562h67l-253 -704h-65l11 558l-208 -558h-64z" />
    <glyph glyph-name="wgrave" unicode="&#x1e81;" horiz-adv-x="528" 
d="M76 -3l-1 531h62l-7 -415l157 415h53l-3 -415l153 415h63l-207 -531h-59l1 403l-154 -403h-58zM292 576l-85 98l55 33l73 -131h-43z" />
    <glyph glyph-name="Wacute" unicode="&#x1e82;" horiz-adv-x="606" 
d="M360 739l90 110l59 -31l-100 -79h-49zM88 -4l19 704h66l-25 -562l208 562h61l-10 -562l193 562h67l-253 -704h-65l11 558l-208 -558h-64z" />
    <glyph glyph-name="wacute" unicode="&#x1e83;" horiz-adv-x="528" 
d="M290 576l94 131l56 -33l-104 -98h-46zM76 -3l-1 531h62l-7 -415l157 415h53l-3 -415l153 415h63l-207 -531h-59l1 403l-154 -403h-58z" />
    <glyph glyph-name="Wdieresis" unicode="&#x1e84;" horiz-adv-x="606" 
d="M303 747l14 75h66l-14 -75h-66zM419 747l15 75h65l-14 -75h-66zM88 -4l19 704h66l-25 -562l208 562h61l-10 -562l193 562h67l-253 -704h-65l11 558l-208 -558h-64z" />
    <glyph glyph-name="wdieresis" unicode="&#x1e85;" horiz-adv-x="528" 
d="M235 584l15 78h62l-15 -78h-62zM346 584l15 78h62l-15 -78h-62zM76 -3l-1 531h62l-7 -415l157 415h53l-3 -415l153 415h63l-207 -531h-59l1 403l-154 -403h-58z" />
    <glyph glyph-name="Ygrave" unicode="&#x1ef2;" horiz-adv-x="360" 
d="M96 0l58 295l-63 405h66l45 -321l168 321h69l-220 -405l-58 -295h-65zM242 734l-85 79l58 31l74 -110h-47z" />
    <glyph glyph-name="ygrave" unicode="&#x1ef3;" horiz-adv-x="347" 
d="M92 8l-22 520h63l9 -412l171 412h63l-284 -658h-60zM197 571l-85 98l55 33l73 -131h-43z" />
    <glyph glyph-name="enspace" unicode="&#x2002;" horiz-adv-x="500" 
 />
    <glyph glyph-name="emspace" unicode="&#x2003;" horiz-adv-x="1000" 
 />
    <glyph glyph-name="threeperemspace" unicode="&#x2004;" horiz-adv-x="333" 
 />
    <glyph glyph-name="fourperemspace" unicode="&#x2005;" horiz-adv-x="250" 
 />
    <glyph glyph-name="figurespace" unicode="&#x2007;" horiz-adv-x="360" 
 />
    <glyph glyph-name="thinspace" unicode="&#x2009;" horiz-adv-x="133" 
 />
    <glyph glyph-name="hairspace" unicode="&#x200a;" horiz-adv-x="75" 
 />
    <glyph glyph-name="endash" unicode="&#x2013;" horiz-adv-x="414" 
d="M41 269l11 61h335l-12 -61h-334z" />
    <glyph glyph-name="emdash" unicode="&#x2014;" horiz-adv-x="604" 
d="M41 269l11 61h525l-11 -61h-525z" />
    <glyph glyph-name="quoteleft" unicode="&#x2018;" horiz-adv-x="170" 
d="M85 486l17 87q11 58 37 86.5t79 41.5l8 -32q-41 -13 -56.5 -33t-19.5 -53h36l-19 -97h-82z" />
    <glyph glyph-name="quoteright" unicode="&#x2019;" horiz-adv-x="170" 
d="M80 485l-8 32q41 13 56.5 33t19.5 53h-36l19 97h82l-17 -87q-11 -59 -36.5 -87t-79.5 -41z" />
    <glyph glyph-name="quotesinglbase" unicode="&#x201a;" horiz-adv-x="177" 
d="M-34 -117l-8 32q41 13 56.5 32.5t19.5 52.5h-36l19 97h82l-17 -87q-11 -58 -37 -86.5t-79 -40.5z" />
    <glyph glyph-name="quotedblleft" unicode="&#x201c;" horiz-adv-x="316" 
d="M85 486l17 87q11 58 37 86.5t79 41.5l8 -32q-41 -13 -56.5 -33t-19.5 -53h36l-19 -97h-82zM231 486l17 87q11 58 37 86.5t79 41.5l8 -32q-41 -13 -56.5 -33t-19.5 -53h37l-19 -97h-83z" />
    <glyph glyph-name="quotedblright" unicode="&#x201d;" horiz-adv-x="316" 
d="M80 485l-8 32q41 13 56.5 33t19.5 53h-36l19 97h82l-17 -87q-11 -59 -36.5 -87t-79.5 -41zM226 485l-8 32q41 13 57 33t19 53h-36l19 97h82l-17 -87q-10 -58 -36 -86.5t-80 -41.5z" />
    <glyph glyph-name="quotedblbase" unicode="&#x201e;" horiz-adv-x="326" 
d="M-34 -117l-8 32q41 13 56.5 32.5t19.5 52.5h-36l19 97h82l-17 -87q-11 -58 -37 -86.5t-79 -40.5zM112 -117l-8 32q41 13 56.5 32.5t19.5 52.5h-36l19 97h82l-17 -87q-11 -58 -37 -86.5t-79 -40.5z" />
    <glyph glyph-name="dagger" unicode="&#x2020;" horiz-adv-x="233" 
d="M85 238l65 285l-84 -10l10 53l80 -10l16 144h58l-40 -144l83 10l-10 -53l-79 10l-46 -285h-53z" />
    <glyph glyph-name="daggerdbl" unicode="&#x2021;" horiz-adv-x="255" 
d="M46 0l41 144l-83 -10l11 53l79 -10l23 173l44 173l-84 -10l11 53l79 -10l17 144h58l-40 -144l83 10l-11 -53l-79 10l-22 -173l-45 -173l83 10l-11 -53l-79 10l-17 -144h-58z" />
    <glyph glyph-name="bullet" unicode="&#x2022;" horiz-adv-x="322" 
d="M194 475q35 0 56 -23.5t21 -64.5q0 -40 -14 -77t-37 -56q-25 -21 -58 -21q-35 0 -56 23.5t-21 64.5q0 40 14 77t38 56q24 21 57 21z" />
    <glyph glyph-name="ellipsis" unicode="&#x2026;" horiz-adv-x="541" 
d="M-6 0l19 100h84l-19 -100h-84zM177 0l20 100h84l-20 -100h-84zM361 0l20 100h84l-20 -100h-84z" />
    <glyph glyph-name="perthousand" unicode="&#x2030;" horiz-adv-x="773" 
d="M159 362q-40 0 -64 31.5t-24 89.5q0 56 18 109t48 83t66 30q40 0 64 -31.5t24 -89.5q0 -56 -18 -108.5t-48 -83.5q-30 -30 -66 -30zM603 -5q-39 0 -63 31.5t-24 89.5q0 56 17.5 108.5t48.5 83.5q30 30 66 30q39 0 63 -31.5t24 -89.5q0 -56 -17.5 -109t-47.5 -83
q-32 -30 -67 -30zM349 -5q-39 0 -63 31.5t-24 89.5q0 56 17.5 108.5t47.5 83.5q32 30 67 30q39 0 63 -31.5t24 -89.5q0 -56 -18 -109t-48 -83t-66 -30zM26 0l226 350l227 350h48l-454 -700h-47zM162 411q19 0 33 16q20 20 34 68.5t14 86.5q0 74 -43 74q-18 0 -33 -15
q-20 -20 -33.5 -68.5t-13.5 -87.5q0 -74 42 -74zM352 44q18 0 33 15q20 20 34 68.5t14 87.5q0 74 -43 74q-17 0 -33 -16q-20 -20 -33.5 -68.5t-13.5 -86.5q0 -74 42 -74zM607 44q16 0 33 15q20 20 33.5 68.5t13.5 87.5q0 74 -42 74q-19 0 -33 -16q-20 -20 -34 -68.5
t-14 -86.5q0 -74 43 -74z" />
    <glyph glyph-name="guilsinglleft" unicode="&#x2039;" horiz-adv-x="232" 
d="M114 43l-86 212l1 8l169 211l38 -30l-142 -190l68 -192z" />
    <glyph glyph-name="guilsinglright" unicode="&#x203a;" horiz-adv-x="232" 
d="M115 474l86 -212l-1 -8l-169 -211l-38 30l142 190l-68 192z" />
    <glyph glyph-name="fraction" unicode="&#x2044;" horiz-adv-x="60" 
d="M-201 0l216 360l202 341h44l-217 -360l-202 -341h-43z" />
    <glyph glyph-name="zero.sup" unicode="&#x2070;" 
d="M299 708q0 -51 -16 -119.5t-50 -102.5q-26 -26 -61 -26q-41 0 -62 28.5t-21 78.5q0 51 16 119.5t50 102.5q28 26 62 26q82 0 82 -107zM135 564q0 -62 38 -62q15 0 28 13q25 25 38.5 89.5t13.5 107.5q0 61 -38 61q-16 0 -27 -13q-25 -24 -39 -89t-14 -107z" />
    <glyph glyph-name="four.sup" unicode="&#x2074;" 
d="M187 464l14 70h-130l7 37l157 242h61l-46 -240h33l-8 -39h-33l-13 -70h-42zM123 573h86l35 179h-7z" />
    <glyph glyph-name="five.sup" unicode="&#x2075;" 
d="M159 460q-48 0 -84 30l9 48q41 -36 74 -36t49.5 25.5t16.5 57.5q0 53 -50 53q-15 0 -40 -9l-29 16l45 166h151l-9 -43h-112l-26 -93q20 5 34 5q36 0 60 -23.5t24 -69.5q0 -51 -30 -89t-83 -38z" />
    <glyph glyph-name="six.sup" unicode="&#x2076;" 
d="M174 460q-36 0 -60 25.5t-24 78.5q0 47 18.5 117t53.5 105q30 29 72 29q34 0 64 -19l-11 -47q-27 23 -55 23q-23 0 -37 -15q-28 -26 -42 -86q23 16 52 16q31 0 53.5 -21t22.5 -64q0 -58 -30 -100t-77 -42zM176 502q26 0 42.5 29t16.5 66q0 49 -44 49q-25 0 -47 -17
l-3 -12q-6 -30 -6 -58q0 -57 41 -57z" />
    <glyph glyph-name="seven.sup" unicode="&#x2077;" 
d="M87 464l169 303h-132l9 44h181l-7 -36l-170 -311h-50z" />
    <glyph glyph-name="eight.sup" unicode="&#x2078;" 
d="M169 460q-40 0 -65.5 23.5t-25.5 63.5q0 37 19.5 65t50.5 38q-30 25 -30 65q0 45 27.5 72.5t67.5 27.5q38 0 62 -23t24 -61q0 -31 -17 -55.5t-44 -36.5q36 -26 36 -72q0 -45 -29.5 -76t-75.5 -31zM172 498q25 0 41.5 20.5t16.5 52.5q0 23 -12.5 38t-36.5 15
q-25 0 -42 -22t-17 -52q0 -23 13 -37.5t37 -14.5zM204 664q21 0 36 19t15 47q0 21 -11.5 34t-31.5 13q-22 0 -36.5 -18t-14.5 -46q0 -22 11.5 -35.5t31.5 -13.5z" />
    <glyph glyph-name="nine.sup" unicode="&#x2079;" 
d="M151 460q-36 0 -71 22l11 46q33 -25 61 -25q23 0 38 15q27 27 41 81q-26 -15 -54 -15q-30 0 -52 21t-22 66q0 59 30 101.5t77 42.5q37 0 61 -25.5t24 -78.5q0 -46 -19 -116t-54 -106q-29 -29 -71 -29zM192 625q26 0 48 17l3 16q7 35 7 58q0 29 -12 43t-29 14
q-27 0 -43.5 -29.5t-16.5 -67.5q0 -51 43 -51z" />
    <glyph glyph-name="zero.inf" unicode="&#x2080;" 
d="M180 112q0 -51 -16 -119.5t-50 -102.5q-26 -26 -61 -26q-41 0 -62 28.5t-21 78.5q0 51 16 119.5t50 102.5q28 26 62 26q82 0 82 -107zM16 -32q0 -62 38 -62q15 0 28 13q25 25 38.5 89.5t13.5 107.5q0 61 -38 61q-16 0 -27 -13q-25 -24 -39 -89t-14 -107z" />
    <glyph glyph-name="one.inf" unicode="&#x2081;" horiz-adv-x="195" 
d="M8 -132l57 293l-69 -34l9 49l79 40h38l-68 -348h-46z" />
    <glyph glyph-name="two.inf" unicode="&#x2082;" 
d="M-50 -132l8 34l120 133q52 58 52 94q0 22 -13 33.5t-34 11.5q-34 0 -79 -36l8 52q35 28 78 28q39 0 63.5 -23t24.5 -60q0 -52 -61 -119l-95 -104h123l-9 -44h-186z" />
    <glyph glyph-name="three.inf" unicode="&#x2083;" 
d="M47 -136q-52 0 -88 33l10 47q34 -38 76 -38q29 0 46 19t17 46q0 57 -85 62h-1l5 30l104 109h-118l9 44h178l-7 -35l-115 -118q77 -22 77 -90q0 -48 -30.5 -78.5t-77.5 -30.5z" />
    <glyph glyph-name="four.inf" unicode="&#x2084;" 
d="M73 -132l14 70h-130l7 37l157 242h61l-46 -240h33l-8 -39h-33l-13 -70h-42zM9 -23h86l35 179h-7z" />
    <glyph glyph-name="five.inf" unicode="&#x2085;" 
d="M45 -136q-48 0 -84 30l9 48q41 -36 74 -36t49.5 25.5t16.5 57.5q0 53 -50 53q-15 0 -40 -9l-29 16l45 166h151l-9 -43h-112l-26 -93q20 5 34 5q36 0 60 -23.5t24 -69.5q0 -51 -30 -89t-83 -38z" />
    <glyph glyph-name="six.inf" unicode="&#x2086;" 
d="M61 -136q-36 0 -60 25.5t-24 78.5q0 47 18.5 117t53.5 105q30 29 72 29q34 0 64 -19l-11 -47q-27 23 -55 23q-23 0 -37 -15q-28 -26 -42 -86q23 16 52 16q31 0 53.5 -21t22.5 -64q0 -58 -30 -100t-77 -42zM63 -94q26 0 42.5 29t16.5 66q0 49 -44 49q-25 0 -47 -17l-3 -12
q-6 -30 -6 -58q0 -57 41 -57z" />
    <glyph glyph-name="seven.inf" unicode="&#x2087;" 
d="M-27 -132l169 303h-132l9 44h181l-7 -36l-170 -311h-50z" />
    <glyph glyph-name="eight.inf" unicode="&#x2088;" 
d="M55 -136q-40 0 -65.5 23.5t-25.5 63.5q0 37 19.5 65t50.5 38q-30 25 -30 65q0 45 27.5 72.5t67.5 27.5q38 0 62 -23t24 -61q0 -31 -17 -55.5t-44 -36.5q36 -25 36 -72q0 -45 -29.5 -76t-75.5 -31zM58 -98q25 0 41.5 20.5t16.5 52.5q0 23 -12.5 38t-36.5 15q-25 0 -42 -22
t-17 -52q0 -23 13 -37.5t37 -14.5zM90 68q21 0 36 19t15 47q0 21 -11.5 34t-31.5 13q-22 0 -36.5 -18t-14.5 -46q0 -22 11.5 -35.5t31.5 -13.5z" />
    <glyph glyph-name="nine.inf" unicode="&#x2089;" 
d="M36 -136q-36 0 -71 22l11 46q33 -25 61 -25q23 0 38 15q27 27 41 81q-26 -15 -54 -15q-30 0 -52 21t-22 66q0 59 30 101.5t77 42.5q37 0 61 -25.5t24 -78.5q0 -46 -19 -116t-54 -106q-29 -29 -71 -29zM77 29q26 0 48 17l3 16q7 35 7 58q0 29 -12 43t-29 14
q-27 0 -43.5 -29.5t-16.5 -67.5q0 -51 43 -51z" />
    <glyph glyph-name="colonmonetary" unicode="&#x20a1;" horiz-adv-x="352" 
d="M375 779h38l-27 -90q12 -7 24 -17l-14 -70q-18 18 -32 27l-170 -570q12 -2 18 -2q37 0 86 33l-13 -68q-37 -28 -84 -28q-9 0 -23 2l-35 -114h-38l38 124q-24 11 -44 32l-48 -156h-37l59 195q-28 56 -28 147q0 111 36.5 233t105.5 191q33 33 71 47l25 84h38l-22 -74
q6 1 16 1q15 0 37 -5zM124 128q16 -40 42 -58l170 570q-10 3 -22 3q-21 0 -40 -8zM108 232q0 -17 2 -45l126 422l-5 -4q-53 -53 -88 -165t-35 -208z" />
    <glyph glyph-name="naira" unicode="&#x20a6;" horiz-adv-x="494" 
d="M472 229h-72l-45 -229h-73l-27 229h-114l-45 -229h-61l44 229h-70l9 53h72l27 140h-72l10 53h72l44 225h77l26 -225h112l45 225h61l-44 -225h72l-11 -53h-72l-27 -140h72zM210 582l-59 -300h95zM284 422l35 -291l57 291h-92z" />
    <glyph glyph-name="rupee" unicode="&#x20a8;" horiz-adv-x="597" 
d="M491 128q0 40 -51 119q-61 94 -61 154q0 57 34 95.5t95 38.5q52 0 96 -32l-13 -58q-41 34 -83 34q-33 0 -51.5 -20.5t-18.5 -55.5q0 -39 49 -116q63 -96 63 -155q0 -60 -35.5 -99.5t-97.5 -39.5q-58 0 -112 40l13 59q52 -44 100 -44q32 0 52.5 21t20.5 59zM206 0l-51 271
q-18 -3 -52 -3l-52 -268h-61l136 700h48q92 0 139 -48.5t47 -127.5q0 -78 -37.5 -143.5t-108.5 -93.5l55 -287h-63zM114 323h14q85 0 127 60t42 141q0 58 -30.5 88.5t-81.5 30.5h-8z" />
    <glyph glyph-name="won" unicode="&#x20a9;" horiz-adv-x="637" 
d="M625 228h-115l-75 -231h-73l7 231h-117l-82 -231h-73l14 231h-112l10 53h106l9 142h-88l10 53h81l14 224h64l-19 -224h101l79 224h72l-9 -224h100l70 224h66l-74 -224h82l-10 -53h-89l-46 -141h107zM379 587l-107 -306h98l12 306h-3zM157 109h2l109 314h-87zM418 109h2
l94 314h-86z" />
    <glyph glyph-name="sheqel" unicode="&#x20aa;" horiz-adv-x="412" 
d="M-9 0l99 517h91q113 0 113 -109q0 -30 -7 -64l-31 -161h-46l28 144q7 35 7 62q0 42 -17.5 55t-51.5 13h-46l-89 -457h-50zM233 0q-60 0 -87 33.5t-18 116.5l20 192h42l-17 -173q-7 -63 8.5 -86t57.5 -23h41l89 457h51l-101 -517h-86z" />
    <glyph glyph-name="Euro" unicode="&#x20ac;" horiz-adv-x="364" 
d="M41 409l9 50h53q39 126 104 191q56 57 124 57q47 0 82 -22l-13 -70q-33 30 -70 30q-40 0 -77 -36q-50 -50 -83 -151h150l-9 -49h-154q-15 -61 -19 -113h150l-9 -50h-145v-15q0 -175 95 -175q32 0 69 22l-13 -67q-31 -18 -68 -18q-70 0 -109 58.5t-39 171.5v23h-59l9 50
h53q6 57 18 113h-49z" />
    <glyph glyph-name="peso" unicode="&#x20b1;" horiz-adv-x="449" 
d="M475 445h-67q-15 -80 -70 -136q-66 -66 -176 -66h-26l-48 -243h-64l86 445h-71l10 54h72l39 201h64q92 0 141 -51q50 -50 50 -140v-10h71zM148 302h21q77 0 124 47q36 37 50 97h-168zM213 640l-28 -142h165v8q0 68 -34 102q-32 32 -91 32h-12z" />
    <glyph glyph-name="published" unicode="&#x2117;" horiz-adv-x="523" 
d="M244 549h38q54 0 83 -27t29 -79q0 -64 -39 -105.5t-105 -41.5h-11l-27 -132h-43zM350 441q2 66 -62 66h-9l-33 -169h14q43 0 66 28t24 75zM320 711q98 0 152.5 -74.5t54.5 -193.5q0 -105 -33.5 -211t-99.5 -172q-68 -70 -161 -70q-98 0 -152 74.5t-54 193.5q0 105 33 211
t99 172q72 70 161 70zM236 18q77 0 137 60q63 63 93.5 166t31.5 200q1 105 -46 172t-134 67q-77 0 -138 -61q-62 -62 -92.5 -165t-31.5 -200q-1 -105 46 -172t134 -67z" />
    <glyph glyph-name="servicemark" unicode="&#x2120;" horiz-adv-x="422" 
d="M123 382q-37 0 -64 25l8 42q26 -29 54 -29q18 0 29 12t11 33q0 23 -27 67q-36 53 -36 90t23 60q21 21 53 21q33 0 58 -20l-8 -42q-26 24 -48 24q-16 0 -26 -11.5t-10 -29.5q0 -24 28 -68q34 -55 34 -89q0 -39 -23 -62t-56 -23zM225 385l61 315h46l18 -141l72 141h47
l-61 -315h-38l46 239l-82 -159h-3l-20 159l-47 -239h-39z" />
    <glyph glyph-name="trademark" unicode="&#x2122;" horiz-adv-x="400" 
d="M77 385l53 277h-47l8 38h134l-7 -38h-48l-53 -277h-40zM203 385l61 315h46l17 -141l72 141h48l-61 -315h-39l47 239l-82 -159h-4l-20 159l-46 -239h-39z" />
    <glyph glyph-name="onethird" unicode="&#x2153;" horiz-adv-x="495" 
d="M319 -4q-52 0 -88 33l10 47q34 -38 76 -38q29 0 46 19t17 46q0 57 -85 62h-1l5 30l104 109h-118l9 44h178l-7 -35l-115 -118q77 -22 77 -90q0 -48 -30.5 -78.5t-77.5 -30.5zM87 353l57 293l-69 -34l9 49l79 40h38l-68 -348h-46zM-18 0l216 360l202 341h44l-217 -360
l-202 -341h-43z" />
    <glyph glyph-name="twothirds" unicode="&#x2154;" horiz-adv-x="540" 
d="M370 -4q-52 0 -88 33l10 47q34 -38 76 -38q29 0 46 19t17 46q0 57 -85 62h-1l5 30l104 109h-118l9 44h178l-7 -35l-115 -118q77 -22 77 -90q0 -48 -30.5 -78.5t-77.5 -30.5zM24 353l8 34l120 133q52 58 52 94q0 22 -13 33.5t-34 11.5q-34 0 -79 -36l8 51q34 29 78 29
q39 0 63.5 -23t24.5 -60q0 -52 -61 -119l-95 -104h123l-9 -44h-186zM40 0l216 360l202 341h44l-217 -360l-202 -341h-43z" />
    <glyph glyph-name="onefifth" unicode="&#x2155;" horiz-adv-x="495" 
d="M307 -4q-48 0 -84 30l9 48q41 -36 74 -36t49.5 25.5t16.5 57.5q0 53 -50 53q-15 0 -40 -9l-29 16l45 166h151l-9 -43h-112l-26 -93q20 5 34 5q36 0 60 -23.5t24 -69.5q0 -51 -30 -89t-83 -38zM88 353l57 293l-69 -34l9 49l79 40h38l-68 -348h-46zM-18 0l216 360l202 341
h44l-217 -360l-202 -341h-43z" />
    <glyph glyph-name="twofifths" unicode="&#x2156;" horiz-adv-x="540" 
d="M24 353l8 34l120 133q52 58 52 94q0 22 -13 33.5t-34 11.5q-34 0 -79 -36l8 51q34 29 78 29q39 0 63.5 -23t24.5 -60q0 -52 -61 -119l-95 -104h123l-9 -44h-186zM45 0l216 360l202 341h44l-217 -360l-202 -341h-43zM370 -4q-48 0 -84 30l9 48q41 -36 74 -36t49.5 25.5
t16.5 57.5q0 53 -50 53q-15 0 -40 -9l-29 16l45 166h151l-9 -43h-112l-26 -93q20 5 34 5q36 0 60 -23.5t24 -69.5q0 -51 -30 -89t-83 -38z" />
    <glyph glyph-name="threefifths" unicode="&#x2157;" horiz-adv-x="540" 
d="M370 -4q-48 0 -84 30l9 48q41 -36 74 -36t49.5 25.5t16.5 57.5q0 53 -50 53q-15 0 -40 -9l-29 16l45 166h151l-9 -43h-112l-26 -93q20 5 34 5q36 0 60 -23.5t24 -69.5q0 -51 -30 -89t-83 -38zM37 0l216 360l202 341h44l-217 -360l-202 -341h-43zM119 349q-51 0 -88 32
l10 48q34 -38 76 -38q29 0 46 19t17 46q0 57 -85 62h-1l5 30l104 109h-118l9 44h178l-7 -35l-115 -118q77 -22 77 -90q0 -48 -30.5 -78.5t-77.5 -30.5z" />
    <glyph glyph-name="fourfifths" unicode="&#x2158;" horiz-adv-x="540" 
d="M141 353l14 70h-130l7 37l157 242h61l-46 -240h33l-8 -39h-33l-13 -70h-42zM77 462h86l35 179h-7zM370 -4q-48 0 -84 30l9 48q41 -36 74 -36t49.5 25.5t16.5 57.5q0 53 -50 53q-15 0 -40 -9l-29 16l45 166h151l-9 -43h-112l-26 -93q20 5 34 5q36 0 60 -23.5t24 -69.5
q0 -51 -30 -89t-83 -38zM39 0l216 360l202 341h44l-217 -360l-202 -341h-43z" />
    <glyph glyph-name="onesixth" unicode="&#x2159;" horiz-adv-x="495" 
d="M311 -4q-36 0 -60 25.5t-24 78.5q0 47 18.5 117t53.5 105q30 29 72 29q34 0 64 -19l-11 -47q-27 23 -55 23q-23 0 -37 -15q-28 -26 -42 -86q23 16 52 16q31 0 53.5 -21t22.5 -64q0 -58 -30 -100t-77 -42zM313 38q26 0 42.5 29t16.5 66q0 49 -44 49q-25 0 -47 -17l-3 -12
q-6 -30 -6 -58q0 -57 41 -57zM88 353l57 293l-69 -34l9 49l79 40h38l-68 -348h-46zM-12 0l216 360l202 341h44l-217 -360l-202 -341h-43z" />
    <glyph glyph-name="fivesixths" unicode="&#x215a;" horiz-adv-x="540" 
d="M371 -4q-36 0 -60 25.5t-24 78.5q0 47 18.5 117t53.5 105q30 29 72 29q34 0 64 -19l-11 -47q-27 23 -55 23q-23 0 -37 -15q-28 -26 -42 -86q23 16 52 16q31 0 53.5 -21t22.5 -64q0 -58 -30 -100t-77 -42zM373 38q26 0 42.5 29t16.5 66q0 49 -44 49q-25 0 -47 -17l-3 -12
q-6 -30 -6 -58q0 -57 41 -57zM120 349q-48 0 -84 30l9 48q41 -36 74 -36t49.5 25.5t16.5 57.5q0 53 -50 53q-15 0 -40 -9l-29 15l45 167h151l-9 -43h-112l-26 -93q20 5 34 5q36 0 60 -23.5t24 -69.5q0 -51 -30 -89t-83 -38zM37 0l216 360l202 341h44l-217 -360l-202 -341
h-43z" />
    <glyph glyph-name="oneeighth" unicode="&#x215b;" horiz-adv-x="495" 
d="M307 -4q-40 0 -65.5 23.5t-25.5 63.5q0 37 19.5 65t50.5 38q-30 25 -30 65q0 45 27.5 72.5t67.5 27.5q38 0 62 -23t24 -61q0 -31 -17 -55.5t-44 -36.5q36 -26 36 -72q0 -45 -29.5 -76t-75.5 -31zM310 34q25 0 41.5 20.5t16.5 52.5q0 23 -12.5 38t-36.5 15q-25 0 -42 -22
t-17 -52q0 -23 13 -37.5t37 -14.5zM342 200q21 0 36 19t15 47q0 21 -11.5 34t-31.5 13q-22 0 -36.5 -18t-14.5 -46q0 -22 11.5 -35.5t31.5 -13.5zM88 353l57 293l-69 -34l9 49l79 40h38l-68 -348h-46zM-14 0l216 360l202 341h44l-217 -360l-202 -341h-43z" />
    <glyph glyph-name="threeeighths" unicode="&#x215c;" horiz-adv-x="540" 
d="M369 -4q-40 0 -65.5 23.5t-25.5 63.5q0 37 19.5 65t50.5 38q-30 25 -30 65q0 45 27.5 72.5t67.5 27.5q38 0 62 -23t24 -61q0 -31 -17 -55.5t-44 -36.5q36 -26 36 -72q0 -45 -29.5 -76t-75.5 -31zM372 34q25 0 41.5 20.5t16.5 52.5q0 23 -12.5 38t-36.5 15q-25 0 -42 -22
t-17 -52q0 -23 13 -37.5t37 -14.5zM404 200q21 0 36 19t15 47q0 21 -11.5 34t-31.5 13q-22 0 -36.5 -18t-14.5 -46q0 -22 11.5 -35.5t31.5 -13.5zM37 0l216 360l202 341h44l-217 -360l-202 -341h-43zM123 349q-51 0 -88 32l10 48q34 -38 76 -38q29 0 46 19t17 46
q0 57 -85 62h-1l5 30l104 109h-118l9 44h178l-7 -35l-115 -118q77 -22 77 -90q0 -48 -30.5 -78.5t-77.5 -30.5z" />
    <glyph glyph-name="fiveeighths" unicode="&#x215d;" horiz-adv-x="540" 
d="M369 -4q-40 0 -65.5 23.5t-25.5 63.5q0 37 19.5 65t50.5 38q-30 25 -30 65q0 45 27.5 72.5t67.5 27.5q38 0 62 -23t24 -61q0 -31 -17 -55.5t-44 -36.5q36 -26 36 -72q0 -45 -29.5 -76t-75.5 -31zM372 34q25 0 41.5 20.5t16.5 52.5q0 23 -12.5 38t-36.5 15q-25 0 -42 -22
t-17 -52q0 -23 13 -37.5t37 -14.5zM404 200q21 0 36 19t15 47q0 21 -11.5 34t-31.5 13q-22 0 -36.5 -18t-14.5 -46q0 -22 11.5 -35.5t31.5 -13.5zM120 349q-48 0 -84 30l9 48q41 -36 74 -36t49.5 25.5t16.5 57.5q0 53 -50 53q-15 0 -40 -9l-29 15l45 167h151l-9 -43h-112
l-26 -93q20 5 34 5q36 0 60 -23.5t24 -69.5q0 -51 -30 -89t-83 -38zM37 0l216 360l202 341h44l-217 -360l-202 -341h-43z" />
    <glyph glyph-name="seveneighths" unicode="&#x215e;" horiz-adv-x="540" 
d="M348 -4q-40 0 -65.5 23.5t-25.5 63.5q0 37 19.5 65t50.5 38q-30 25 -30 65q0 45 27.5 72.5t67.5 27.5q38 0 62 -23t24 -61q0 -31 -17 -55.5t-44 -36.5q36 -26 36 -72q0 -45 -29.5 -76t-75.5 -31zM351 34q25 0 41.5 20.5t16.5 52.5q0 23 -12.5 38t-36.5 15q-25 0 -42 -22
t-17 -52q0 -23 13 -37.5t37 -14.5zM383 200q21 0 36 19t15 47q0 21 -11.5 34t-31.5 13q-22 0 -36.5 -18t-14.5 -46q0 -22 11.5 -35.5t31.5 -13.5zM53 353l169 303h-132l9 44h181l-7 -36l-170 -311h-50zM2 0l216 360l202 341h44l-217 -360l-202 -341h-43z" />
    <glyph glyph-name="minus" unicode="&#x2212;" horiz-adv-x="351" 
d="M38 320l14 64h297l-13 -64h-298z" />
    <glyph glyph-name="Q.alt" horiz-adv-x="412" 
d="M279 709q64 0 97 -55t33 -153q0 -102 -29.5 -224t-82.5 -199l45 -63l-42 -34l-38 56q-48 -46 -99 -46q-63 0 -96 55t-33 153q0 118 38.5 257t103.5 205q50 48 103 48zM170 51q33 0 60 30l2 2l-53 79l41 33l42 -65q37 72 60 184.5t23 192.5q0 142 -70 142q-28 0 -55 -27
q-50 -50 -86 -190t-36 -239q0 -142 72 -142z" />
    <glyph glyph-name="a.alt" horiz-adv-x="379" 
d="M119 -9q-45 0 -71 41.5t-26 119.5q0 93 30 195.5t80 152.5q36 37 77 37q38 0 61.5 -30t30.5 -75l20 96h62l-102 -528h-63l16 82q-54 -91 -115 -91zM143 49q26 0 51 25q38 38 62.5 125t24.5 161q0 56 -17 87.5t-46 31.5q-24 0 -46 -22q-38 -38 -62.5 -130.5t-24.5 -167.5
q0 -110 58 -110z" />
    <glyph glyph-name="aacute.alt" horiz-adv-x="379" 
d="M227 581l94 131l56 -33l-104 -98h-46zM119 -9q-45 0 -71 41.5t-26 119.5q0 93 30 195.5t80 152.5q36 37 77 37q38 0 61.5 -30t30.5 -75l20 96h62l-102 -528h-63l16 82q-54 -91 -115 -91zM143 49q26 0 51 25q38 38 62.5 125t24.5 161q0 56 -17 87.5t-46 31.5
q-24 0 -46 -22q-38 -38 -62.5 -130.5t-24.5 -167.5q0 -110 58 -110z" />
    <glyph glyph-name="abreve.alt" horiz-adv-x="379" 
d="M119 -9q-45 0 -71 41.5t-26 119.5q0 93 30 195.5t80 152.5q36 37 77 37q38 0 61.5 -30t30.5 -75l20 96h62l-102 -528h-63l16 82q-54 -91 -115 -91zM143 49q26 0 51 25q38 38 62.5 125t24.5 161q0 56 -17 87.5t-46 31.5q-24 0 -46 -22q-38 -38 -62.5 -130.5t-24.5 -167.5
q0 -110 58 -110zM258 581q-42 0 -66.5 25.5t-19.5 75.5h44q-1 -26 11 -39.5t34 -13.5q44 0 64 53h46q-26 -101 -113 -101z" />
    <glyph glyph-name="acircumflex.alt" horiz-adv-x="379" 
d="M159 584l94 127h49l46 -127h-46l-34 72l-60 -72h-49zM119 -9q-45 0 -71 41.5t-26 119.5q0 93 30 195.5t80 152.5q36 37 77 37q38 0 61.5 -30t30.5 -75l20 96h62l-102 -528h-63l16 82q-54 -91 -115 -91zM143 49q26 0 51 25q38 38 62.5 125t24.5 161q0 56 -17 87.5
t-46 31.5q-24 0 -46 -22q-38 -38 -62.5 -130.5t-24.5 -167.5q0 -110 58 -110z" />
    <glyph glyph-name="adieresis.alt" horiz-adv-x="379" 
d="M172 589l15 78h62l-15 -78h-62zM283 589l15 78h62l-15 -78h-62zM119 -9q-45 0 -71 41.5t-26 119.5q0 93 30 195.5t80 152.5q36 37 77 37q38 0 61.5 -30t30.5 -75l20 96h62l-102 -528h-63l16 82q-54 -91 -115 -91zM143 49q26 0 51 25q38 38 62.5 125t24.5 161
q0 56 -17 87.5t-46 31.5q-24 0 -46 -22q-38 -38 -62.5 -130.5t-24.5 -167.5q0 -110 58 -110z" />
    <glyph glyph-name="agrave.alt" horiz-adv-x="379" 
d="M119 -9q-45 0 -71 41.5t-26 119.5q0 93 30 195.5t80 152.5q36 37 77 37q38 0 61.5 -30t30.5 -75l20 96h62l-102 -528h-63l16 82q-54 -91 -115 -91zM143 49q26 0 51 25q38 38 62.5 125t24.5 161q0 56 -17 87.5t-46 31.5q-24 0 -46 -22q-38 -38 -62.5 -130.5t-24.5 -167.5
q0 -110 58 -110zM229 581l-85 98l55 33l73 -131h-43z" />
    <glyph glyph-name="amacron.alt" horiz-adv-x="379" 
d="M119 -9q-45 0 -71 41.5t-26 119.5q0 93 30 195.5t80 152.5q36 37 77 37q38 0 61.5 -30t30.5 -75l20 96h62l-102 -528h-63l16 82q-54 -91 -115 -91zM143 49q26 0 51 25q38 38 62.5 125t24.5 161q0 56 -17 87.5t-46 31.5q-24 0 -46 -22q-38 -38 -62.5 -130.5t-24.5 -167.5
q0 -110 58 -110zM161 590l10 50h194l-10 -50h-194z" />
    <glyph glyph-name="aogonek.alt" horiz-adv-x="379" 
d="M269 -85l-8 -42q-3 0 -7 -0.5t-5 -0.5q-75 0 -75 51q0 34 52 77h-8l16 82q-54 -91 -115 -91q-45 0 -71 41.5t-26 119.5q0 93 30 195.5t80 152.5q36 37 77 37q38 0 61.5 -30t30.5 -75l20 96h62l-102 -528h-11q-41 -44 -41 -61q0 -22 40 -24zM143 49q26 0 51 25
q38 38 62.5 125t24.5 161q0 56 -17 87.5t-46 31.5q-24 0 -46 -22q-38 -38 -62.5 -130.5t-24.5 -167.5q0 -110 58 -110z" />
    <glyph glyph-name="aring.alt" horiz-adv-x="379" 
d="M353 670q0 -37 -25 -63.5t-63 -26.5q-33 0 -53.5 21t-20.5 53q0 36 25 63t63 27q32 0 53 -21.5t21 -52.5zM225 656q0 -19 11.5 -32t30.5 -13q23 0 37.5 16.5t14.5 39.5q0 20 -11 33t-31 13q-23 0 -37.5 -17t-14.5 -40zM119 -9q-45 0 -71 41.5t-26 119.5q0 93 30 195.5
t80 152.5q36 37 77 37q38 0 61.5 -30t30.5 -75l20 96h62l-102 -528h-63l16 82q-54 -91 -115 -91zM143 49q26 0 51 25q38 38 62.5 125t24.5 161q0 56 -17 87.5t-46 31.5q-24 0 -46 -22q-38 -38 -62.5 -130.5t-24.5 -167.5q0 -110 58 -110z" />
    <glyph glyph-name="aring.alt2" horiz-adv-x="346" 
d="M189 0l13 66q-45 -75 -107 -75q-44 0 -70 32t-26 91q0 49 16.5 97.5t47.5 79.5q40 40 96 40q48 0 90 -26l4 21q9 49 9 72q0 77 -83 77q-43 0 -90 -20l12 60q32 14 65 17q-14 21 -14 45q0 37 25.5 63.5t63.5 26.5q32 0 53 -21t21 -53q0 -52 -45 -78q54 -31 54 -108
q0 -35 -11 -90l-62 -317h-62zM229 534q23 0 37.5 16.5t14.5 40.5q0 19 -11.5 32t-30.5 13q-23 0 -37.5 -16.5t-14.5 -39.5q0 -20 11 -33t31 -13zM120 44q37 0 64.5 34.5t37.5 86.5l17 89q-32 23 -76 23q-34 0 -58 -24q-22 -22 -33.5 -59.5t-11.5 -73.5q0 -76 60 -76z" />
    <glyph glyph-name="aringacute.alt" horiz-adv-x="379" 
d="M268 768l89 103l53 -30l-94 -73h-48zM353 666q0 -37 -25 -63.5t-63 -26.5q-33 0 -53.5 21t-20.5 53q0 36 25 63t63 27q32 0 53 -21.5t21 -52.5zM225 652q0 -19 11.5 -32t30.5 -13q23 0 37.5 16.5t14.5 39.5q0 20 -11 33t-31 13q-23 0 -37.5 -17t-14.5 -40zM119 -9
q-45 0 -71 41.5t-26 119.5q0 93 30 195.5t80 152.5q36 37 77 37q38 0 61.5 -30t30.5 -75l20 96h62l-102 -528h-63l16 82q-54 -91 -115 -91zM143 49q26 0 51 25q38 38 62.5 125t24.5 161q0 56 -17 87.5t-46 31.5q-24 0 -46 -22q-38 -38 -62.5 -130.5t-24.5 -167.5
q0 -110 58 -110z" />
    <glyph glyph-name="aringacute.alt2" horiz-adv-x="346" 
d="M230 695l89 103l53 -30l-94 -73h-48zM189 0l13 66q-45 -75 -107 -75q-44 0 -70 32t-26 91q0 49 16.5 97.5t47.5 79.5q40 40 96 40q48 0 90 -26l4 21q9 49 9 72q0 77 -83 77q-43 0 -90 -20l12 60q32 14 65 17q-14 21 -14 45q0 37 25.5 63.5t63.5 26.5q32 0 53 -21t21 -53
q0 -52 -45 -78q54 -31 54 -108q0 -35 -11 -90l-62 -317h-62zM229 534q23 0 37.5 16.5t14.5 40.5q0 19 -11.5 32t-30.5 13q-23 0 -37.5 -16.5t-14.5 -39.5q0 -20 11 -33t31 -13zM120 44q37 0 64.5 34.5t37.5 86.5l17 89q-32 23 -76 23q-34 0 -58 -24q-22 -22 -33.5 -59.5
t-11.5 -73.5q0 -76 60 -76z" />
    <glyph glyph-name="atilde.alt" horiz-adv-x="379" 
d="M119 -9q-45 0 -71 41.5t-26 119.5q0 93 30 195.5t80 152.5q36 37 77 37q38 0 61.5 -30t30.5 -75l20 96h62l-102 -528h-63l16 82q-54 -91 -115 -91zM143 49q26 0 51 25q38 38 62.5 125t24.5 161q0 56 -17 87.5t-46 31.5q-24 0 -46 -22q-38 -38 -62.5 -130.5t-24.5 -167.5
q0 -110 58 -110zM341 676l39 -11q-15 -43 -32 -63t-40 -20q-22 0 -48 24q-22 21 -33 21q-18 0 -35 -44l-39 11q16 44 32.5 63.5t39.5 19.5q22 0 47 -23q22 -22 33 -22q18 0 36 44z" />
    <glyph glyph-name="three.alt" horiz-adv-x="315" 
d="M85 -9q-68 0 -111 38l12 62q44 -39 99 -39q60 0 92.5 44.5t32.5 110.5q0 53 -31.5 87.5t-90.5 42.5l10 54q79 6 125.5 48.5t46.5 112.5q0 44 -26 70t-68 26q-43 0 -84 -23l11 61q36 23 87 23q67 0 106 -41.5t39 -106.5q0 -70 -39 -124t-118 -78q96 -48 96 -155
q0 -91 -51 -152t-138 -61z" />
    <glyph glyph-name="registered.alt" horiz-adv-x="523" 
d="M320 711q98 0 152.5 -74.5t54.5 -193.5q0 -105 -33.5 -211t-99.5 -172q-68 -70 -161 -70q-98 0 -152 74.5t-54 193.5q0 105 33 211t99 172q72 70 161 70zM236 18q77 0 137 60q63 63 93.5 166t31.5 200q1 105 -46 172t-134 67q-77 0 -138 -61q-62 -62 -92.5 -165
t-31.5 -200q-1 -105 46 -172t134 -67zM234 309l-28 -145h-43l75 385h40q59 0 89 -30q27 -27 27 -75q0 -59 -37 -94q-17 -18 -45 -29l33 -157h-44l-29 146q-13 -1 -38 -1zM242 350h14q44 0 68 24q27 27 27 70q0 29 -16 45q-18 18 -54 18h-9z" />
    <glyph glyph-name="R_p" horiz-adv-x="671" 
d="M-10 0l136 700h48q92 0 139 -48.5t47 -127.5q0 -78 -37.5 -143.5t-108.5 -93.5l55 -287h-63l-51 271q-18 -3 -52 -3l-52 -268h-61zM294 -130l128 661h60l-15 -82q48 90 107 90q40 0 63 -41.5t23 -119.5q0 -92 -29.5 -196.5t-79.5 -155.5q-32 -35 -69 -35
q-35 0 -56.5 29.5t-28.5 72.5l-43 -223h-60zM114 323h14q85 0 127 60t42 141q0 58 -30.5 88.5t-81.5 30.5h-8zM474 48q19 0 39 20q36 39 61 135.5t25 170.5q0 109 -49 109q-19 0 -43 -24q-37 -39 -62.5 -130t-25.5 -162q0 -57 15 -88t40 -31z" />
    <glyph glyph-name="onehalf.alt" horiz-adv-x="540" 
d="M23 353l8 41h73l49 255l-80 -36l10 50l88 40h38l-59 -309h65l-8 -41h-184zM269 0l8 34l120 133q52 58 52 94q0 22 -13 33.5t-34 11.5q-34 0 -79 -36l8 52q35 28 78 28q39 0 63.5 -23t24.5 -60q0 -52 -61 -119l-95 -104h123l-9 -44h-186zM47 0l216 360l202 341h44
l-217 -360l-202 -341h-43z" />
    <glyph glyph-name="onethird.alt" horiz-adv-x="540" 
d="M23 353l8 41h73l49 255l-80 -36l10 50l88 40h38l-59 -309h65l-8 -41h-184zM367 -4q-52 0 -88 33l10 47q34 -38 76 -38q29 0 46 19t17 46q0 57 -85 62h-1l5 30l104 109h-118l9 44h178l-7 -35l-115 -118q77 -22 77 -90q0 -48 -30.5 -78.5t-77.5 -30.5zM42 0l216 360
l202 341h44l-217 -360l-202 -341h-43z" />
    <glyph glyph-name="onequarter.alt" horiz-adv-x="540" 
d="M28 353l8 41h73l49 255l-80 -36l10 50l88 40h38l-59 -309h65l-8 -41h-184zM57 0l216 360l202 341h44l-217 -360l-202 -341h-43zM379 0l14 70h-130l7 37l157 242h61l-46 -240h33l-8 -39h-33l-13 -70h-42zM315 109h86l35 179h-7z" />
    <glyph glyph-name="onefifth.alt" horiz-adv-x="540" 
d="M23 353l8 41h73l49 255l-80 -36l10 50l88 40h38l-59 -309h65l-8 -41h-184zM365 -4q-48 0 -84 30l9 48q41 -36 74 -36t49.5 25.5t16.5 57.5q0 53 -50 53q-15 0 -40 -9l-29 16l45 166h151l-9 -43h-112l-26 -93q20 5 34 5q36 0 60 -23.5t24 -69.5q0 -51 -30 -89t-83 -38z
M47 0l216 360l202 341h44l-217 -360l-202 -341h-43z" />
    <glyph glyph-name="onesixth.alt" horiz-adv-x="540" 
d="M23 353l8 41h73l49 255l-80 -36l10 50l88 40h38l-59 -309h65l-8 -41h-184zM378 -4q-36 0 -60 25.5t-24 78.5q0 47 18.5 117t53.5 105q30 29 72 29q34 0 64 -19l-11 -47q-27 23 -55 23q-23 0 -37 -15q-28 -26 -42 -86q23 16 52 16q31 0 53.5 -21t22.5 -64q0 -58 -30 -100
t-77 -42zM380 38q26 0 42.5 29t16.5 66q0 49 -44 49q-25 0 -47 -17l-3 -12q-6 -30 -6 -58q0 -57 41 -57zM52 0l216 360l202 341h44l-217 -360l-202 -341h-43z" />
    <glyph glyph-name="oneeighth.alt" horiz-adv-x="540" 
d="M22 353l8 41h73l49 255l-80 -36l10 50l88 40h38l-59 -309h65l-8 -41h-184zM374 -4q-40 0 -65.5 23.5t-25.5 63.5q0 37 19.5 65t50.5 38q-30 25 -30 65q0 45 27.5 72.5t67.5 27.5q38 0 62 -23t24 -61q0 -31 -17 -55.5t-44 -36.5q36 -26 36 -72q0 -45 -29.5 -76t-75.5 -31z
M377 34q25 0 41.5 20.5t16.5 52.5q0 23 -12.5 38t-36.5 15q-25 0 -42 -22t-17 -52q0 -23 13 -37.5t37 -14.5zM409 200q21 0 36 19t15 47q0 21 -11.5 34t-31.5 13q-22 0 -36.5 -18t-14.5 -46q0 -22 11.5 -35.5t31.5 -13.5zM51 0l216 360l202 341h44l-217 -360l-202 -341h-43z
" />
    <glyph glyph-name="one.sup_alt" 
d="M73 464l8 41h73l49 255l-80 -36l10 50l88 40h38l-59 -309h65l-8 -41h-184z" />
    <glyph glyph-name="one.inf_alt" 
d="M-41 -132l8 41h73l49 255l-80 -36l10 50l88 40h38l-59 -309h65l-8 -41h-184z" />
    <glyph glyph-name="zero.tab" horiz-adv-x="360" 
d="M352 540q0 -119 -40 -283.5t-102 -225.5q-39 -40 -88 -40q-50 0 -82.5 40t-32.5 129q0 118 40.5 283t101.5 226q39 40 88 40q50 0 82.5 -40t32.5 -129zM69 158q0 -107 59 -107q22 0 40 19q45 45 84 207.5t39 264.5q0 107 -59 107q-22 0 -41 -19q-45 -45 -83.5 -207.5
t-38.5 -264.5z" />
    <glyph glyph-name="one.tab" horiz-adv-x="360" 
d="M-23 0l11 58h121l109 565l-134 -71l14 73l149 76h51l-125 -643h107l-11 -58h-292z" />
    <glyph glyph-name="two.tab" horiz-adv-x="360" 
d="M-30 0l10 49l210 298q54 77 76.5 122.5t22.5 90.5q0 40 -21 62t-56 22q-31 0 -57 -14.5t-60 -42.5q-5 -4 -7 -6l15 78q62 50 119 50q60 0 97 -39t37 -104q0 -54 -26 -108t-78 -128l-188 -266h210l-12 -64h-292z" />
    <glyph glyph-name="three.tab" horiz-adv-x="360" 
d="M111 -9q-83 0 -135 59l14 67q50 -64 119 -64q57 0 91.5 44.5t34.5 109.5q0 118 -138 139l9 47l190 242h-203l12 65h285l-10 -52l-208 -261q129 -42 129 -179q0 -83 -50.5 -150t-139.5 -67z" />
    <glyph glyph-name="three.tab_alt" horiz-adv-x="360" 
d="M110 -9q-82 0 -133 56l13 68q53 -63 120 -63q56 0 88 43t32 105q0 59 -36 94t-102 42l10 55q92 5 139.5 48t47.5 110q0 45 -24 72t-67 27q-55 0 -111 -45l12 66q47 40 108 40q67 0 107.5 -43t40.5 -111q-1 -67 -40 -120.5t-121 -76.5q101 -46 101 -161
q0 -85 -50.5 -145.5t-134.5 -60.5z" />
    <glyph glyph-name="four.tab" horiz-adv-x="360" 
d="M162 0l29 153h-206l11 56l281 495h80l-96 -495h53l-11 -56h-53l-30 -153h-58zM52 209h150l74 381h-6z" />
    <glyph glyph-name="five.tab" horiz-adv-x="360" 
d="M108 -9q-72 0 -124 52l14 68q50 -58 109 -58q61 0 96 62.5t35 139.5q0 110 -85 110q-39 0 -69 -22l-35 27l79 330h236l-12 -63h-183l-55 -225q25 11 58 11q59 0 95 -42t36 -121q0 -65 -21 -124.5t-66.5 -102t-107.5 -42.5z" />
    <glyph glyph-name="six.tab" horiz-adv-x="360" 
d="M138 -9q-46 0 -76 30q-45 45 -45 156q0 100 40 255.5t114 229.5q47 47 107 47q52 0 90 -28l-13 -65q-34 31 -78 31q-37 0 -64 -27q-60 -60 -99 -215q48 35 95 35q50 0 81 -39.5t31 -112.5q0 -46 -11 -96t-32 -96t-58 -75.5t-82 -29.5zM142 49q36 0 63.5 42t40 94t12.5 97
q0 101 -70 101q-40 0 -86 -37l-6 -34q-18 -88 -18 -151q0 -112 64 -112z" />
    <glyph glyph-name="seven.tab" horiz-adv-x="360" 
d="M7 0l304 635h-222l13 65h289l-12 -57l-305 -643h-67z" />
    <glyph glyph-name="eight.tab" horiz-adv-x="360" 
d="M131 -9q-63 0 -97.5 41t-36.5 113q-1 70 32 136t94 90q-48 40 -48 124q0 83 42.5 148.5t117.5 65.5q51 0 84.5 -38.5t33.5 -108.5q0 -64 -28.5 -123.5t-83.5 -81.5q58 -45 58 -140q0 -53 -17.5 -103t-57.5 -86.5t-93 -36.5zM133 46q51 0 78 58t27 125q0 45 -18 75.5
t-51 30.5q-49 0 -80 -61t-31 -124q0 -49 19.5 -76.5t55.5 -27.5zM195 389q46 0 72.5 58t26.5 116q0 42 -17 66.5t-46 24.5q-34 0 -57 -32t-31.5 -69.5t-8.5 -73.5q0 -34 14.5 -62t46.5 -28z" />
    <glyph glyph-name="nine.tab" horiz-adv-x="360" 
d="M84 -9q-55 0 -99 35l12 64q43 -37 88 -37q37 0 64 27q59 59 98 208q-51 -35 -95 -35q-50 0 -81 40.5t-31 114.5q0 66 18.5 132.5t62.5 117.5t103 51q46 0 76 -30q45 -45 45 -156q0 -100 -40 -255.5t-114 -229.5q-47 -47 -107 -47zM173 311q38 0 85 36l8 41q18 81 18 151
q0 112 -64 112q-36 0 -63.5 -42.5t-40 -95t-12.5 -98.5q0 -104 69 -104z" />
    <glyph glyph-name="period.tab" horiz-adv-x="180" 
d="M-20 0l20 106h86l-20 -106h-86z" />
    <glyph glyph-name="comma.tab" horiz-adv-x="180" 
d="M-49 -116l-8 32q39 13 55 32t19 52h-37l20 106h86l-18 -94q-11 -59 -35.5 -86t-81.5 -42z" />
    <glyph glyph-name="colon.tab" horiz-adv-x="180" 
d="M-20 0l20 106h86l-20 -106h-86zM61 421l20 106h87l-21 -106h-86z" />
    <glyph glyph-name="semicolon.tab" horiz-adv-x="180" 
d="M-49 -116l-8 32q39 13 55 32t19 52h-37l20 106h86l-18 -94q-11 -59 -35.5 -86t-81.5 -42zM61 421l20 106h87l-20 -106h-87z" />
    <glyph glyph-name="twodotleader.tab" horiz-adv-x="360" 
d="M-20 0l20 102h84l-20 -102h-84zM160 0l20 102h84l-20 -102h-84z" />
    <glyph glyph-name="periodcentered.tab" horiz-adv-x="180" 
d="M27 248l21 106h86l-20 -106h-87z" />
    <glyph glyph-name="slash.tab" horiz-adv-x="360" 
d="M-72 -99l428 868h58l-429 -868h-57z" />
    <glyph glyph-name="bar.tab" horiz-adv-x="180" 
d="M-22 -99l168 868h51l-168 -868h-51z" />
    <glyph glyph-name="underscore.tab" horiz-adv-x="360" 
d="M-100 -156l10 51h364l-10 -51h-364z" />
    <glyph glyph-name="dollar.tab" horiz-adv-x="360" 
d="M268 780h46l-21 -83q41 -11 80 -45l-13 -69q-37 41 -82 55l-65 -260q52 -53 71.5 -96t19.5 -91q0 -82 -47.5 -139.5t-133.5 -57.5h-10l-27 -105h-47l28 112q-55 16 -93 54l13 71q40 -50 95 -66l72 281q-84 94 -84 182q0 78 46 130t123 52h9zM240 192q0 59 -49 114
l-63 -252q57 1 84.5 40.5t27.5 97.5zM134 525q0 -54 41 -109l58 229q-48 -2 -73.5 -36t-25.5 -84z" />
    <glyph glyph-name="sterling.tab" horiz-adv-x="360" 
d="M-33 0l7 37l54 20l50 257h-54l12 57h54l30 156q19 99 60 140t104 41q52 0 98 -29l-14 -62q-44 29 -84 29q-36 0 -59 -23q-27 -27 -41 -100l-29 -152h135l-11 -57h-136l-50 -255h190l-10 -59h-306z" />
    <glyph glyph-name="Euro.tab" horiz-adv-x="360" 
d="M28 409l10 50h51q38 125 104 191q56 57 124 57q46 0 80 -23l-13 -69q-31 30 -69 30q-40 0 -76 -36q-49 -49 -82 -151h145l-10 -49h-149q-14 -59 -20 -113h147l-9 -50h-141v-15q0 -175 93 -175q34 0 69 22l-13 -66q-30 -19 -67 -19q-69 0 -108 58.5t-39 171.5v23h-58l9 50
h52q7 68 18 113h-48z" />
    <glyph glyph-name="yen.tab" horiz-adv-x="360" 
d="M36 268l10 51h85l-52 381h65l37 -332l167 332h69l-202 -381h86l-10 -51h-97l-17 -88h97l-10 -51h-97l-25 -129h-62l25 129h-96l10 51h96l17 88h-96z" />
    <glyph glyph-name="cent.tab" horiz-adv-x="360" 
d="M303 704l-19 -86q44 -9 77 -37l-13 -66q-37 37 -77 44l-93 -420h6q46 0 98 39l-12 -66q-46 -33 -99 -33h-6l-18 -84h-47l20 92q-87 33 -87 171q0 83 28.5 175t80.5 144q43 42 97 45l18 82h46zM96 262q0 -82 39 -109l89 404q-22 -8 -38 -24q-43 -41 -66.5 -122.5
t-23.5 -148.5z" />
    <glyph glyph-name="numbersign.tab" horiz-adv-x="360" 
d="M22 0l31 179h-59l8 58h61l41 227h-57l9 58h59l32 178h47l-32 -178h96l32 178h47l-32 -178h60l-9 -58h-62l-40 -227h57l-9 -58h-59l-31 -179h-47l31 179h-96l-31 -179h-47zM111 237h96l40 227h-96z" />
    <glyph glyph-name="paragraph.tab" horiz-adv-x="360" 
d="M171 0l48 249q-84 7 -130 54q-48 48 -48 131q0 123 77 200q66 66 176 66h79l-137 -700h-65z" />
    <glyph glyph-name="section.tab" horiz-adv-x="360" 
d="M114 -8q-58 0 -104 29l13 62q44 -34 91 -34q33 0 52.5 18.5t19.5 50.5q0 24 -16 45t-56 52q-55 43 -76 72t-20 65q1 50 33.5 82.5t96.5 61.5q-36 37 -36 85q0 53 36 90t97 37q60 0 104 -29l-13 -62q-44 34 -91 34q-33 0 -52.5 -18.5t-19.5 -50.5q0 -24 16 -45t56 -52
q55 -43 76 -72t20 -65q0 -50 -33 -82.5t-97 -61.5q36 -37 36 -85q0 -53 -36 -90t-97 -37zM180 239q101 41 101 100q0 26 -14.5 45t-59.5 56l-28 21q-100 -41 -100 -100q0 -26 14 -45t60 -56z" />
    <glyph glyph-name="degree.tab" horiz-adv-x="360" 
d="M237 707q47 0 76 -34t29 -96t-20.5 -122t-55.5 -95q-40 -40 -90 -40q-46 0 -75 34.5t-29 95.5t20 121.5t55 95.5q40 40 90 40zM182 368q26 0 50 24q28 28 44.5 81.5t16.5 100.5q0 85 -62 85q-26 0 -50 -24q-28 -28 -44.5 -81.5t-16.5 -100.5q0 -85 62 -85z" />
    <glyph glyph-name="percent.tab" horiz-adv-x="360" 
d="M368 700h43l-217 -359h-2l-200 -341h-43l217 359h2zM157 662q-13 0 -25 -12q-22 -22 -35.5 -79.5t-13.5 -97.5q0 -55 33 -55q14 0 25 12q22 21 35.5 78.5t13.5 98.5q0 55 -33 55zM160 706q75 0 75 -101q0 -47 -17.5 -110.5t-49.5 -95.5q-25 -25 -56 -25q-36 0 -55.5 27
t-19.5 74q0 46 17 109.5t49 95.5q24 26 57 26zM202 38q12 0 26 12q21 22 35 79.5t14 97.5q0 55 -33 55q-14 0 -26 -12q-21 -21 -34.5 -79t-13.5 -98q0 -55 32 -55zM199 -6q-37 0 -56 27t-19 74t18 110.5t50 95.5q25 25 56 25q36 0 55.5 -27t19.5 -74q0 -46 -17 -109.5
t-49 -95.5q-26 -26 -58 -26z" />
    <glyph glyph-name="quotedbl.tab" horiz-adv-x="360" 
d="M92 437l66 263h70l-3 -9l-107 -254h-26zM233 437l66 263h70l-3 -9l-106 -254h-27z" />
    <glyph glyph-name="quotesingle.tab" horiz-adv-x="180" 
d="M76 437l66 263h69l-2 -9l-106 -254h-27z" />
    <glyph glyph-name="plus.tab" horiz-adv-x="360" 
d="M121 197l25 126h-121l11 58h121l24 126h57l-24 -126h121l-11 -58h-121l-24 -126h-58z" />
    <glyph glyph-name="minus.tab" horiz-adv-x="360" 
d="M24 320l13 64h298l-13 -64h-298z" />
    <glyph glyph-name="divide.tab" horiz-adv-x="360" 
d="M110 171l16 83h70l-16 -83h-70zM25 321l12 62h298l-12 -62h-298zM164 450l16 83h70l-16 -83h-70z" />
    <glyph glyph-name="equal.tab" horiz-adv-x="360" 
d="M15 243l11 62h291l-12 -62h-290zM44 399l12 62h290l-11 -62h-291z" />
    <glyph glyph-name="multiply.tab" horiz-adv-x="360" 
d="M60 202l-39 40l123 113l-76 110l47 34l72 -105l116 108l39 -40l-123 -114l77 -109l-47 -34l-73 105z" />
    <glyph glyph-name="less.tab" horiz-adv-x="360" 
d="M272 158l-236 166l10 56l302 166l-16 -78l-226 -120l180 -120z" />
    <glyph glyph-name="greater.tab" horiz-adv-x="360" 
d="M88 546l237 -166l-10 -56l-303 -166l16 78l226 120l-179 120z" />
    <glyph glyph-name="plusminus.tab" horiz-adv-x="360" 
d="M123 199l23 126h-120l11 59h121l24 125h58l-25 -125h121l-11 -59h-121l-24 -126h-57zM-22 67l10 59h298l-11 -59h-297z" />
    <glyph glyph-name="space.tab" horiz-adv-x="180" 
 />
    <glyph glyph-name="NUL" horiz-adv-x="0" 
 />
    <glyph glyph-name="hfjslug" horiz-adv-x="694" 
d="M255 276h8l11 34h1l11 -34h8l14 47h-8l-10 -35h-1l-11 35h-7l-11 -35h-1l-10 35h-8zM321 388q19 0 29 24h1l12 -24l12 6l-17 32q6 14 13 39l-13 3q-4 -18 -8 -30h-1l-16 31q23 21 23 42q0 31 -27 31q-12 0 -20 -9t-8 -22t14 -39q-23 -18 -23 -47q0 -16 8 -26.5t21 -10.5z
M50 -200v303q14 0 23 9.5t9 22.5t-9.5 22.5t-22.5 9.5v554h100l30 79h334l29 -79h101v-921h-208l-8 14h-163l-8 -14h-207zM523 277h8v12l8 8l15 -20h10l-20 26l18 20h-10l-20 -24h-1v24h-8v-46zM193 277h34v7h-26v13h23v7h-23v12h26v7h-34v-46zM184 391h15v79h47v-79h15v172
h-15v-79h-47v79h-15v-172zM132 277h8v32l25 -32h7v46h-8v-32l-25 32h-7v-46zM400 391h15v78h38v14h-38v66h43v14h-58v-172zM468 277h8v15h12l10 -15h9l-12 17q10 4 10 14q0 15 -17 15h-20v-46zM366 277h8v17l18 29h-9l-13 -22l-13 22h-9l18 -29v-17zM481 390q31 0 31 36v137
h-16v-137q0 -22 -16 -22q-8 0 -20 5v-15q10 -4 21 -4zM476 299v17h11q10 0 10 -8q0 -9 -10 -9h-11zM322 402q-16 0 -16 25q0 19 16 35l20 -39q-8 -21 -20 -21zM327 479q-12 22 -12 32q0 19 14 19q13 0 13 -19q0 -15 -15 -32zM426 283q-16 0 -16 17q0 6 4.5 11.5t11.5 5.5
t11.5 -5.5t4.5 -11.5q0 -17 -16 -17zM426 276q10 0 17 7t7 17q0 9 -7 16.5t-17 7.5t-17 -7.5t-7 -16.5q0 -10 7 -17t17 -7z" />
    <glyph glyph-name="i.dot" horiz-adv-x="167" 
d="M1 0l103 528h62l-103 -528h-62zM121 624l15 82h66l-15 -82h-66z" />
    <glyph glyph-name="zero.num" 
d="M260 597q0 -51 -16 -119.5t-50 -102.5q-27 -27 -62 -27q-41 0 -61.5 29t-20.5 79q0 51 16 119t50 102q25 27 61 27q83 0 83 -107zM96 452q0 -61 38 -61q16 0 27 13q25 24 39 89t14 107q0 61 -38 61q-14 0 -28 -12q-25 -25 -38.5 -89.5t-13.5 -107.5z" />
    <glyph glyph-name="one.num" horiz-adv-x="195" 
d="M85 353l57 293l-69 -34l9 49l79 40h38l-68 -348h-46z" />
    <glyph glyph-name="one.num_alt" 
d="M36 353l8 41h73l49 255l-80 -36l10 50l88 40h38l-59 -309h65l-8 -41h-184z" />
    <glyph glyph-name="two.num" 
d="M28 353l8 34l120 133q52 58 52 94q0 22 -13 33.5t-34 11.5q-34 0 -79 -36l8 51q34 29 78 29q39 0 63.5 -23t24.5 -60q0 -52 -61 -119l-95 -104h123l-9 -44h-186z" />
    <glyph glyph-name="three.num" 
d="M124 349q-51 0 -88 32l10 48q34 -38 76 -38q29 0 46 19t17 46q0 57 -85 62h-1l5 30l104 109h-118l9 44h178l-7 -35l-115 -118q77 -22 77 -90q0 -48 -30.5 -78.5t-77.5 -30.5z" />
    <glyph glyph-name="four.num" 
d="M150 353l14 70h-130l7 37l157 242h61l-46 -240h33l-8 -39h-33l-13 -70h-42zM86 462h86l35 179h-7z" />
    <glyph glyph-name="five.num" 
d="M122 349q-48 0 -84 30l9 48q41 -36 74 -36t49.5 25.5t16.5 57.5q0 53 -50 53q-15 0 -40 -9l-29 15l45 167h151l-9 -43h-112l-26 -93q20 5 34 5q36 0 60 -23.5t24 -69.5q0 -51 -30 -89t-83 -38z" />
    <glyph glyph-name="six.num" 
d="M135 349q-36 0 -60 25.5t-24 78.5q0 46 18.5 116t53.5 106q30 29 72 29q31 0 64 -19l-11 -47q-27 23 -55 23q-23 0 -37 -15q-28 -26 -42 -86q23 16 52 16q31 0 53.5 -21t22.5 -65q0 -58 -30 -99.5t-77 -41.5zM137 391q26 0 42.5 29t16.5 66q0 49 -44 49q-25 0 -47 -17
l-3 -12q-6 -30 -6 -58q0 -57 41 -57z" />
    <glyph glyph-name="seven.num" 
d="M50 353l169 303h-132l9 44h181l-7 -36l-170 -311h-50z" />
    <glyph glyph-name="eight.num" 
d="M131 349q-40 0 -65.5 23.5t-25.5 63.5q0 37 19.5 65t50.5 38q-30 25 -30 65q0 45 27.5 72.5t67.5 27.5q38 0 62 -23t24 -61q0 -31 -17 -55.5t-44 -36.5q36 -26 36 -72q0 -45 -29.5 -76t-75.5 -31zM134 387q25 0 41.5 20.5t16.5 52.5q0 23 -12.5 38t-36.5 15
q-25 0 -42 -22t-17 -52q0 -23 13 -37.5t37 -14.5zM166 553q21 0 36 19t15 47q0 21 -11.5 34t-31.5 13q-22 0 -36.5 -18t-14.5 -46q0 -22 11.5 -35.5t31.5 -13.5z" />
    <glyph glyph-name="nine.num" 
d="M115 349q-36 0 -71 22l11 46q31 -25 61 -25q23 0 38 15q27 27 41 81q-26 -15 -54 -15q-30 0 -52 21t-22 66q0 59 30 101.5t77 42.5q37 0 61 -25.5t24 -78.5q0 -46 -19 -116.5t-54 -105.5q-29 -29 -71 -29zM156 514q26 0 48 17l3 16q7 35 7 58q0 29 -12 43t-29 14
q-27 0 -43.5 -29.5t-16.5 -67.5q0 -51 43 -51z" />
    <glyph glyph-name="zero.den" 
d="M193 244q0 -51 -16 -119.5t-50 -102.5q-26 -26 -61 -26q-41 0 -62 28.5t-21 78.5q0 51 16 119.5t50 102.5q28 26 62 26q82 0 82 -107zM29 100q0 -62 38 -62q15 0 28 13q25 25 38.5 89.5t13.5 107.5q0 61 -38 61q-16 0 -27 -13q-25 -24 -39 -89t-14 -107z" />
    <glyph glyph-name="one.den" horiz-adv-x="195" 
d="M17 0l57 293l-69 -34l9 49l79 40h38l-68 -348h-46z" />
    <glyph glyph-name="one.den_alt" 
d="M-32 0l8 41h73l49 255l-80 -36l10 50l88 40h38l-59 -309h65l-8 -41h-184z" />
    <glyph glyph-name="two.den" 
d="M-40 0l8 34l120 133q52 58 52 94q0 22 -13 33.5t-34 11.5q-34 0 -79 -36l8 52q35 28 78 28q39 0 63.5 -23t24.5 -60q0 -52 -61 -119l-95 -104h123l-9 -44h-186z" />
    <glyph glyph-name="three.den" 
d="M56 -4q-52 0 -88 33l10 47q34 -38 76 -38q29 0 46 19t17 46q0 57 -85 62h-1l5 30l104 109h-118l9 44h178l-7 -35l-115 -118q77 -22 77 -90q0 -48 -30.5 -78.5t-77.5 -30.5z" />
    <glyph glyph-name="four.den" 
d="M82 0l14 70h-130l7 37l157 242h61l-46 -240h33l-8 -39h-33l-13 -70h-42zM18 109h86l35 179h-7z" />
    <glyph glyph-name="five.den" 
d="M54 -4q-48 0 -84 30l9 48q41 -36 74 -36t49.5 25.5t16.5 57.5q0 53 -50 53q-15 0 -40 -9l-29 16l45 166h151l-9 -43h-112l-26 -93q20 5 34 5q36 0 60 -23.5t24 -69.5q0 -51 -30 -89t-83 -38z" />
    <glyph glyph-name="six.den" 
d="M67 -4q-36 0 -60 25.5t-24 78.5q0 47 18.5 117t53.5 105q30 29 72 29q34 0 64 -19l-11 -47q-27 23 -55 23q-23 0 -37 -15q-28 -26 -42 -86q23 16 52 16q31 0 53.5 -21t22.5 -64q0 -58 -30 -100t-77 -42zM69 38q26 0 42.5 29t16.5 66q0 49 -44 49q-25 0 -47 -17l-3 -12
q-6 -30 -6 -58q0 -57 41 -57z" />
    <glyph glyph-name="seven.den" 
d="M-18 0l169 303h-132l9 44h181l-7 -36l-170 -311h-50z" />
    <glyph glyph-name="eight.den" 
d="M63 -4q-40 0 -65.5 23.5t-25.5 63.5q0 37 19.5 65t50.5 38q-30 25 -30 65q0 45 27.5 72.5t67.5 27.5q38 0 62 -23t24 -61q0 -31 -17 -55.5t-44 -36.5q36 -25 36 -72q0 -45 -29.5 -76t-75.5 -31zM66 34q25 0 41.5 20.5t16.5 52.5q0 23 -12.5 38t-36.5 15q-25 0 -42 -22
t-17 -52q0 -23 13 -37.5t37 -14.5zM98 200q21 0 36 19t15 47q0 21 -11.5 34t-31.5 13q-22 0 -36.5 -18t-14.5 -46q0 -22 11.5 -35.5t31.5 -13.5z" />
    <glyph glyph-name="nine.den" 
d="M47 -4q-36 0 -71 22l11 46q33 -25 61 -25q23 0 38 15q27 27 41 81q-26 -15 -54 -15q-30 0 -52 21t-22 66q0 59 30 101.5t77 42.5q37 0 61 -25.5t24 -78.5q0 -46 -19 -116t-54 -106q-29 -29 -71 -29zM88 161q26 0 48 17l3 16q7 35 7 58q0 29 -12 43t-29 14
q-27 0 -43.5 -29.5t-16.5 -67.5q0 -51 43 -51z" />
    <glyph glyph-name="caron.alt" horiz-adv-x="500" 
d="M249 559l36 147h50v-2l-57 -145h-29z" />
    <glyph glyph-name="acute.cap" horiz-adv-x="500" 
d="M271 739l90 110l59 -31l-100 -79h-49z" />
    <glyph glyph-name="hungarumlaut.cap" horiz-adv-x="500" 
d="M287 739l90 110l54 -31l-97 -79h-47zM386 739l90 110l55 -31l-97 -79h-48z" />
    <glyph glyph-name="grave.cap" horiz-adv-x="500" 
d="M362 739l-85 79l58 31l74 -110h-47z" />
    <glyph glyph-name="circumflex.cap" horiz-adv-x="500" 
d="M242 742l93 103h55l52 -103h-50l-38 56l-59 -56h-53z" />
    <glyph glyph-name="caron.cap" horiz-adv-x="500" 
d="M462 845l-92 -103h-55l-53 103h51l38 -55l58 55h53z" />
    <glyph glyph-name="breve.cap" horiz-adv-x="500" 
d="M347 739q-43 0 -68 23t-21 65h46q1 -39 47 -39q43 0 60 39h46q-24 -88 -110 -88z" />
    <glyph glyph-name="tilde.cap" horiz-adv-x="500" 
d="M273 742l-41 12q17 40 33.5 57.5t39.5 17.5q21 0 52 -21q25 -17 34 -17q17 0 35 36l41 -12q-16 -39 -33 -57t-40 -18q-21 0 -51 20q-25 18 -35 18q-16 0 -35 -36z" />
    <glyph glyph-name="macron.cap" horiz-adv-x="500" 
d="M240 748l10 51h206l-10 -51h-206z" />
    <glyph glyph-name="dieresis.cap" horiz-adv-x="500" 
d="M252 747l14 75h66l-14 -75h-66zM368 747l15 75h65l-14 -75h-66z" />
    <glyph glyph-name="dotaccent.cap" horiz-adv-x="500" 
d="M309 747l15 75h67l-14 -75h-68z" />
    <glyph glyph-name="ring.cap" horiz-adv-x="500" 
d="M362 891q33 0 54 -20t21 -50q0 -35 -25.5 -59t-62.5 -24q-33 0 -54 20t-21 50q0 35 25.5 59t62.5 24zM351 769q22 0 36 14.5t14 34.5q0 18 -11 30t-30 12q-22 0 -36 -14.5t-14 -34.5q0 -18 11 -30t30 -12z" />
    </font>
</defs>
</svg>
